<svg id="Layer_1" data-name="Layer 1" xmlns="http://www.w3.org/2000/svg" viewBox="0 0 729.47 1000"><defs><style>.cls-1{fill:#aaedfe;}.cls-2{fill:#75dff9;}.cls-3{fill:#036f8b;}.cls-4{fill:#18bfe9;}.cls-5{fill:#00fff1;}.cls-6{fill:#3199b4;}.cls-7{fill:#fff;}</style></defs><title>MAp</title><path class="cls-1" d="M190.25,498.46a.73.73,0,0,0-.25-.5c-31.21-18.84-36.12-24.72-39.06-28.23-2.09-2.48-3.13-3.73-13.53-8.37-13.74-6.14-15.13-10.84-15.46-15.91-.17-2.66-.28-4.43-5.75-6.52-13.79-5.29-31.68-19.65-34.51-22-12.62,30.44-37.45,84.84-37.45,84.84l-5.32,97.62,71.16,4.26c.44,0,.89,0,1.34,0s1.19-.11,1.77-.17h.13l.31-.06.75-.18c.39-.1.79-.16,1.18-.23a4.68,4.68,0,0,1,.48-.18,1.1,1.1,0,0,1,.4-.17v0c.1,0,10.72-2.41,22.35-18.91l2.62-3.69C154,562.26,192.25,508.21,190.25,498.46Z"/><path class="cls-2" d="M403.8,536.34a6.92,6.92,0,0,1-1.67-5.31c.42-4.77,5.07-9.68,7.41-11.87-5.73-5-13.09-12-17.87-16.52-1.85,3.41-5.56,4.6-9.76,5.95-6,1.91-13.45,4.3-21.4,13.35a1.5,1.5,0,0,1-1.13.51H302.3a1.2,1.2,0,0,1-.38-.05c-.3-.07-7.4-2-8.13-9.62a3.48,3.48,0,0,0-.34-1.42c-.64.12-2.19,1.47-3.27,2.86a1.49,1.49,0,0,1-2.65-.6c-2.94-13.54-.68-16.86.92-17.63,2.62-1.27,5.61,1.8,7.95,4.64.65.64,1.26.95,1.63.83s1-.93,1.29-2.36a8.09,8.09,0,0,0-2.6-7.56c-2.28-1.77-3.68-3.19-3.67-4.82s1.19-2.39,2.43-3.31a15.17,15.17,0,0,0,2.38-2c.41-.45.48-.71.47-.79-.26-1.12-5-3-9.13-4.7-1.57-.63-3.28-1.32-5.11-2.1-3.6-1.52-2.79-4.42-2.2-6.54s1.16-4.17-.21-6.78C280.9,459,278.89,457,277,455c-3.6-3.6-6.44-6.43-5.14-8.88,1-1.89,3.8-2.68,14.14-.8a4.54,4.54,0,0,1,.66-2.12,1.13,1.13,0,0,0,.17-1c-.38-1.25-2.47-2.6-3.66-3.18h-5.88a1.49,1.49,0,0,1-1.21-.62,1.51,1.51,0,0,1-.21-1.35l1.7-5.24V427l-5.1-4.43a1.5,1.5,0,0,1,.16-2.38l3.8-2.5-1.72-5.82L268,408.65a2.55,2.55,0,0,1,.35,1.87c-.33,1.56-2,2.72-5.69,3.9-9.17,2.93-11.46,2.4-15.79.92-.81-.28-1.73-.6-2.82-.91-3-.85-6.86,2.85-9.53,6.1a8.14,8.14,0,0,1,3.91,3.18,5.77,5.77,0,0,1,.36,4.83s0,.1,0,.15l.41-.09c1.28-.26,2.88-.59,4.06.45a3.58,3.58,0,0,1,1,3.13,1.51,1.51,0,0,0,.06.83,4.74,4.74,0,0,0,1.7.17c1.29,0,2.9,0,4,1.17a4.14,4.14,0,0,1,.9,3.29,7.12,7.12,0,0,0,1.6,4.89c1,1.5,2.37,3.56.26,6-.44.51-10.7,12.37-16.15,8.8-2.14-1.39-2.59-1.08-2.6-1.08-.27.22-2.5,2.73,4.85,25.42,5,15.52,13,26.74,16.86,32.13,2.59,3.64,3.38,4.73,2.28,5.91s-2,.82-11.15-4.81c-5.72-3.5-7.51-3.72-7.94-3.68a11.39,11.39,0,0,0,.29,2.76c.42,2.32.89,5-.93,6.38-1.59,1.25-4.22,1-8.54-.94-7.72-3.39-9.39-3.2-9.75-3s-.24,1.78-.23,2.56c0,3.71.08,9.93-8.78,13.72a14.33,14.33,0,0,1-5.67,1.06c-5.25,0-10.59-2.16-13.11-3.35-3.64-1.7-7.52-4.19-9.64-6.64-7.33,12.41-19.31,30.69-38.61,57.93l-2.61,3.69c-10.46,14.84-20.16,18.89-23.22,19.85a.92.92,0,0,1-.34.31l.17-.12a6.76,6.76,0,0,0-1,1,2.23,2.23,0,0,0-.2.33c0,.05,0,.1,0,.15L115.2,631.3c4.27-1.61,28.38-10.67,36.58-13.13s31.12-.55,35.72-.13l7-8.08c-1.31-1.36-2.94-3.58-2.08-5.52s3.59-2.53,8.79-1.84c3.63.48,4.28-.19,4.28-.19.56-1.19-4-6.46-5.76-8.44-1.15-1.32-2.23-2.56-3-3.61-1.7-2.27-1.81-5.37-.31-8.73,2.2-5,8.1-10.32,15.12-11,3.72-.34,5.08-3.53,6.07-5.86.66-1.55,1.28-3,2.79-3h0c1.42,0,2.35,1.26,3.85,4.66l5.56-4.34a1.45,1.45,0,0,1,.92-.32h3.45a3.56,3.56,0,0,1-.49-2.11c.15-1.55,1.37-2.75,3.62-3.57,4.24-1.54,4.75-5.55,5.12-8.48.22-1.76.41-3.29,1.85-3.67s2.57.78,4.5,3.35a12.48,12.48,0,0,0,2.48,2.68,12.5,12.5,0,0,0-2.23-7.1c-1.42-1.95-1-3.27-.67-3.88a3,3,0,0,1,3.18-1.24c2.83.35,7.72,3.51,10.3,10.69.66-2.4,1.82-5.08,4.29-6,2.18-.81,4.75,0,7.83,2.33,3.94,3,5.61,3.07,6.15,2.94s.75-.56,1.07-1.23A2,2,0,0,1,283,545c1.35.06,1.81,1.2,3.06,4.57.26-2,.44-4.89.59-7.21.32-5,.65-10.11,1.56-12.83.35-1.07,1.41-4.31,3.82-3.79,2.75.58,3.36,6.05,3.08,8.85-.42,4.23,1.32,28.78,1.78,34.08.05.65.12,1.27.19,1.88.45,4.19.88,8.16-2.49,17.6-1.14,3.19,1,7.14,3.69,12.15a71.84,71.84,0,0,1,5.19,11.25A149.28,149.28,0,0,0,310,626.08c6.47,13.34,8.92,19,7,21.3a2.11,2.11,0,0,1-.3.3,1.46,1.46,0,0,0,.24.17c1.28.82,5.67,2.21,18.77-2.6a1.32,1.32,0,0,1,.62-.09c7.45.51,20.41.29,23.48-2.51a1.18,1.18,0,0,0,.49-.91,1.5,1.5,0,0,1,1.5-1.46H376.3a31.91,31.91,0,0,1,14-18c.69-.42.81-.79,1.19-2.68.66-3.29,1.88-9.42,10.89-21.32a1.17,1.17,0,0,1,.21-.23c2.8-2.42.34-8.49-2-14.36s-4.67-11.57-2.75-15.54a23,23,0,0,0,1.8-7.57c.45-3.9.93-7.92,5.22-9.77-.18-1.1.27-2.44,1.9-3.78s2.28-2.25,2.35-3.1c.12-1.39-1.57-3.33-3.91-6Z"/><path class="cls-3" d="M146.07,772.91c.76.18,3.17.43,4.12-.64.77-.88.67-2.79-.28-5.39-.87-2.37-.84-4,.08-5.09a2.9,2.9,0,0,1,3-.78c2.09.47,4.91,2.69,5.56,5,.81,2.84,1.93,4.21,2.47,4.28.34,0,1.15-.44,2.32-2.49a8,8,0,0,0,1-6.36c-.38-2.06-.82-4.4,3.16-6.54,1-.55,1.19-.75-.05-3.13-.78-1.5-1.75-3.36-.91-5.23.69-1.52,2.37-2.57,5.3-3.3a32.43,32.43,0,0,1,12.72-.44c3.72.46,3.76.23,3.91-.52.34-1.78-.37-4.64-1.13-7.67-1-3.85-2.06-8.2-1.55-12.27a1.34,1.34,0,0,1,.2-.58c1.16-2,1.57-3.51,1.19-4.47-.54-1.36-2.87-2-4.92-2.62-2.29-.66-4.46-1.29-5.09-3.13a3.92,3.92,0,0,1,.92-3.65c1.63-2.23.79-3.75-.84-6.23s-3.94-6,1.18-9.63l2.39-1.67c7.13-5,19.07-13.3,20.53-18.77a5.55,5.55,0,0,0-.53-4.57c-1.33-2.66-1.24-4.5,2.81-7.74a19,19,0,0,1,5.72-3.31c1.53-.58,1.9-.72,3.08-5.21l.06-.25a28.92,28.92,0,0,0-4,1.72c-3.6,1.75-6.7,3.27-8.52,1.54-1.34-1.27-1.17-3.53.55-7.57a30.52,30.52,0,0,1,4-7,40.21,40.21,0,0,1-8.53-2.59c-7.92-3.25-12-6.33-12.75-9.7-.55-2.35.54-4.31,1.85-6-7.16-.58-25.63-1.84-32.44.2-8.72,2.62-36.72,13.2-37,13.3l-.53-1.4-6.35,112.15s32.59,11.3,33.25,21.28c.28,4.13,1.58,6.43,3.72,8h0Z"/><path class="cls-4" d="M117.28,436.13c6.73,2.58,7.43,5.41,7.66,9.13.23,3.5.49,7.46,13.69,13.36,10.59,4.72,12.13,6.23,14.61,9.19,2.79,3.33,7.44,8.89,37.4,27,2.69-2.24,11.22-9.07,17.43-11,2.32-.73,3.51-2.61,4.78-4.61,1.87-3,4.16-6.57,10.41-4.68-.91-.93-2-2-3-3-4.6-4.47-10.9-10.59-15.61-17.08-9.87-13.57-24.59-21-24.73-21.1v0a1.26,1.26,0,0,1-.36-.24,1.46,1.46,0,0,1-.46-1.26,37.21,37.21,0,0,0-4.69-20.8c-1.09-1.87-1.89-3.48-2.59-4.9-3.15-6.34-3.81-7.65-20.5-7.65a1.5,1.5,0,0,1-1.41-1c-11.29-31.43-19.27-51.22-34-58.66-13.54,8.1-35.86,28-36.09,28.24a1.52,1.52,0,0,1-1,.37c.15,2.93.75,9.44,3.28,12.48,3.33,4,8.65,7.31,6.65,18-.44,2.39-2.93,8.92-6.51,17.61l1-1.15C83.44,414.53,103.05,430.67,117.28,436.13Z"/><path class="cls-5" d="M567.15,835.62c-12.72-3.84-29.5.2-41.78,10.06-20.17,16.21-68.61,40.83-69.09,41.08a1.65,1.65,0,0,1-.68.16,1.55,1.55,0,0,1-.56-.11,1.5,1.5,0,0,1-.86-.9,80.35,80.35,0,0,0-8.8-16.61,1.5,1.5,0,0,1-.19-1.3,20.17,20.17,0,0,0-6.76-22.6,1.5,1.5,0,0,1-.63-1.22V843c-6.3-.14-31.52-.43-44,3a24.1,24.1,0,0,1-6,1,4.4,4.4,0,0,1-3.35-1.13c-1.57-1.63-.79-4.14,0-6.8.64-2,1.36-4.36,1.08-6.31-.2-1.39-.51-2.94-.83-4.57a48.85,48.85,0,0,1-1.33-10.41,25.79,25.79,0,0,1-10.27.61,1.85,1.85,0,0,0-.85,0,4.62,4.62,0,0,1-.1.5,2.69,2.69,0,0,1-1.56,2.16,2.28,2.28,0,0,1-.84.15c-1.24,0-2.94-.88-6-3-22.2-15.72-27.78-20.28-28.95-22.17-.67-.35-1.82-1-3.75-2a118.53,118.53,0,0,1-21.28-14.63L300.47,787v8.69c.8,7.87,5.89,12.29,9.62,15.52,2.62,2.27,4.68,4.07,4.49,6.42a4.84,4.84,0,0,1-1.94,3.21c7.87,7.49,8,9.24,5.66,13.78-1.39,2.66-3.48,6.66-3.21,16.14.34,12.11-2.62,20.74-8.54,25a16,16,0,0,1-9.51,2.91,26.61,26.61,0,0,1-9.23-1.83,47.1,47.1,0,0,0-25.08-2.11,57.19,57.19,0,0,1-4.39,5.85c-.46.58-.94,1.16-1.43,1.77-2.79,3.49-1.72,7.58-.85,10.87.65,2.48,1.21,4.61-.12,6.07a4,4,0,0,1-3.06,1.1,12.16,12.16,0,0,1-2-.2c-4.45-.74-7.53-2.93-10.25-4.86-3.74-2.66-6.45-4.59-11.56-2.54l-.56-1.4L225.81,930H564.34l19.29-77.78,1-1.59-1.43.46C580.71,843.39,575.18,838,567.15,835.62Z"/><path class="cls-3" d="M551.51,793.74a91.67,91.67,0,0,0-13.18-13.36c-6.81-5.67-10.2-9.46-10.91-12.29-1.66-2-12.79-16-11.79-25.72.15-1.5.28-3.58-.33-4.3s-2.63-.82-5.44-1a83.51,83.51,0,0,1-13-1.52c-13.76-2.75-32.4-2-37.91-1.73l1.12,8.47a1.5,1.5,0,0,1-.55,1.37l-13.41,10.76v34.86a1.53,1.53,0,0,1-.26.86l-5.06,7.26v46c2.52,2.12,11.49,10.85,7.46,24.75a87.8,87.8,0,0,1,8.14,15.11c8.28-4.26,49.14-25.55,67.09-40,13-10.46,30.9-14.72,44.53-10.6,8.59,2.59,14.63,8.18,17.57,16.2l18.51-30.7C562.67,807.16,558.92,802.66,551.51,793.74Z"/><path class="cls-6" d="M242.33,892.89c2.57,1.83,5.23,3.72,9,4.35,2,.33,2.4,0,2.41,0,.18-.37-.28-2.12-.58-3.27-.93-3.52-2.32-8.83,1.41-13.5.49-.62,1-1.21,1.45-1.79,5.72-7,9.18-11.29,6.23-26.92-1.51-8-6.28-16.5-9.76-22.71-3.58-6.38-5.22-9.3-3.63-11.05,1.2-1.31,3.28-.65,5.16.18,6.38,2.82,8.38,3.11,8.94,2.86a3.45,3.45,0,0,0,.47-1.15l.28-.84a1.62,1.62,0,0,1,.19-.37c3.65-5.09,3-5.93,1.82-7.47a9.39,9.39,0,0,1-2.16-7.78c.38-3.38-.92-4.07-3.08-5.21-2.36-1.25-5.6-3-5.12-9,.4-5.16-1.73-8.31-4-9.15a3,3,0,0,0-3.68,1.16,10.68,10.68,0,0,0-1.62,4.15c-.3,1.36-.6,2.75-1.93,3.28s-3-.26-5.17-1.75c-3.49-2.39-5.64-5.77-7.36-8.48-1.32-2.08-2.56-4-3.7-4.25-.65-.11-1,.37-1.94,2.49-.76,1.75-1.7,3.93-3.94,4.18-4.82.5-7.16.19-8.35-1.12s-.79-2.72-.54-4,.38-2.21-.17-3c-5.85-4.59-18.73-21.83-22.92-27.53-1.43,1.06-3.67.78-5.86.51a29.69,29.69,0,0,0-11.62.37c-2.6.65-3.17,1.35-3.29,1.63-.25.54.33,1.64.83,2.61.93,1.78,2.65,5.09-1.19,7.15-2,1.1-2,1.54-1.63,3.35a10.91,10.91,0,0,1-1.32,8.39c-.61,1.07-2.48,4.32-5.29,4s-4.35-4.18-5-6.44a5.68,5.68,0,0,0-3.36-2.86,5.84,5.84,0,0,0,.45,1.93c1.39,3.79,1.29,6.62-.3,8.41a5.67,5.67,0,0,1-3.64,1.75c2.8,1.15,6.37,2,10.51,3.66,10,4,29.93,37.91,31.93,47.89s-8,13.3-6,16,12-2,12,23.94,31.26,23.94,31.26,23.94l-.55-1.39C234.54,887.36,238.5,890.17,242.33,892.89Z"/><path class="cls-3" d="M115.1,335.87a1.49,1.49,0,0,1,1.39-.06c16.06,7.58,24.34,27.63,35.89,59.72,16.82.08,18.53,2.08,22.12,9.32.69,1.37,1.46,2.93,2.51,4.72a39.93,39.93,0,0,1,5.19,20.67l47.59-8.42c1.77-2.67,8.58-12.13,15.06-10.27,1.16.33,2.12.66,3,.95,3.63,1.24,5.29,1.81,13.89-.94a11.22,11.22,0,0,0,3.54-1.58c-.16-.17-.41-.38-.57-.52-.65-.57-1.63-1.42-1.3-2.66s1.58-1.65,2.91-1.93,1.42-.77,1.48-.94c.51-1.38-1.07-4.33-2.35-6a1.51,1.51,0,0,1,1-2.41c2.82-.39,4.6-1.19,4.87-2.18.42-1.52-2-4.36-3.83-5.81a1.49,1.49,0,0,1-.56-1.19,1.53,1.53,0,0,1,.6-1.18c2.37-1.78,4.52-4.2,4.42-5,0,0-.44-.43-2.78-.43-.64,0-1.42,0-2.38.13-3.86.36-6.41-.27-7.78-1.94-1.84-2.22-.9-5.44-.22-7.79.16-.54.37-1.26.47-1.77-5.23.25-8.08-4.29-8.71-7.47-.58-2.94,6.77-8,10.34-10.39a12,12,0,0,0-2.77-3.89l-.05,0-.11-.12a20.52,20.52,0,0,0-7.74-4.36c-12.24-4.08-13.8-6.37-13.66-8.24.17-2.31,3.36-2.87,4.56-3.09,1.71-.3,1.8-.95,1.82-1.16.3-2.3-4.33-7.42-8.4-9.3a14.1,14.1,0,0,0-4.43-.73c-6.46-.45-16.22-1.13-19.48-22.13-3.39-21.89-15.44-25.23-18.09-25.7a2.67,2.67,0,0,1-.4.13,2.25,2.25,0,0,1-.58.08c-2.07,0-4.07-3-8.73-12.66-1.19-2.48-2.11-4.6-2.85-6.3-.89-2.07-1.82-4.21-2.35-4.68a13.75,13.75,0,0,0-3,2.89c-3.45,4-7.89,4-10.48,1.94-2.84-2.24-3.89-7,.14-12.67,6.1-8.53,2.13-16.23-2.27-21.18-2.36-2.66-2.27-6.55-2.2-9.4,0-.43,0-.94,0-1.39a30,30,0,0,0-3,2.85c-2.51,2.63-4.16,3.53-5.69,3.12-1.81-.48-2.3-2.48-2.82-4.6s-1.1-4.46-2.77-5.42c-1.15-.67-2.88-.67-5.12,0a1.52,1.52,0,0,1-.42.06v42.4l-17.3,3.32-2.66,12s20.62,4.65,6,10.64c-37,15.13-29.26,24.61-29.26,24.61L48.9,322.76s18,10,14.63,23.94c-2.76,11.61,9.64,17.25,13.9,18.82a1.48,1.48,0,0,1,.4-.65C78.78,364,101.38,343.84,115.1,335.87Z"/><path class="cls-4" d="M542.5,282.17c-2.47,8.34-10.24,9.77-17.75,11.16-4.49.83-9.14,1.69-13.11,3.91-4.14,2.32-4.62,4.63-5.13,7.07-.91,4.34-2.29,7.23-12.82,7.75a11.78,11.78,0,0,0-4.2.67,17.06,17.06,0,0,0,2.25,2.73c2.46,2.66,5.82,6.3,5.47,10.68-.23,2.74-1.91,5.36-5,7.78-1.34,1-2.91,2.57-2.75,3.92.28,2.4,5.61,4.82,9.9,6.77,5.31,2.42,10.33,4.7,10.74,8.29.21,1.86-.82,3.63-3.13,5.41-3.63,2.78-6.65,3.82-9.19,3.83-4.49,0-7.54-3.24-10-5.85-1.73-1.83-3.36-3.57-5.07-3.91a10.76,10.76,0,0,0-3.69.08c-1.3,12-.74,22.93,1.26,23.64,5.46,1.94,8.33,10,7.32,20.62-.25,2.64,3.43,5.67,7.68,9.17,7.94,6.53,18.75,15.43,15.2,31.06a6.6,6.6,0,0,1,1.61,3.21c.45,1.84.79,3.17,7.45,1.95,6.32-1.17,8.37-3.37,10-5.13,3.36-3.6,5.64-4.32,18,1.71,7.66,3.74,12.29.34,16.38-2.67,2.66-1.95,5.17-3.8,8-2.8,3.18,1.12,6.28,5.59,11,23.73,7.79,29.7,20.64,36.75,28.31,40.95,4.14,2.27,7.4,4.06,7.21,8.27-.38,8.34,4.68,9.95,4.9,10a1.5,1.5,0,0,1,1.05,1.2c17.65-3.17,26.58-16.8,30.46-31.69,4-15.29,14-19.28,18-20.61s-8.65-12.64-14-25.28c5.32-6,4-12-13.3-17.95,8-10-10.64-15.3-4.66-20s-11.3-27.27-18-39.24-39.91-14-45.23-36.58c-5.23-22.21-16.87-38-26.73-54.32a1.57,1.57,0,0,1-.93.22C549.82,272,545.52,272,542.5,282.17Z"/><path class="cls-4" d="M139.6,201.6c3.1-.9,5.54-.81,7.46.3,2.78,1.6,3.59,4.9,4.18,7.31a13.36,13.36,0,0,0,.73,2.36,9.24,9.24,0,0,0,2.7-2.25c3.62-3.78,5.18-4.74,6.67-4.12s1.53,2.49,1.48,4.81-.13,5.56,1.44,7.33c7.25,8.16,8.13,17,2.47,24.93-2.88,4-2.44,7.21-.73,8.56,1.44,1.13,4,1.13,6.36-1.55,2.15-2.48,3.82-4.21,5.69-3.92s2.85,2.37,4.64,6.49c.72,1.67,1.62,3.76,2.79,6.19,1.09,2.24,4.11,8.53,5.76,10.46a31.45,31.45,0,0,0,.26-6.66c-.42-14,3.65-17.2,6.93-19.77,1.91-1.51,3.3-2.59,3.73-5.75.83-6.15,4.39-7,7-7.55,2.23-.51,3.35-.76,3.65-3.5.35-3.15,1.52-5,3.47-5.43,4.42-1,9.66,6.43,11.71,9.67a14.58,14.58,0,0,0,.83,1.2c.2-.53.41-1.26.58-1.85,1-3.5,2.53-8.8,7.8-9.35a7.23,7.23,0,0,0,6-4.77c1.79-4.54.27-10.57-3.87-15.37-5.73-6.64-4.51-11.36-3.62-14.82.51-2,.72-3,0-3.86-2.64-3.4-1.59-8.76-.82-12.67a22.54,22.54,0,0,0,.51-3.33c0-1,0-1.82.89-2.27a1.6,1.6,0,0,1,1.76.22c.52.39,2.23-.44,4.87-3.12,2-2.05,3.55-2.85,5-2.62a3.78,3.78,0,0,1,2.66,2.37c.24-.33.56-.82,1-1.54.89-1.53,2.17-3.3,3.88-3.28s2.68,1.7,3.43,3.05a9,9,0,0,0,.95,1.5,5.58,5.58,0,0,0,1.09-1.33c3.78-5.84,9.17-6.47,12.4-5.84.94-2.05,2.89-6.37,3.86-9s3.43-1.93,4.91-1.57c2.54.6,5.16,1.22,7.52-4.67,2.54-6.35,11.11-6.33,18-5.14a24.78,24.78,0,0,1-5.21-11.44l-6-8.13a1.51,1.51,0,0,1,.44-2.18l8.14-4.88v-5.8a1.48,1.48,0,0,1,.48-1.1l7.21-6.65L308.28,90l-6.65,5.32-6-12L225.81,63.38l-33.92,9.31s2.66,16,3.33,18-10.64,5.33-14,8,0,9.31-5.32,6.65-10,7.31-10,7.31l4,6.65-12,6.65-6-2v16l-1.33,10,7.31,6-7.31,6H134l-10,6.65,6,7.32h-12s-4,9.31,0,15.29l4,10,7.32-4,9.33,5.25A1.52,1.52,0,0,1,139.6,201.6Z"/><path class="cls-3" d="M563,664.41c-1.67,1.29-4.46.63-9-2.15-.62-.37-.89-.29-1-.27-.83.22-1.8,2-2.67,3.51-1.47,2.65-3.14,5.65-6.27,6.24a67.08,67.08,0,0,1-7.52.67c-2.65.14-6.9.36-8.36.91a30.38,30.38,0,0,0,2.31,2.76c3.12,3.47,7.85,8.73,4,12.54-3.63,3.63-13.31,12-16.61,14.77,1.89,2.29,6.59,7.47,11.27,8.65a1.45,1.45,0,0,1,.49.22L546,723.62c.23-10.75,1.8-12.61,4.11-14.1,1-.64,2-1.25,2.3-7.09.88-14.87,13.85-33.22,15.18-35.06a12.86,12.86,0,0,1-3.75-4.19A2.87,2.87,0,0,1,563,664.41Z"/><path class="cls-3" d="M622.47,519.07c-.31-.08-7.58-2.21-7.09-13,.1-2.25-1.66-3.31-5.65-5.49-8.1-4.44-21.66-11.88-29.77-42.83-1.32-5-5.33-20.32-9.13-21.67-1.24-.44-2.78.63-5.19,2.4-4.3,3.16-10.19,7.49-19.47,2.94-11.43-5.59-12.37-4.58-14.45-2.36-1.84,2-4.38,4.69-11.67,6-7.93,1.46-9.95-.34-10.9-4.18-.48-1.93-.9-3.6-9.89-1.6a61,61,0,0,1-16.73,1c-4.06-.18-7.28-.33-8.33,1-1.18,1.56-.6,5.92,1.78,13.33,4.15,12.9,5.77,12.93,8,13,2.53.06,6,.14,11.69,7.49,6.34,8.17,7,13.21,7.48,17.27.46,3.72.83,6.65,5.68,11.3,5.5,5.27,5.84,8.26,6.17,11.16s.62,5.37,6.67,11c6.31,5.86,5.79,10.16,5.38,13.62-.44,3.62-.78,6.48,7.66,11.46,7.8,4.6,6.84,8.39,5.33,11.58a4.54,4.54,0,0,0-.51,1.37c.4.85,4.24,2.15,20.26,3.47a1.51,1.51,0,0,1,1.33,1.16c25.62-6,21.23-15,25.15-17.62s14,9.31,17.29,8,11.3-8.64,15.3-8.64,18-16,19.28-18-7.63-7.37-14.23-13.6A1.43,1.43,0,0,1,622.47,519.07Z"/><path class="cls-1" d="M536.77,620.22h-7.14l-6.7,15.5a1.51,1.51,0,0,1-1.38.91,1.46,1.46,0,0,1-.57-.12c-.34-.14-8.47-3.56-8.47-9.81a27.73,27.73,0,0,1,.16-2.87c-.34.09-.72.21-1.12.33l-1.48.43a1.49,1.49,0,0,1-1.82-.91,4.35,4.35,0,0,0-2.2-2.62,5.87,5.87,0,0,0-3.92,0,1.51,1.51,0,0,1-1.69-.45l-12.27-14.81c-2.16.39-7.36.9-9.67-2.61-.56-.85-1-.89-1.16-.9a3.32,3.32,0,0,0-2.14,1.1,1.5,1.5,0,0,1-2.56-.75,4.78,4.78,0,0,0-2.6-3.24c-1.63-.61-4.71-.44-10.27,3.63.68,5.25-1.67,8.57-3.94,11.78a23.63,23.63,0,0,0-3.15,5.37c-.84,2.24,1.46,4.22,5.34,7.23,3.11,2.4,6.63,5.12,8,8.8,1.44,4,5.94,8.47,9.23,11.74,3.47,3.46,5,5,3.86,6.64s-7.06,6.05-13.95,8.8c-1.52.61-1.7,2-1.81,5.4-.16,4.91-.39,12.33-11.51,16.56-3.25,1.23-2.76,3.91-1.57,8.17.7,2.48,1.3,4.62.35,6.27a3.36,3.36,0,0,1-2.19,1.57c-9.3,1.87-18.28,5.78-26.2,9.24-2.37,1-4.66,2-6.88,2.94,1.31,2.32,1.93,6.26-1.12,11.41-1.09,1.83-2.38,3.63-3.52,5.22a26,26,0,0,0-3.05,4.83c.48.08,1.76.11,4.93-.64,8.39-2,10.52-.8,11.7,2.21.3.76.41,1,.92,1.17,3,1.11,11.08-1.66,13.06-3.64,3-3,7.86-3,17.74.17l-.21-1.57a1.54,1.54,0,0,1,.33-1.15,1.5,1.5,0,0,1,1-.55c1-.07,23.67-1.64,40.31,1.69A81.26,81.26,0,0,0,510,734.11c3.81.2,6.12.32,7.56,2,1.26,1.47,1.32,3.69,1,6.55-.72,7,6.49,17.44,9.76,21.75,1.56-1.53,4.59-2,7.76-2.45s6.65-1,8.38-2.5c2-1.73,3.79-2.45,5.51-2.21,2.63.38,4.22,2.84,5.89,5.44a23.51,23.51,0,0,0,3.31,4.35.66.66,0,0,0,.19.14c2.63-.2,8.09-18,8-26.08,0-3.25-6.6-5.84-11.88-7.93-4.95-2-8.67-3.43-9.4-5.84l-18-12.46c-7-1.93-13.28-10.44-13.55-10.81a1.5,1.5,0,0,1,.24-2c.13-.11,13.3-11.31,17.53-15.54,1.66-1.66-1-4.93-4.15-8.42-2.09-2.32-3.47-3.85-3.26-5.37.37-2.59,4.16-2.92,11.38-3.3a62.58,62.58,0,0,0,7.12-.62c1.75-.33,3-2.57,4.21-4.75s2.46-4.4,4.52-4.95a4.19,4.19,0,0,1,3.3.61c3.87,2.34,5.28,2.37,5.6,2.33a1.75,1.75,0,0,0-.05-.63l1.44-.42a12.43,12.43,0,0,0-6.1-5c-10-4-1.33-9.31-2-13.3-.51-3.08-10.91-4.57-12.59-7.54l-1.46.34Z"/><path class="cls-6" d="M232,424a1.51,1.51,0,0,1-1,.67l-46,8.14c5.2,3.17,14.82,9.89,22.12,19.94,4.57,6.28,10.76,12.3,15.28,16.69,5.49,5.33,7,6.77,5.92,8.38s-3.07.65-4.78,0c-5-1.94-6.14-.07-8.1,3-1.43,2.26-3,4.82-6.42,5.87-5.43,1.7-13.24,7.84-16.1,10.2a4.6,4.6,0,0,1,.32,1c.57,2.8-.55,8.28-9.1,23.16,1,1.66,4.51,4.49,9.28,6.73,6.45,3,12.56,3.86,16.33,2.24,7-3,7-7.4,7-10.94,0-2.07,0-4,1.58-5.08,1.89-1.24,5.19-.53,12.61,2.73,4.54,2,5.43,1.35,5.47,1.33.41-.33,0-2.55-.16-3.5-.41-2.25-.83-4.59.91-5.77s5-.24,11.25,3.6l4.57,2.78c-4-5.67-11.94-17-17-32.52-7.24-22.35-6-27.07-3.81-28.73s5,.25,6.06.95c1.87,1.22,8.1-3.43,12.23-8.24.57-.67.6-.8-.48-2.41a10,10,0,0,1-2.09-6.78c.05-.66,0-1-.12-1s-1.23-.21-1.79-.21c-1.27,0-2.85,0-3.89-1.14a3.88,3.88,0,0,1-.85-3.11,2.63,2.63,0,0,0,0-.6,8.56,8.56,0,0,0-1.42.21c-1.18.24-2.64.55-3.6-.52s-.55-2.44-.22-3.43a2.79,2.79,0,0,0-.12-2.37,6,6,0,0,0-3.19-2.2C232.36,423.37,232.13,423.71,232,424Z"/><path class="cls-2" d="M357.86,323c-.26-2.18-2.67-3.57-2.69-3.58a1.51,1.51,0,0,1-.7-1.75,8.63,8.63,0,0,0-4.65-10.19c-4.57-2.31-6.7-4.14-7.37-6.31s.3-4.11,1.32-6c1.89-3.39,4.26-12.34,3.37-20.78A9.75,9.75,0,0,1,354,263.57a6.85,6.85,0,0,1,.79-3.31c1-2.09,1.36-3.54,1.08-4.32s-1.66-1.45-3.53-2.29a31.72,31.72,0,0,1-8.72-5.37c-4.46-4-6.77-7.34-7-10.16h0A1.54,1.54,0,0,1,336,238h0c-10.48-1.79-15.2,4.53-20.2,11.23-3.13,4.18-6.09,8.14-10.45,10-6,2.51-7.38,4.55-8.95,6.92a18,18,0,0,1-4.94,5.33c-3.45,2.47-7,1.51-9.88.74-3.47-.93-5.2-1.25-6.85,1.47a41,41,0,0,0-2.91,6.17c-1.75,4.35-3.25,8.11-8.89,9.16-2.38.45-2.57,1.7-2.51,5.17.05,2.71.1,6.09-3,8-2.15,1.33-1.67,4.23-.87,6.47a1.52,1.52,0,0,1,1.62.51c.74.83,5.77,4.95,32.83,4.95,20.24,0,30,3.9,33.25,5.6,1.38-1.83,4.22-5,7.38-4.67,1.94.2,3.51,1.61,4.68,4.19,6.44-.47,13.52.17,15.32,7.11a11,11,0,0,1,4.37.94C357.38,325.71,358,324.29,357.86,323Z"/><path class="cls-1" d="M473.89,167.79c-2.66-8,4-9.31-4.66-18.62s-2.66,4-12.63-4-9.32-15.3-15.3-16.63-8.65,2.66-16-2.66-15.3-2-24.61-5.32-12.64,0-20.62-6.65-10.64.67-15.38-4.65-10.56,2.66-16.54,1.33a16.08,16.08,0,0,0-10.64,1.33l-6.66-7.32-7.31-10-7.81-2.38a1.43,1.43,0,0,1-.39.67L308,99.73v6a1.52,1.52,0,0,1-.73,1.29l-7.45,4.47,5.23,7.1a1.55,1.55,0,0,1,.28.69c0,.1,1.52,10.7,9.57,13.87.95.38,1.48.58,1.67.65a1.5,1.5,0,1,1-1,2.83c-7.44-2.52-20.7-5.12-23.21,1.14-3.31,8.28-8.3,7.1-11,6.46A9.23,9.23,0,0,0,280,144c-1.38,3.65-4.34,10-4.47,10.28a1.5,1.5,0,0,1-1.89.77c-.23-.09-6.05-2.1-10.18,4.29-.79,1.21-2,2.82-3.74,2.77s-2.69-1.75-3.44-3.11a11.27,11.27,0,0,0-.87-1.4,6.84,6.84,0,0,0-1.22,1.67c-1.32,2.29-2.37,3.62-3.77,3.62h-.07c-1.33,0-1.93-1.24-2.32-2a3.8,3.8,0,0,0-.59-1s-.67.06-2.35,1.77c-2.72,2.77-4.92,4.13-6.73,4.13h0c-.1.83-.29,1.79-.5,2.84-.65,3.35-1.55,7.93.25,10.25,1.64,2.11,1.06,4.32.51,6.46-.8,3.12-1.72,6.66,3,12.11,4.94,5.72,6.62,12.78,4.39,18.43a10.12,10.12,0,0,1-8.47,6.65c-3,.32-4.16,3.45-5.24,7.2-.68,2.35-1.21,4.21-2.93,4.45s-2.82-1.32-3.9-3c-3.92-6.2-7.33-8.6-8.5-8.34-.42.09-.94.89-1.16,2.83-.54,4.86-3.67,5.57-6,6.09s-4.12.95-4.68,5c-.6,4.37-2.76,6.06-4.85,7.71-3,2.37-6.16,4.83-5.78,17.32a33,33,0,0,1-.34,7.35c4.6,1.22,16.05,6.41,19.39,27.93,2.89,18.63,10.56,19.17,16.72,19.6a15.78,15.78,0,0,1,5.48,1c4.41,2,10.69,8,10.12,12.4-.15,1.14-.9,3.14-4.28,3.74a8.71,8.71,0,0,0-1.8.47c.75.69,3.26,2.36,11.33,5.05a26.49,26.49,0,0,1,5.32,2.41,8.18,8.18,0,0,1,1.38-3.59c.66-1,.15-1.95-1.08-3.76-.93-1.38-1.89-2.8-1.55-4.43a3.88,3.88,0,0,1,1.91-2.45c1-.63.77-1.81-.52-5.26-1-2.78-2.34-6.2-1.56-9.66-4.16-7.23-1.49-11.54.82-13,1.51-.93,1.59-2.65,1.54-5.38-.05-3-.12-7.21,5-8.17,4-.75,5-3.22,6.65-7.32a43.74,43.74,0,0,1,3.13-6.61c2.89-4.78,6.94-3.69,10.2-2.82,2.6.7,5.06,1.36,7.35-.28a15,15,0,0,0,4.19-4.55c1.69-2.54,3.43-5.17,10.3-8,3.6-1.5,6.32-5.14,9.2-9,5.07-6.79,10.83-14.49,23.11-12.39l0,.07h0a1.39,1.39,0,0,1,.66.26h0c1.28-2.62,4.86-4.19,10.93-4.78,4.62-.44,7.58-1.68,9-3.76,2.12-3,1.39-8-.58-15.65-1.48-5.7-1.13-13.9,4.69-18.29,5-3.78,15.59-5.58,37.43,7.31,18,10.65,28,10.38,33.2,8.28a12.3,12.3,0,0,0,6.85-6.68c-1-1.46-1.76-3.74-3.67-10.07-1.36-4.49-1.21-7.65.45-9.39a4.37,4.37,0,0,1,4.41-1.05c4.11,1,9.47,6.41,11.76,14.7,1,3.7,2.88,6.14,5.51,7.26,5.54,2.36,13.54-1.37,16.72-3.08,5.65-3,16.51-10.06,16.61-10.13l.05,0C483.62,178.87,475.85,173.69,473.89,167.79Z"/><path class="cls-3" d="M455.94,206c-3.51-1.5-5.94-4.6-7.22-9.22-2.09-7.54-6.87-11.9-9.6-12.59-.71-.17-1.21-.11-1.51.2-.63.66-.89,2.7.25,6.46,2.13,7,2.68,8.65,3.58,9.6a13,13,0,0,0,1.05.91,46.08,46.08,0,0,1,6.61,6.69c7.27,8.66,10.23,15.64,9,21.33-.8,3.89-3.56,7-8.2,9.36a44.43,44.43,0,0,1-12.1,3.95c-4.49.9-5,1-4.38,4.67.52,3.28,2.2,5.66,3.68,7.76,2.09,3,4.26,6,1.39,10.18-3.74,5.4-8.14,10.4-15,10.4-2.2,0-2.85,1.45-3.89,4.22-.76,2-1.62,4.34-3.7,5.72a16.55,16.55,0,0,1-3.69,1.7c-3.06,1.1-4.32,1.55-2.81,6.36.31,1,.6,1.81.86,2.55a11.26,11.26,0,0,1,1,4.16c3.33,2.69,14.43,11.52,19.13,13.79,4,1.94,4.1,4.48,4.21,8a40,40,0,0,0,1.89,11.86l.58,1.87c2.37,7.72,2.37,7.72,8.39,10.16,1.83.74,4.1,1.66,7.07,3,9.08,4.13,16.21,2.51,21.94,1.21,3.3-.75,6.14-1.39,8.77-.87s4.68,2.69,6.66,4.79c3.92,4.15,7.31,7.74,15.19,1.7,1.35-1,2.06-2,2-2.69-.22-1.9-5.09-4.11-9-5.9-5.73-2.61-11.15-5.07-11.63-9.15-.26-2.23,1-4.4,3.89-6.64,2.41-1.88,3.71-3.78,3.87-5.66.25-3.06-2.49-6-4.69-8.39s-3.7-4-2.92-5.91,3.31-2.34,6.93-2.52c9-.45,9.41-2.41,10-5.38.54-2.56,1.27-6.08,6.61-9.07,4.4-2.46,9.29-3.36,14-4.24,7.53-1.39,13.48-2.49,15.42-9.06,3-10.15,7.52-12,9.62-12.3-8.8-14.22-8.6-8.35-18.82-30.06-10.64-22.61-25.94-12.64-33.25-34.59A68.38,68.38,0,0,0,492,192.6c-1,.67-11.17,7.21-16.75,10.21C470.84,205.2,462.44,208.78,455.94,206Z"/><path class="cls-4" d="M559.56,570.33c-17.53-1.44-21.37-2.8-22.61-5-.86-1.49-.16-3,.4-4.15,1-2.12,1.95-4.12-4.15-7.72-9.39-5.54-9.7-9.46-9.11-14.4.38-3.21.75-6.24-4.45-11.06-6.85-6.37-7.25-9.81-7.6-12.85-.29-2.58-.55-4.81-5.27-9.34a28.25,28.25,0,0,1-2-2.14,10.06,10.06,0,0,0,.48,5c1.41,2.9,1.63,5,.68,6.56-.79,1.27-2.27,1.91-4.4,1.91-4.44,0-6.14,3.69-6.8,6.79-.94,4.5-3.15,5.54-5.82,5.54a24.05,24.05,0,0,1-3.57-.37c-.85-.13-1.74-.29-2.65-.45-3.45-.61-7.37-1.3-10.17-.58s-6-1.86-9.07-4.38c-1.89-1.57-4-3.35-5.4-3.58a5.52,5.52,0,0,1-3.95-2.11c-1.1-1.71-.5-3.93.09-6.08.09-.31-.48-1.33-2.22-2.37-3.48-2.08-8.84-2.72-11.93.2-.73.69-17.84,16.79-22.34,15.66-.83-.21-3-1.86-5.84-4.27-2.36,2.17-6.39,6.56-6.7,10.17a4,4,0,0,0,1,3.09l1.37,1.58c2.93,3.36,4.87,5.58,4.64,8.24-.14,1.75-1.2,3.34-3.44,5.17-.78.64-.84,1-.84,1a3.55,3.55,0,0,0,1.37.54c3,.66,8.53-.29,13.5-3.9,1.31-1,3.54-1.78,6.75-.35,7.75,3.45,15.71,17.14,18.78,22.87,5.66,10.6,9.71,21.62,11.09,30.11,4.8-3.22,8.77-4.26,11.84-3.09a7,7,0,0,1,3.66,3.37,5,5,0,0,1,2.79-.67,4.51,4.51,0,0,1,3.41,2.24c1.42,2.15,5.79,1.56,7.36,1.15a1.51,1.51,0,0,1,1.54.49l12.24,14.78a8.35,8.35,0,0,1,5.15.42,6.82,6.82,0,0,1,3.18,3l.23-.07c2.4-.71,3.39-1,4.33-.24s.76,1.75.64,2.94a25.33,25.33,0,0,0-.16,2.72c0,2.85,3.12,5.19,5.29,6.39l6.47-15a1.52,1.52,0,0,1,1.38-.9H538a1.51,1.51,0,0,1,1.46,1.16l3.25,14c.12-.11.24-.22.39-.34,15.29-8,12.63-23.28,12.63-27.93s10.64-7.32,9.31-16c-8.85-15.81-.28-10.59-4.55-18a1.46,1.46,0,0,1-.77.24Z"/><path class="cls-5" d="M394.11,780.64c1.13-.52,1.23-1,1.55-2.47.49-2.27,1.23-5.72,7-10.32,4.72-3.75,6.24-7.67,5.31-9.59-.55-1.15-2-1.54-4-1.07-1.41.33-2.93.83-4.55,1.37-4.52,1.49-9.2,3-12.32,1-1.67-1.13-2.61-3.15-2.8-6-.25-3.76-1.28-6.2-2.88-6.87-1.42-.6-3.52.12-5.62,1.92-4.87,4.17-12.24-.71-16.65-3.62-.65-.44-1.24-.83-1.74-1.13-1.09-.67-1.62-.47-2.88,0a9.31,9.31,0,0,1-7.5.1c-2.52-.94-4.12,0-5.82,1-1.41.84-3.29,2-5.26.77-7.38,2.11-17.34,9.25-17.11,11.68.06.56,1.42,1.57,6.18,1.82,10.68.55,14.55,1.4,16.55,3.66,1.72,1.93,1.56,4.44,1.33,7.93-.06,1-.13,2-.17,3.18l0,.69c-.11,3.38-.19,5.69-.91,7.21,3,3.61,9.42,10.91,12.07,12.58l0,0c1.95-2.84,5.3-5.42,20.43,0,7,2.48,11.52,5.68,13.61,9.52a44.71,44.71,0,0,1-2-8.09C384.46,785.09,389.81,782.62,394.11,780.64Z"/><path class="cls-1" d="M326.92,776c4.57,2.33,10.83,5.53,11.95,4.87.62-.37.72-3.52.81-6.29l0-.7c0-1.2.11-2.29.18-3.28.2-3.12.27-4.79-.58-5.74-1.48-1.67-6.63-2.25-14.47-2.66-2.13-.11-8.61-.44-9-4.52-.51-5.23,11.06-11.8,17.58-14.27-3.27-3.56-5-7.47-6.46-11-2-4.56-3.65-8.5-8.31-10.59-8.77-3.94-6.73-11.5-5.09-17.57.44-1.64.86-3.19,1.1-4.66a12.74,12.74,0,0,1,3.68-7.57,26.48,26.48,0,0,0,5.2-8.4c3.43-8.18,8.64-27.5,10.52-34.65-5.36,1.8-9.75,2.7-13.13,2.7a10,10,0,0,1-5.81-1.46,4.78,4.78,0,0,1-1.87-2.38c-6.54-1.81-12.67-4.46-12.67-12.73a7.17,7.17,0,0,0-9.41-7.06c-2.21,1-4.23-.8-6.18-2.53-1.79-1.57-3.63-3.2-5.36-2.87-1.54.31-3.22,2.24-4.87,5.58a1.51,1.51,0,0,1-1,.79c-4.27,1.11-4.27,2.42-4.26,4.4a10.67,10.67,0,0,1-.11,1.93,2.53,2.53,0,0,1-1.1,1.73c-1.67,1.17-4.67.72-8.71-.05a22,22,0,0,0-2.75-.42c-2.23,0-41.84-16.84-60.14-24.67l-7.45,8.63-.61.69c-1.41,1.59-2.87,3.23-2.5,4.85s2.56,4.16,11,7.61c6.64,2.72,9.73,2.67,10.75,2.52a1.54,1.54,0,0,1,1.73,1,1.61,1.61,0,0,1-.74,1.85c-.65.38-3,2.12-5.61,8.24-1.14,2.67-1.22,3.77-1.2,4.15h0c1,0,3.61-1.28,5.07-2,3.28-1.6,5.88-2.86,7.49-1.54.86.71,1.09,1.9.66,3.52-1.45,5.52-2.39,6.3-4.92,7.26a16,16,0,0,0-4.9,2.84c-2.88,2.3-2.66,2.75-2,4.07a8.47,8.47,0,0,1,.75,6.67c-1.75,6.53-13.29,14.58-21.71,20.46l-2.38,1.66c-2.75,2-2.06,3-.4,5.53,1.56,2.38,3.69,5.64.75,9.65-.5.67-.49.94-.49.95.24.36,2,.87,3.07,1.17,2.58.75,5.79,1.67,6.88,4.41.73,1.84.33,4.08-1.24,6.81-.35,3.45.64,7.39,1.52,10.88.8,3.19,1.49,6,1.25,8.29,2.44,3.35,17.52,23.88,23.45,28.37a1.72,1.72,0,0,1,.27.27c1.57,2,1.14,4.15.86,5.59a4.28,4.28,0,0,0-.16,1.38c.05,0,.83.64,5.78.12.51-.06,1.09-1.41,1.51-2.39.83-1.92,2.08-4.82,5.24-4.25,2.43.44,3.94,2.83,5.69,5.59s3.54,5.58,6.53,7.62a12,12,0,0,0,2.23,1.3c.08-.28.17-.68.24-1a13.36,13.36,0,0,1,2.11-5.26,6,6,0,0,1,7.15-2.23c3.36,1.23,6.52,5.47,6,12.2-.32,4.12,1.3,5,3.54,6.16a11,11,0,0,1,3.18,2.24h17l6.55-6.58a1.49,1.49,0,0,1,1.59-.35l7.28,2.75v-7.33a1.48,1.48,0,0,1,.55-1.16l10.61-8.68a5.79,5.79,0,0,1,2.93-3.23C314.91,771.58,320.07,772.51,326.92,776Z"/><path class="cls-3" d="M290,794.05l-6.3,6.34a1.5,1.5,0,0,1-1.06.44h-16.2a10.13,10.13,0,0,1,.06,2.95,6.49,6.49,0,0,0,1.56,5.62,7.47,7.47,0,0,1,1.43,2.61c1.66,1.09,6.06,4.3,6.46,7.63a4,4,0,0,1-1.23,3.43c-1,1-.79,1.56-.71,1.75.49,1.25,3.27,2.65,7.46,2.79,4,.13,6,2.67,7.9,5.13s3.85,4.92,8,6.24a23.58,23.58,0,0,1,9.58,6.36c2.74,2.69,3.35,3,4.61,2.06l.46.64c.17-8.26,2.18-12.13,3.56-14.77,1.63-3.14,1.93-3.71-6.39-11.47a1.48,1.48,0,0,1-.46-1.24,1.46,1.46,0,0,1,.7-1.13c1.84-1.13,2.08-1.79,2.1-2,.07-.83-1.73-2.39-3.47-3.9-3.74-3.25-9.32-8.11-10.51-16.6Z"/><path class="cls-3" d="M293.4,862.45a1.15,1.15,0,0,1-.17-.06c-16.9-7.94-28.21-32.64-30.61-38.28-1.89,0-4.76-.94-9.81-3.16a10.13,10.13,0,0,0-1.39-.53,60.15,60.15,0,0,0,3.69,7.18c3.58,6.39,8.49,15.14,10.09,23.62,1.83,9.72,1.23,15.58-.7,20.15A50.18,50.18,0,0,1,288.85,874a25.49,25.49,0,0,0,6.78,1.58,13.31,13.31,0,0,0,.4-9.88C295.38,864,294.4,862.79,293.4,862.45Z"/><path class="cls-3" d="M312.08,850.54a4.15,4.15,0,0,1-1.6.34c-2.11,0-3.86-1.72-5.58-3.4-2-2-4.48-4.4-8.38-5.64-5-1.6-7.5-4.73-9.47-7.25s-3.18-3.9-5.64-4c-5.11-.17-9.1-2-10.15-4.69-.38-1-.71-2.88,1.38-5a1.06,1.06,0,0,0,.37-1c-.15-1.3-2-3.13-3.8-4.53a22.37,22.37,0,0,1-2.74,4.81q-.09.29-.18.54a6.07,6.07,0,0,1-.93,2.06c2.23,5.17,13.31,29.3,29.08,36.77,1.86.66,3.42,2.45,4.4,5a16.25,16.25,0,0,1,.05,10.88,12.68,12.68,0,0,0,5.92-2.23c5.07-3.63,7.59-11.39,7.28-22.45C312.09,850.76,312.09,850.66,312.08,850.54Z"/><path class="cls-6" d="M358.7,254.91c.61,1.65.25,3.63-1.18,6.64a2.93,2.93,0,0,0-.42,2.17c.43.84,2.7,1.26,4.7,1.63,4.17.77,10.45,1.94,9.6,9a19.8,19.8,0,0,0-.22,4.39l.59-.16a10.63,10.63,0,0,1,2.89-.48,7,7,0,0,1,3.55,1,36.71,36.71,0,0,1,4.19,2.82,14.53,14.53,0,0,0,5.69,2.81,3.88,3.88,0,0,1,2.53,1.79,3.41,3.41,0,0,1-.19,2.83c-.3.75-.46,1.19-.23,1.7.32.73,1.7,2.27,7.28,4.34l3.49,1.31c3.17,1.19,5.81,2.18,7.17,2.52-.16-.57-.42-1.31-.65-2s-.56-1.64-.88-2.63c-2.38-7.56,1.52-9,4.66-10.08a14.64,14.64,0,0,0,3-1.37c1.27-.85,1.89-2.51,2.55-4.28,1-2.75,2.31-6.17,6.7-6.17,5.15,0,8.73-3.64,12.51-9.11,1.61-2.33.8-3.67-1.37-6.74a20.7,20.7,0,0,1-4.19-9c-1-6.52,2.4-7.21,6.74-8.08a41.62,41.62,0,0,0,11.36-3.7c3.83-1.91,6-4.29,6.61-7.28,1-4.67-1.87-11-8.42-18.79a44.19,44.19,0,0,0-5.85-6,15.36,15.36,0,0,1-7.94,7.23c-8.45,3.49-20.54.64-35.93-8.44-15.92-9.4-28-12.06-34.09-7.49-4.65,3.49-4.84,10.34-3.6,15.14,1.83,7,3.21,13.73.14,18.12-2,2.85-5.65,4.49-11.2,5-6.77.65-8.32,2.39-8.64,3.37s-.06,3.72,5.95,9.09a28.66,28.66,0,0,0,7.95,4.88C356,252,358,252.89,358.7,254.91Z"/><path class="cls-3" d="M373.29,797.23c-14.21-5.07-16.06-2.39-17-1.1a2.6,2.6,0,0,1-3.93,1c-3.29-2-10.47-10.35-12.92-13.28-2.34.59-5.94-1.06-13.93-5.15-7.73-3.95-11.21-3.43-12.59-2.78a2.93,2.93,0,0,0-1.23,1,116.4,116.4,0,0,0,20.87,14.38c2.5,1.37,3.67,2,4.18,2.24.32.16,1.18.61,1.18,1.5,1.43,1.4,6.9,6,27.63,20.63a22.88,22.88,0,0,0,3.75,2.31c.24-1,1-3.2,4.39-2.56,3.82.72,8.36-.37,10.16-.88a7.37,7.37,0,0,1,2-3.39,7.62,7.62,0,0,0,.09-4.07C385,803.24,380.57,799.83,373.29,797.23Z"/><path class="cls-6" d="M455.47,737.2c-10.72-3.46-13.6-2.54-15.11-1-2.19,2.2-8.75,4.75-13.42,4.75a8.14,8.14,0,0,1-2.78-.41,4.39,4.39,0,0,1-2.69-2.9c-.39-1-.83-2.11-8.22-.38-4.89,1.15-7.2,1-8.24-.56-1.32-2,.59-4.63,3.23-8.3,1.11-1.54,2.36-3.28,3.38-5,2.81-4.76,1.67-7.58.87-8.75-5.2,2-9.94,3.37-14.27,3.37h-.52a1.5,1.5,0,0,1-1.44-1.24c-2-11.34-.89-18.44.49-27.44.27-1.78.55-3.63.83-5.62,1-6.89,2.92-10.83,5.85-11.71a4.6,4.6,0,0,1,4.8,1.61.46.46,0,0,0,.46.14,1.2,1.2,0,0,0,.82-.89c.21-.65.57-3.1-3.51-7.55-6.72-7.33-7.24-18-7.17-22H363a4.67,4.67,0,0,1-1.16,1.58c-4.47,4.09-19.7,3.62-24.46,3.37-1.41,5.41-7.22,27.4-11.07,36.58a29.08,29.08,0,0,1-5.71,9.23,9.74,9.74,0,0,0-3,6.06,50.77,50.77,0,0,1-1.17,5c-1.87,6.94-2.57,11.36,3.43,14.05,5.73,2.57,7.73,7.22,9.84,12.14,1.72,4,3.5,8.16,7.5,11.72.46.4.65.46,2.43-.6s4.54-2.7,8.41-1.26a6.32,6.32,0,0,0,5.36-.08,5.51,5.51,0,0,1,5.53.21c.53.32,1.15.73,1.84,1.18,3.7,2.45,9.89,6.55,13,3.85s6.21-3.47,8.74-2.41c1.92.81,4.29,3.1,4.71,9.44.13,1.89.63,3.14,1.49,3.72,1.9,1.27,6-.1,9.7-1.31,1.61-.53,3.27-1.08,4.8-1.44,3.4-.8,6.24.23,7.42,2.68,1.35,2.78.55,7.92-6.14,13.25-4.94,3.93-5.49,6.52-5.94,8.6-.36,1.68-.74,3.41-3.22,4.56-4.27,2-7.64,3.52-6.46,12.07a42.25,42.25,0,0,0,1.87,7.63c1.26,3.92,2.25,7-2.23,9.81l-.08.06a13.43,13.43,0,0,1-1.89,3.45c-.48,3,.36,7.3,1.14,11.22.33,1.68.65,3.26.86,4.73.37,2.62-.46,5.28-1.19,7.63-.35,1.13-1.08,3.47-.74,3.82,0,0,.84.79,6.37-.71,13-3.54,38.24-3.24,44.78-3.09V797a1.59,1.59,0,0,1,.27-.86l5.05-7.26V753.73a1.53,1.53,0,0,1,.56-1.17L457,741.88l-.88-6.67Z"/><path class="cls-4" d="M679.4,732.45c-6-4.66-25.94-14.63-25.28-25.94s-5.32-4.66-9.31-2-5.32,2.66-10,0-17.29-12.64-20-21.29,5.33-5.32,5.33-7.31-4.66-9.31-4-16-2.67-6.65-10.65-6.65,0,0-1.33,6.65-10,10.65-26.6,10a21.33,21.33,0,0,1-8.75-1.82l1.22.9c-.14.19-13.84,19.14-14.69,33.6-.41,6.83-1.78,8.22-3.68,9.44-1.23.79-2.76,1.77-2.76,14.41.25,1,4.88,2.84,7.65,3.93,6.42,2.54,13.7,5.42,13.77,10.69.07,6-4.2,26.4-9.72,28.83a3.11,3.11,0,0,1-3.51-.68,25.47,25.47,0,0,1-3.78-4.91c-1.29-2-2.52-3.91-3.79-4.09-.8-.11-1.84.4-3.12,1.51-2.4,2.07-6.39,2.67-9.91,3.19-2.53.38-6,.9-6.28,1.9-.16.56.1,3,10,11.24a94.93,94.93,0,0,1,13.57,13.75c7,8.46,10.56,12.71,51.48,23.64l-.39,1.45h0s58.53,33.92,63.85,35.25,1.33-34.58,1.33-44.56,3.32-12.63-4-20-9.31-16-14.64-23.28-4-10,6-10,14,0,21.95-6.65S685.38,737.1,679.4,732.45Z"/><path class="cls-1" d="M437.94,507.56c4.21-4,11-3.31,15.53-.59,2.77,1.65,4.1,3.8,3.58,5.73-.34,1.23-.85,3.08-.47,3.68.13.18.53.53,1.93.77,2.16.36,4.42,2.24,6.82,4.23,2.22,1.84,5,4.15,6.4,3.77,3.43-.88,7.69-.13,11.45.53.88.16,1.74.31,2.58.44,4.33.67,5.24.81,6-2.82,1.22-5.82,4.77-9.17,9.73-9.17,1,0,1.66-.19,1.86-.5.09-.14.46-1-.84-3.66-1.54-3.18-.65-8-.25-9.75a19.2,19.2,0,0,1-2.07-7.46c-.48-3.88-1-8.28-6.87-15.81-4.82-6.21-7.25-6.27-9.39-6.32-4.27-.09-6.44-1.48-10.8-15.06-2.9-9-3.26-13.51-1.31-16.07s5.71-2.45,10.85-2.22a57.91,57.91,0,0,0,15.94-.93c4.22-.93,7.08-1.14,9.07-.75,2.66-13.41-6.73-21.14-14.34-27.4-4.91-4-9.16-7.53-8.75-11.76.86-9-1.29-16.07-5.34-17.51-5.09-1.8-4.22-17.34-3.35-25.86l-.74.17c-5.84,1.32-13.84,3.14-23.84-1.4-2.91-1.33-5.16-2.24-7-3-7.13-2.9-7.42-3.23-10.13-12.06l-.57-1.86a42.64,42.64,0,0,1-2-12.66c-.1-3.33-.12-4.23-2.51-5.38-5.31-2.56-17.48-12.34-20.19-14.54-1.49,0-4-.95-9-2.84l-3.48-1.3c-5.19-1.93-8-3.82-9-5.94a4.85,4.85,0,0,1,.18-4l.16-.42a4.28,4.28,0,0,0-.59-.23,17,17,0,0,1-6.62-3.28,35.18,35.18,0,0,0-3.9-2.62,4.77,4.77,0,0,0-4.12-.2c-1,.29-2.34.65-3.38-.25s-1.31-2.72-.77-7.23c.47-3.88-1.94-4.76-7.16-5.73-2.29-.42-4.47-.84-5.85-2a6.83,6.83,0,0,0-5.29,7.82c.88,8.33-1.2,18-3.73,22.55-1,1.85-1.31,2.83-1.07,3.62.38,1.24,2.29,2.71,5.85,4.51a11.5,11.5,0,0,1,6.43,12.66,8,8,0,0,1,3.23,5.16c.26,2.11-.54,4.23-2.36,6.33,1.87,1.81,3.12,4.38,4.5,7.27.83,1.74,1.77,3.71,3,5.81,7.77,7.93,7.86,13.46,7.93,17.51,0,2.14.06,3.68,1.19,5.07a21.45,21.45,0,0,0,4.53,3.68c4,2.69,8.87,6,10,14.07,8.35,14.59,4,35.14,1.44,47.45a68.9,68.9,0,0,0-1.38,7.69l1.31,9.77a2.18,2.18,0,0,1,0,.25c0,.11-.51,10.55-12.54,12.73a15.27,15.27,0,0,0-2.17.52c.21.3.52.69.78,1,2.38,3,7.28,9.34,4.73,22.23,3,4,5.21,6.79,6.88,8.84,2.6,3.21,3.88,4.8,4,6.51,11.06,10.59,23.61,22.06,25.77,23.1C420.46,522.31,430.06,515,437.94,507.56Z"/><path class="cls-3" d="M401.5,640.76a1.52,1.52,0,0,1,.39,1.15c0,.13-1.05,13.31,6.32,21.35,4.85,5.3,4.69,8.85,4.16,10.5a4.15,4.15,0,0,1-3.07,2.9,3.43,3.43,0,0,1-3.32-1.08c-.26-.29-1-1-1.69-.73-1.24.37-2.87,3-3.74,9.25-.28,2-.56,3.87-.84,5.66-1.28,8.39-2.31,15.08-.71,25.22,6.12-.26,13.52-3.49,22-7.18,8.06-3.52,17.19-7.5,26.73-9.41a.59.59,0,0,0,.26-.15c.32-.55-.23-2.52-.63-4-1.06-3.78-2.66-9.49,3.38-11.78,9.25-3.52,9.43-9,9.58-13.85.1-3.29.21-6.7,3.7-8.09a44.69,44.69,0,0,0,12.16-7.3c-.61-.77-2-2.11-3.08-3.24-3.49-3.47-8.26-8.23-9.93-12.83-1.05-2.87-4.06-5.2-7-7.46-3.93-3-8-6.19-6.32-10.65a26.45,26.45,0,0,1,3.51-6.06c2.23-3.15,4.16-5.87,3.29-10.42h0a.53.53,0,0,0,0-.12c-1.85-17.82-18.33-48.57-28.44-53.07-2.3-1-3.4-.23-3.77,0-6.23,4.54-13.89,5.63-17.53,3.85-3.36,1-3.78,3.25-4.3,7.68a25.64,25.64,0,0,1-2.08,8.53c-1.34,2.77.78,8,2.83,13.11,2.74,6.78,5.58,13.79,1.34,17.63-8.51,11.28-9.64,16.94-10.25,20-.4,2-.71,3.52-2.59,4.66a29.26,29.26,0,0,0-12.4,15.4H400.4A1.48,1.48,0,0,1,401.5,640.76Z"/><path class="cls-3" d="M378.9,485.26a1.5,1.5,0,0,1-.26-1.2c2.57-12-1.71-17.47-4-20.42-1.14-1.47-2-2.62-1.51-4s2.06-1.86,4.74-2.35c9.08-1.65,10-8.75,10.07-9.78l-1.09-8.14c-15.94,3.82-36.26-.09-55-10.65a48.67,48.67,0,0,0-3.09,5.79c-2.57,5.4-5,10.5-13,8.3-4.7-1.3-5.78-.79-6-.6-.42.36-.23,2.08-.08,3.45.05.43.09.88.14,1.33a7.69,7.69,0,0,1-4.81,7.7,5.62,5.62,0,0,1-2.09.43,3.54,3.54,0,0,1-2.86-1.29l-.68-.87c-1.74-2.31-2.13-2.48-3.49-1.51-2.36,1.69-5.69.6-7.76-1.35a7.7,7.7,0,0,1-1.26-1.53c-9.43-1.82-11.77-1.28-12.31-1,.26,1.07,2.92,3.73,4.55,5.35,2.1,2.1,4.27,4.27,5.27,6.16,1.92,3.65,1.06,6.73.44,9s-.58,2.52.47,3c1.82.77,3.52,1.45,5.07,2.08,6.66,2.69,10.32,4.17,10.93,6.82a3.84,3.84,0,0,1-1.17,3.47,17.71,17.71,0,0,1-2.81,2.43,10,10,0,0,0-1.19,1,9.49,9.49,0,0,0,2.48,2.37,11,11,0,0,1,3.71,10.46c-.45,2.46-1.66,4.17-3.34,4.7-1.07.33-2.75.32-4.71-1.63l-.09-.11c-3.24-3.95-4.41-3.89-4.41-3.89-.88.69-.77,5.78.19,11.41,1.29-1.14,2.9-2.09,4.42-1.65s2.23,1.76,2.45,4a8.25,8.25,0,0,0,5.73,7h56.2c8.34-9.26,16.38-11.83,22.29-13.72,5.2-1.66,7.75-2.62,8.61-6,.05-.8-1.1-2.21-3.34-5C384.51,492.59,382.11,489.62,378.9,485.26Z"/><path class="cls-4" d="M289.65,441.32a4.12,4.12,0,0,1-.49,3.5c-.81,1.3.68,2.81,1,3.1,1.3,1.22,3.08,1.72,4,1.09,3.91-2.79,6.24.3,7.63,2.14l.62.81c.16.2.73.25,1.49-.06a4.72,4.72,0,0,0,2.94-4.64c0-.43-.09-.86-.13-1.27-.27-2.4-.52-4.67,1.12-6.06s4.06-1.31,8.75,0c5.32,1.47,6.75-1,9.47-6.7a46.28,46.28,0,0,1,4.12-7.37,1.5,1.5,0,0,1,2-.41c18.68,10.83,39,14.87,54.61,10.91.22-1.81.73-4.24,1.34-7.17,2.52-12,6.72-32-1.24-45.58a1.54,1.54,0,0,1-.2-.58c-.83-6.91-4.83-9.63-8.69-12.26a23.09,23.09,0,0,1-5.17-4.27c-1.79-2.19-1.83-4.48-1.87-6.91-.06-3.76-.14-8.44-7.2-15.59a1.83,1.83,0,0,1-.24-.31c-1.3-2.26-2.29-4.34-3.17-6.18-2.69-5.63-4-8.45-9.79-8.21a1.49,1.49,0,0,1-1.55-1.27c-.63-4.14-3.16-6.7-13.46-5.76a1.51,1.51,0,0,1-1.54-1c-.43-1.18-1.35-3.18-2.6-3.3-1.81-.18-4.44,3-5.36,4.46a1.47,1.47,0,0,1-1,.68,1.49,1.49,0,0,1-1.16-.25c-.08-.05-8.65-5.81-32.83-5.81-20.29,0-29.1-2.29-32.91-4.35l0,.06c-.81,2.71.32,5.73,1.32,8.39,1.21,3.2,2.57,6.82-.69,8.86-.38.23-.54.43-.56.52-.08.38.63,1.43,1.1,2.13,1.17,1.72,2.93,4.33,1.09,7.1s-.47,4.4-.21,4.7a13.3,13.3,0,0,1,4,6.42,1.51,1.51,0,0,1-.66,1.54c-4.4,2.87-9.35,6.74-10,8.1.39,1.62,2.07,5.19,5.89,4.85a2.55,2.55,0,0,1,2.33.83c1,1.18.49,2.86-.08,4.8s-1.18,4-.35,5c.67.81,2.51,1.11,5.19.86,3.32-.31,7.26-.34,8.25,2.24s-1.84,5.44-4,7.3c1.72,1.69,4.27,4.8,3.47,7.7-.52,1.89-2.18,3.18-5.06,3.92,1.09,1.86,2.3,4.65,1.49,6.89a4.05,4.05,0,0,1-.75,1.26l6.72,3.2a1.5,1.5,0,0,1,.79.93l2.22,7.53a1.49,1.49,0,0,1-.61,1.68l-3.08,2,4.12,3.58a1.48,1.48,0,0,1,.52,1.13v5.76a1.84,1.84,0,0,1-.07.47L279.31,436h4.14a1.58,1.58,0,0,1,.61.12C284.54,436.37,288.72,438.3,289.65,441.32Z"/><path class="cls-4" d="M197.52,608.71a1.55,1.55,0,0,1,.38.5c22.72,9.72,56.2,23.81,59,24.42a22.84,22.84,0,0,1,3.21.47c1.61.31,5.3,1,6.32.6a12.34,12.34,0,0,0,0-1.25c0-2.84.44-5.53,5.84-7.13,2.05-4,4.24-6.11,6.68-6.59,3.18-.63,5.81,1.7,7.93,3.57.88.78,2.52,2.23,3,2a8.13,8.13,0,0,1,3.3-.65A10.78,10.78,0,0,1,299,626.4a10,10,0,0,1,4.56,8.73c0,5.91,3.73,8,11.08,10,0-2.65-4.42-11.66-7.37-17.75a147.24,147.24,0,0,1-6.63-14.85,68.5,68.5,0,0,0-5-10.77c-2.93-5.45-5.46-10.15-3.87-14.59,3.13-8.79,2.76-12.26,2.33-16.27-.07-.63-.14-1.27-.2-1.94-.35-4-2.24-29.92-1.77-34.64a12.23,12.23,0,0,0-.6-5,10.7,10.7,0,0,0-.48,1.22c-.78,2.35-1.11,7.52-1.41,12.07-.56,8.83-.84,11.64-3,11.95-1.88.27-2.79-2.17-3.33-3.63-.12-.31-.33-.88-.56-1.46a3.9,3.9,0,0,1-2.06,1.23c-2.15.51-4.91-.59-8.67-3.49-2.14-1.64-3.86-2.29-5-1.89-1.77.65-2.5,4.07-2.94,6.11-.37,1.76-.67,3.15-2.11,3.2s-2-1.65-2.67-3.81c-1.91-6.59-5.65-8.95-6.75-9.52a4.75,4.75,0,0,0-1.48-.52c.06.1.14.23.24.37,2.39,3.29,4.06,9.81,1.59,11.63s-5.64-2.28-6.66-3.64c-.39-.51-.7-.91-1-1.22,0,0,0,.08,0,.12-.39,3.06-1.11,8.76-7.06,10.92-1.35.49-1.66.95-1.67,1,0,.4,1,1.45,1.93,2a1.5,1.5,0,0,1-.78,2.79h-6.57L224.52,570a1.5,1.5,0,0,1-2.31-.61c-.81-1.94-1.36-3.1-1.73-3.79l-.16.37c-1.07,2.5-3,7.17-8.56,7.67-5.86.53-10.8,5-12.65,9.18-.6,1.35-1.4,3.89,0,5.72.72,1,1.77,2.17,2.88,3.44,4,4.56,7.73,8.87,6.14,11.83-1.22,2.28-4.76,2.09-7.32,1.74-4.21-.56-5.39,0-5.63.11A7.82,7.82,0,0,0,197.52,608.71Z"/><path class="cls-7" d="M81.34,416.68l.35.29c.21-.49.4-1,.6-1.45Z"/><path class="cls-7" d="M315.46,90.81a1.5,1.5,0,0,0-2.12-.08l-.64.59,3.07.94A1.47,1.47,0,0,0,315.46,90.81Z"/><path class="cls-7" d="M492.09,192.55A1.5,1.5,0,0,0,490.5,190c.51.83,1,1.69,1.51,2.59Z"/><path class="cls-7" d="M114.57,631.54l.54,1.4.09-1.64Z"/><path class="cls-7" d="M586,850.16c-.13-.41-.28-.81-.42-1.21l-1,1.66Z"/><path class="cls-7" d="M604.52,818.36l.39-1.45-.81,1.34Z"/><path class="cls-7" d="M563.9,660.55l-1.44.43c.49.73.93,1.47,1.39,2.2A4.23,4.23,0,0,0,563.9,660.55Z"/><path class="cls-7" d="M145.39,775.83a10.27,10.27,0,0,0,2.27.25,8.9,8.9,0,0,0,1.13-.07,13.85,13.85,0,0,1-3.06-1.64Z"/><path class="cls-7" d="M138.71,202.31a1.48,1.48,0,0,0-.13,1.15,1.49,1.49,0,0,0,1.44,1.08V203Z"/><path class="cls-7" d="M623.93,518.66a1.41,1.41,0,0,0,.4-1.27c-.48.08-1,.17-1.46.24Z"/><path class="cls-7" d="M560.45,570.1a1.49,1.49,0,0,0,.73-1.14,1.75,1.75,0,0,0,0-.46l-1.46.34C560,569.3,560.23,569.71,560.45,570.1Z"/><path class="cls-7" d="M550.91,271.76a1.49,1.49,0,0,0-.59-2.76,4.35,4.35,0,0,0-1.08,0c.36.59.74,1.2,1.13,1.86Z"/><path class="cls-7" d="M77.43,365.52a1.47,1.47,0,0,0,.28,1.47,1.52,1.52,0,0,0,1.16.49c0-.92,0-1.49,0-1.49S78.29,365.83,77.43,365.52Z"/><path class="cls-7" d="M541.77,635.12l1.46-.33-.56-2.43C541.5,633.43,541.32,634.33,541.77,635.12Z"/><path class="cls-7" d="M567.69,667.24l-.09.13a11.2,11.2,0,0,0,1.29.74Z"/><polygon class="cls-7" points="228.47 891.4 228.47 891.4 228.47 891.4 228.47 891.4"/><path class="cls-7" d="M624.33,517.39a1.5,1.5,0,0,0-1.05-1.2c-.22-.07-5.28-1.68-4.9-10,.19-4.21-3.07-6-7.21-8.27-7.67-4.2-20.52-11.25-28.31-40.95-4.75-18.14-7.85-22.61-11-23.73-2.8-1-5.31.85-8,2.8-4.09,3-8.72,6.41-16.38,2.67-12.31-6-14.59-5.31-18-1.71-1.65,1.76-3.7,4-10,5.13-6.66,1.22-7-.11-7.45-1.95a6.6,6.6,0,0,0-1.61-3.21c3.55-15.63-7.26-24.53-15.2-31.06-4.25-3.5-7.93-6.53-7.68-9.17,1-10.59-1.86-18.68-7.32-20.62-2-.71-2.56-11.62-1.26-23.64a10.76,10.76,0,0,1,3.69-.08c1.71.34,3.34,2.08,5.07,3.91,2.47,2.61,5.52,5.85,10,5.85,2.54,0,5.56-1.05,9.19-3.83,2.31-1.78,3.34-3.55,3.13-5.41-.41-3.59-5.43-5.87-10.74-8.29-4.29-1.95-9.62-4.37-9.9-6.77-.16-1.35,1.41-2.88,2.75-3.92,3.11-2.42,4.79-5,5-7.78.35-4.38-3-8-5.47-10.68a17.06,17.06,0,0,1-2.25-2.73,11.78,11.78,0,0,1,4.2-.67c10.53-.52,11.91-3.41,12.82-7.75.51-2.44,1-4.75,5.13-7.07,4-2.22,8.62-3.08,13.11-3.91,7.51-1.39,15.28-2.82,17.75-11.16,3-10.19,7.32-10.2,7.48-10.19a1.57,1.57,0,0,0,.93-.22l-.54-.88c-.39-.66-.77-1.27-1.13-1.86-2.1.29-6.61,2.15-9.62,12.3-1.94,6.57-7.89,7.67-15.42,9.06-4.73.88-9.62,1.78-14,4.24-5.34,3-6.07,6.51-6.61,9.07-.62,3-1,4.93-10,5.38-3.62.18-6.18.68-6.93,2.52s.86,3.67,2.92,5.91,4.94,5.33,4.69,8.39c-.16,1.88-1.46,3.78-3.87,5.66-2.88,2.24-4.15,4.41-3.89,6.64.48,4.08,5.9,6.54,11.63,9.15,3.92,1.79,8.79,4,9,5.9.08.7-.63,1.65-2,2.69-7.88,6-11.27,2.45-15.19-1.7-2-2.1-4-4.26-6.66-4.79s-5.47.12-8.77.87c-5.73,1.3-12.86,2.92-21.94-1.21-3-1.35-5.24-2.27-7.07-3-6-2.44-6-2.44-8.39-10.16l-.58-1.87a40,40,0,0,1-1.89-11.86c-.11-3.51-.18-6.05-4.21-8-4.7-2.27-15.8-11.1-19.13-13.79a11.26,11.26,0,0,0-1-4.16c-.26-.74-.55-1.59-.86-2.55-1.51-4.81-.25-5.26,2.81-6.36a16.55,16.55,0,0,0,3.69-1.7c2.08-1.38,2.94-3.68,3.7-5.72,1-2.77,1.69-4.22,3.89-4.22,6.84,0,11.24-5,15-10.4,2.87-4.15.7-7.22-1.39-10.18-1.48-2.1-3.16-4.48-3.68-7.76-.58-3.67-.11-3.77,4.38-4.67a44.43,44.43,0,0,0,12.1-3.95c4.64-2.32,7.4-5.47,8.2-9.36,1.18-5.69-1.78-12.67-9-21.33a46.08,46.08,0,0,0-6.61-6.69,13,13,0,0,1-1.05-.91c-.9-1-1.45-2.55-3.58-9.6-1.14-3.76-.88-5.8-.25-6.46.3-.31.8-.37,1.51-.2,2.73.69,7.51,5.05,9.6,12.59,1.28,4.62,3.71,7.72,7.22,9.22,6.5,2.77,14.9-.81,19.32-3.2,5.58-3,15.72-9.54,16.75-10.21-.49-.9-1-1.76-1.51-2.59l-.05,0c-.1.07-11,7.09-16.61,10.13-3.18,1.71-11.18,5.44-16.72,3.08-2.63-1.12-4.49-3.56-5.51-7.26-2.29-8.29-7.65-13.67-11.76-14.7a4.37,4.37,0,0,0-4.41,1.05c-1.66,1.74-1.81,4.9-.45,9.39,1.91,6.33,2.63,8.61,3.67,10.07a12.3,12.3,0,0,1-6.85,6.68c-5.19,2.1-15.16,2.37-33.2-8.28-21.84-12.89-32.41-11.09-37.43-7.31-5.82,4.39-6.17,12.59-4.69,18.29,2,7.62,2.7,12.62.58,15.65-1.45,2.08-4.41,3.32-9,3.76-6.55.64-10.21,2.41-11.2,5.43-1.06,3.21,1.17,7.22,6.8,12.26a31.72,31.72,0,0,0,8.72,5.37c1.87.84,3.22,1.45,3.53,2.29s-.08,2.23-1.08,4.32a6.85,6.85,0,0,0-.79,3.31,9.75,9.75,0,0,0-6.88,10.85c.89,8.44-1.48,17.39-3.37,20.78-1,1.85-2,3.83-1.32,6s2.8,4,7.37,6.31a8.63,8.63,0,0,1,4.65,10.19,1.51,1.51,0,0,0,.7,1.75s2.43,1.4,2.69,3.58c.15,1.3-.48,2.72-1.87,4.24a11,11,0,0,0-4.37-.94c-1.8-6.94-8.88-7.58-15.32-7.11-1.17-2.58-2.74-4-4.68-4.19-3.16-.33-6,2.84-7.38,4.67-3.27-1.7-13-5.6-33.25-5.6-27.06,0-32.09-4.12-32.83-4.95a1.52,1.52,0,0,0-1.62-.51c-.8-2.24-1.28-5.14.87-6.47,3.07-1.89,3-5.27,3-8-.06-3.47.13-4.72,2.51-5.17,5.64-1.05,7.14-4.81,8.89-9.16a41,41,0,0,1,2.91-6.17c1.65-2.72,3.38-2.4,6.85-1.47,2.86.77,6.43,1.73,9.88-.74a18,18,0,0,0,4.94-5.33c1.57-2.37,2.93-4.41,8.95-6.92,4.36-1.82,7.32-5.78,10.45-10,5-6.7,9.72-13,20.2-11.23l.51-3c-12.28-2.1-18,5.6-23.11,12.39-2.88,3.85-5.6,7.49-9.2,9-6.87,2.86-8.61,5.49-10.3,8a15,15,0,0,1-4.19,4.55c-2.29,1.64-4.75,1-7.35.28-3.26-.87-7.31-2-10.2,2.82a43.74,43.74,0,0,0-3.13,6.61c-1.64,4.1-2.63,6.57-6.65,7.32-5.08,1-5,5.13-5,8.17.05,2.73,0,4.45-1.54,5.38-2.31,1.43-5,5.74-.82,13-.78,3.46.51,6.88,1.56,9.66,1.29,3.45,1.54,4.63.52,5.26a3.88,3.88,0,0,0-1.91,2.45c-.34,1.63.62,3.05,1.55,4.43,1.23,1.81,1.74,2.78,1.08,3.76a8.18,8.18,0,0,0-1.38,3.59,26.49,26.49,0,0,0-5.32-2.41c-8.07-2.69-10.58-4.36-11.33-5.05a8.71,8.71,0,0,1,1.8-.47c3.38-.6,4.13-2.6,4.28-3.74.57-4.38-5.71-10.37-10.12-12.4a15.78,15.78,0,0,0-5.48-1c-6.16-.43-13.83-1-16.72-19.6-3.34-21.52-14.79-26.71-19.39-27.93a33,33,0,0,0,.34-7.35c-.38-12.49,2.75-14.95,5.78-17.32,2.09-1.65,4.25-3.34,4.85-7.71.56-4.08,2.29-4.48,4.68-5s5.42-1.23,6-6.09c.22-1.94.74-2.74,1.16-2.83,1.17-.26,4.58,2.14,8.5,8.34,1.08,1.71,2.28,3.26,3.9,3s2.25-2.1,2.93-4.45c1.08-3.75,2.22-6.88,5.24-7.2a10.12,10.12,0,0,0,8.47-6.65c2.23-5.65.55-12.71-4.39-18.43-4.71-5.45-3.79-9-3-12.11.55-2.14,1.13-4.35-.51-6.46-1.8-2.32-.9-6.9-.25-10.25.21-1.05.4-2,.5-2.84h0c1.81,0,4-1.36,6.73-4.13,1.68-1.71,2.35-1.76,2.35-1.77a3.8,3.8,0,0,1,.59,1c.39.79,1,2,2.32,2h.07c1.4,0,2.45-1.33,3.77-3.62a6.84,6.84,0,0,1,1.22-1.67,11.27,11.27,0,0,1,.87,1.4c.75,1.36,1.69,3,3.44,3.11s2.95-1.56,3.74-2.77c4.13-6.39,9.95-4.38,10.18-4.29a1.5,1.5,0,0,0,1.89-.77c.13-.27,3.09-6.63,4.47-10.28a9.23,9.23,0,0,1,1.42.26c2.69.64,7.68,1.82,11-6.46,2.51-6.26,15.77-3.66,23.21-1.14a1.5,1.5,0,1,0,1-2.83c-.19-.07-.72-.27-1.67-.65-8.05-3.17-9.56-13.77-9.57-13.87a1.55,1.55,0,0,0-.28-.69l-5.23-7.1,7.45-4.47a1.52,1.52,0,0,0,.73-1.29v-6l7.37-6.8a1.43,1.43,0,0,0,.39-.67l-3.07-.94L305.49,98a1.48,1.48,0,0,0-.48,1.1v5.8l-8.14,4.88a1.51,1.51,0,0,0-.44,2.18l6,8.13a24.78,24.78,0,0,0,5.21,11.44c-6.92-1.19-15.49-1.21-18,5.14-2.36,5.89-5,5.27-7.52,4.67-1.48-.36-4-.95-4.91,1.57s-2.92,6.9-3.86,9c-3.23-.63-8.62,0-12.4,5.84a5.58,5.58,0,0,1-1.09,1.33,9,9,0,0,1-.95-1.5c-.75-1.35-1.68-3-3.43-3.05s-3,1.75-3.88,3.28c-.42.72-.74,1.21-1,1.54a3.78,3.78,0,0,0-2.66-2.37c-1.45-.23-3,.57-5,2.62-2.64,2.68-4.35,3.51-4.87,3.12a1.6,1.6,0,0,0-1.76-.22c-.89.45-.89,1.25-.89,2.27a22.54,22.54,0,0,1-.51,3.33c-.77,3.91-1.82,9.27.82,12.67.7.89.49,1.88,0,3.86-.89,3.46-2.11,8.18,3.62,14.82,4.14,4.8,5.66,10.83,3.87,15.37a7.23,7.23,0,0,1-6,4.77c-5.27.55-6.79,5.85-7.8,9.35-.17.59-.38,1.32-.58,1.85a14.58,14.58,0,0,1-.83-1.2c-2.05-3.24-7.29-10.69-11.71-9.67-1.95.45-3.12,2.28-3.47,5.43-.3,2.74-1.42,3-3.65,3.5-2.59.59-6.15,1.4-7,7.55-.43,3.16-1.82,4.24-3.73,5.75-3.28,2.57-7.35,5.76-6.93,19.77a31.45,31.45,0,0,1-.26,6.66c-1.65-1.93-4.67-8.22-5.76-10.46-1.17-2.43-2.07-4.52-2.79-6.19-1.79-4.12-2.69-6.19-4.64-6.49s-3.54,1.44-5.69,3.92C170,252,167.44,252,166,250.83c-1.71-1.35-2.15-4.52.73-8.56,5.66-7.92,4.78-16.77-2.47-24.93-1.57-1.77-1.5-5-1.44-7.33s.09-4.16-1.48-4.81-3.05.34-6.67,4.12a9.24,9.24,0,0,1-2.7,2.25,13.36,13.36,0,0,1-.73-2.36c-.59-2.41-1.4-5.71-4.18-7.31-1.92-1.11-4.36-1.2-7.46-.3a1.52,1.52,0,0,0-.89.71L140,203v1.5a1.52,1.52,0,0,0,.42-.06c2.24-.65,4-.65,5.12,0,1.67,1,2.26,3.33,2.77,5.42s1,4.12,2.82,4.6c1.53.41,3.18-.49,5.69-3.12a30,30,0,0,1,3-2.85c0,.45,0,1,0,1.39-.07,2.85-.16,6.74,2.2,9.4,4.4,4.95,8.37,12.65,2.27,21.18-4,5.65-3,10.43-.14,12.67,2.59,2,7,2,10.48-1.94a13.75,13.75,0,0,1,3-2.89c.53.47,1.46,2.61,2.35,4.68.74,1.7,1.66,3.82,2.85,6.3,4.66,9.67,6.66,12.66,8.73,12.66a2.25,2.25,0,0,0,.58-.08,2.67,2.67,0,0,0,.4-.13c2.65.47,14.7,3.81,18.09,25.7,3.26,21,13,21.68,19.48,22.13a14.1,14.1,0,0,1,4.43.73c4.07,1.88,8.7,7,8.4,9.3,0,.21-.11.86-1.82,1.16-1.2.22-4.39.78-4.56,3.09-.14,1.87,1.42,4.16,13.66,8.24a20.52,20.52,0,0,1,7.74,4.36l.11.12.05,0a12,12,0,0,1,2.77,3.89c-3.57,2.36-10.92,7.45-10.34,10.39.63,3.18,3.48,7.72,8.71,7.47-.1.51-.31,1.23-.47,1.77-.68,2.35-1.62,5.57.22,7.79,1.37,1.67,3.92,2.3,7.78,1.94,1-.09,1.74-.13,2.38-.13,2.34,0,2.78.45,2.78.43.1.78-2,3.2-4.42,5a1.53,1.53,0,0,0-.6,1.18,1.49,1.49,0,0,0,.56,1.19c1.79,1.45,4.25,4.29,3.83,5.81-.27,1-2,1.79-4.87,2.18a1.51,1.51,0,0,0-1,2.41c1.28,1.65,2.86,4.6,2.35,6-.06.17-.25.68-1.48.94s-2.6.72-2.91,1.93.65,2.09,1.3,2.66c.16.14.41.35.57.52a11.22,11.22,0,0,1-3.54,1.58c-8.6,2.75-10.26,2.18-13.89.94-.85-.29-1.81-.62-3-.95-6.48-1.86-13.29,7.6-15.06,10.27l-47.59,8.42A39.93,39.93,0,0,0,177,409.57c-1-1.79-1.82-3.35-2.51-4.72-3.59-7.24-5.3-9.24-22.12-9.32-11.55-32.09-19.83-52.14-35.89-59.72a1.49,1.49,0,0,0-1.39.06c-13.72,8-36.32,28.15-37.27,29a1.48,1.48,0,0,0-.4.65c.86.31,1.4.47,1.4.47s0,.57,0,1.49a1.52,1.52,0,0,0,1-.37c.23-.21,22.55-20.14,36.09-28.24,14.72,7.44,22.7,27.23,34,58.66a1.5,1.5,0,0,0,1.41,1c16.69,0,17.35,1.31,20.5,7.65.7,1.42,1.5,3,2.59,4.9a37.21,37.21,0,0,1,4.69,20.8,1.46,1.46,0,0,0,.46,1.26,1.26,1.26,0,0,0,.36.24v0c.14.07,14.86,7.53,24.73,21.1,4.71,6.49,11,12.61,15.61,17.08,1,1,2.09,2,3,3-6.25-1.89-8.54,1.73-10.41,4.68-1.27,2-2.46,3.88-4.78,4.61-6.21,1.94-14.74,8.77-17.43,11-30-18.14-34.61-23.7-37.4-27-2.48-3-4-4.47-14.61-9.19-13.2-5.9-13.46-9.86-13.69-13.36-.23-3.72-.93-6.55-7.66-9.13-14.23-5.46-33.84-21.6-34-21.76l-1,1.15c-.2.48-.39,1-.6,1.45,2.83,2.31,20.72,16.67,34.51,22,5.47,2.09,5.58,3.86,5.75,6.52.33,5.07,1.72,9.77,15.46,15.91,10.4,4.64,11.44,5.89,13.53,8.37,2.94,3.51,7.85,9.39,39.06,28.23a.73.73,0,0,1,.25.5c2,9.75-36.27,63.8-48.84,81.56l-2.62,3.69c-11.63,16.5-22.25,18.89-22.35,18.91v0a1.45,1.45,0,0,1,.3,0,1.27,1.27,0,0,1,1.21.77,3.25,3.25,0,0,1,.23.29,1.48,1.48,0,0,1,.14,1.09,1.11,1.11,0,0,1-.25.48s0,0,0,0c3.06-1,12.76-5,23.22-19.85l2.61-3.69c19.3-27.24,31.28-45.52,38.61-57.93,2.12,2.45,6,4.94,9.64,6.64,2.52,1.19,7.86,3.35,13.11,3.35a14.33,14.33,0,0,0,5.67-1.06c8.86-3.79,8.81-10,8.78-13.72,0-.78,0-2.39.23-2.56s2-.42,9.75,3c4.32,1.9,7,2.19,8.54.94,1.82-1.43,1.35-4.06.93-6.38a11.39,11.39,0,0,1-.29-2.76c.43,0,2.22.18,7.94,3.68,9.2,5.63,9.95,6.09,11.15,4.81s.31-2.27-2.28-5.91c-3.84-5.39-11.83-16.61-16.86-32.13-7.35-22.69-5.12-25.2-4.85-25.42,0,0,.46-.31,2.6,1.08,5.45,3.57,15.71-8.29,16.15-8.8,2.11-2.46.74-4.52-.26-6a7.12,7.12,0,0,1-1.6-4.89,4.14,4.14,0,0,0-.9-3.29c-1.09-1.17-2.7-1.17-4-1.17a4.74,4.74,0,0,1-1.7-.17,1.51,1.51,0,0,1-.06-.83,3.58,3.58,0,0,0-1-3.13c-1.18-1-2.78-.71-4.06-.45l-.41.09c0-.05,0-.1,0-.15a5.77,5.77,0,0,0-.36-4.83,8.14,8.14,0,0,0-3.91-3.18c2.67-3.25,6.57-6.95,9.53-6.1,1.09.31,2,.63,2.82.91,4.33,1.48,6.62,2,15.79-.92,3.66-1.18,5.36-2.34,5.69-3.9a2.55,2.55,0,0,0-.35-1.87l6.69,3.19,1.72,5.82-3.8,2.5a1.5,1.5,0,0,0-.16,2.38l5.1,4.43v4.85l-1.7,5.24a1.51,1.51,0,0,0,.21,1.35,1.49,1.49,0,0,0,1.21.62h5.88c1.19.58,3.28,1.93,3.66,3.18a1.13,1.13,0,0,1-.17,1,4.54,4.54,0,0,0-.66,2.12c-10.34-1.88-13.13-1.09-14.14.8-1.3,2.45,1.54,5.28,5.14,8.88,1.94,1.94,3.95,4,4.73,5.43,1.37,2.61.78,4.73.21,6.78s-1.4,5,2.2,6.54c1.83.78,3.54,1.47,5.11,2.1,4.16,1.68,8.87,3.58,9.13,4.7,0,.08-.06.34-.47.79a15.17,15.17,0,0,1-2.38,2c-1.24.92-2.41,1.79-2.43,3.31s1.39,3,3.67,4.82a8.09,8.09,0,0,1,2.6,7.56c-.26,1.43-.85,2.23-1.29,2.36s-1-.19-1.63-.83c-2.34-2.84-5.33-5.91-7.95-4.64-1.6.77-3.86,4.09-.92,17.63a1.49,1.49,0,0,0,2.65.6c1.08-1.39,2.63-2.74,3.27-2.86a3.48,3.48,0,0,1,.34,1.42c.73,7.61,7.83,9.55,8.13,9.62a1.2,1.2,0,0,0,.38.05h57.08a1.5,1.5,0,0,0,1.13-.51c7.95-9.05,15.41-11.44,21.4-13.35,4.2-1.35,7.91-2.54,9.76-5.95,4.78,4.56,12.14,11.5,17.87,16.52-2.34,2.19-7,7.1-7.41,11.87a6.92,6.92,0,0,0,1.67,5.31l1.39,1.6c2.34,2.69,4,4.63,3.91,6-.07.85-.84,1.86-2.35,3.1s-2.08,2.68-1.9,3.78c-4.29,1.85-4.77,5.87-5.22,9.77a23,23,0,0,1-1.8,7.57c-1.92,4,.35,9.59,2.75,15.54s4.83,11.94,2,14.36a1.17,1.17,0,0,0-.21.23c-9,11.9-10.23,18-10.89,21.32-.38,1.89-.5,2.26-1.19,2.68a31.91,31.91,0,0,0-14,18H361.79a1.5,1.5,0,0,0-1.5,1.46,1.18,1.18,0,0,1-.49.91c-3.07,2.8-16,3-23.48,2.51a1.32,1.32,0,0,0-.62.09c-13.1,4.81-17.49,3.42-18.77,2.6a1.46,1.46,0,0,1-.24-.17,2.11,2.11,0,0,0,.3-.3c1.9-2.3-.55-8-7-21.3a149.28,149.28,0,0,1-6.47-14.49,71.84,71.84,0,0,0-5.19-11.25c-2.7-5-4.83-9-3.69-12.15,3.37-9.44,2.94-13.41,2.49-17.6-.07-.61-.14-1.23-.19-1.88-.46-5.3-2.2-29.85-1.78-34.08.28-2.8-.33-8.27-3.08-8.85-2.41-.52-3.47,2.72-3.82,3.79-.91,2.72-1.24,7.86-1.56,12.83-.15,2.32-.33,5.19-.59,7.21-1.25-3.37-1.71-4.51-3.06-4.57a2,2,0,0,0-1.89,1.49c-.32.67-.57,1.11-1.07,1.23s-2.21.09-6.15-2.94c-3.08-2.38-5.65-3.14-7.83-2.33-2.47.9-3.63,3.58-4.29,6-2.58-7.18-7.47-10.34-10.3-10.69a3,3,0,0,0-3.18,1.24c-.36.61-.75,1.93.67,3.88a12.5,12.5,0,0,1,2.23,7.1,12.48,12.48,0,0,1-2.48-2.68c-1.93-2.57-3.09-3.72-4.5-3.35s-1.63,1.91-1.85,3.67c-.37,2.93-.88,6.94-5.12,8.48-2.25.82-3.47,2-3.62,3.57a3.56,3.56,0,0,0,.49,2.11h-3.45a1.45,1.45,0,0,0-.92.32l-5.56,4.34c-1.5-3.4-2.43-4.65-3.85-4.66h0c-1.51,0-2.13,1.46-2.79,3-1,2.33-2.35,5.52-6.07,5.86-7,.64-12.92,6-15.12,11-1.5,3.36-1.39,6.46.31,8.73.79,1,1.87,2.29,3,3.61,1.73,2,6.32,7.25,5.76,8.44,0,0-.65.67-4.28.19-5.2-.69-7.91-.12-8.79,1.84s.77,4.16,2.08,5.52l-7,8.08c-4.6-.42-27.43-2.36-35.72.13s-32.31,11.52-36.58,13.13l-.09,1.64.53,1.4c.28-.1,28.28-10.68,37-13.3,6.81-2,25.28-.78,32.44-.2-1.31,1.66-2.4,3.62-1.85,6,.78,3.37,4.83,6.45,12.75,9.7a40.21,40.21,0,0,0,8.53,2.59,30.52,30.52,0,0,0-4,7c-1.72,4-1.89,6.3-.55,7.57,1.82,1.73,4.92.21,8.52-1.54a28.92,28.92,0,0,1,4-1.72l-.06.25c-1.18,4.49-1.55,4.63-3.08,5.21a19,19,0,0,0-5.72,3.31c-4.05,3.24-4.14,5.08-2.81,7.74a5.55,5.55,0,0,1,.53,4.57c-1.46,5.47-13.4,13.8-20.53,18.77L178.39,692c-5.12,3.62-2.75,7.23-1.18,9.63s2.47,4,.84,6.23a3.92,3.92,0,0,0-.92,3.65c.63,1.84,2.8,2.47,5.09,3.13,2.05.59,4.38,1.26,4.92,2.62.38,1,0,2.51-1.19,4.47a1.34,1.34,0,0,0-.2.58c-.51,4.07.58,8.42,1.55,12.27.76,3,1.47,5.89,1.13,7.67-.15.75-.19,1-3.91.52a32.43,32.43,0,0,0-12.72.44c-2.93.73-4.61,1.78-5.3,3.3-.84,1.87.13,3.73.91,5.23,1.24,2.38,1.07,2.58.05,3.13-4,2.14-3.54,4.48-3.16,6.54a8,8,0,0,1-1,6.36c-1.17,2-2,2.53-2.32,2.49-.54-.07-1.66-1.44-2.47-4.28-.65-2.26-3.47-4.48-5.56-5a2.9,2.9,0,0,0-3,.78c-.92,1.05-1,2.72-.08,5.09,1,2.6,1.05,4.51.28,5.39-.95,1.07-3.36.82-4.12.64l-.34,1.46h0a13.85,13.85,0,0,0,3.06,1.64,5.67,5.67,0,0,0,3.64-1.75c1.59-1.79,1.69-4.62.3-8.41a5.84,5.84,0,0,1-.45-1.93,5.68,5.68,0,0,1,3.36,2.86c.65,2.26,2.16,6.09,5,6.44s4.68-2.92,5.29-4a10.91,10.91,0,0,0,1.32-8.39c-.33-1.81-.42-2.25,1.63-3.35,3.84-2.06,2.12-5.37,1.19-7.15-.5-1-1.08-2.07-.83-2.61.12-.28.69-1,3.29-1.63a29.69,29.69,0,0,1,11.62-.37c2.19.27,4.43.55,5.86-.51,4.19,5.7,17.07,22.94,22.92,27.53.55.8.43,1.69.17,3s-.55,2.76.54,4,3.53,1.62,8.35,1.12c2.24-.25,3.18-2.43,3.94-4.18.91-2.12,1.29-2.6,1.94-2.49,1.14.21,2.38,2.17,3.7,4.25,1.72,2.71,3.87,6.09,7.36,8.48,2.17,1.49,3.79,2.3,5.17,1.75s1.63-1.92,1.93-3.28a10.68,10.68,0,0,1,1.62-4.15,3,3,0,0,1,3.68-1.16c2.3.84,4.43,4,4,9.15-.48,6.08,2.76,7.79,5.12,9,2.16,1.14,3.46,1.83,3.08,5.21a9.39,9.39,0,0,0,2.16,7.78c1.18,1.54,1.83,2.38-1.82,7.47a1.62,1.62,0,0,0-.19.37l-.28.84a3.45,3.45,0,0,1-.47,1.15c-.56.25-2.56,0-8.94-2.86-1.88-.83-4-1.49-5.16-.18-1.59,1.75,0,4.67,3.63,11.05,3.48,6.21,8.25,14.71,9.76,22.71,2.95,15.63-.51,19.88-6.23,26.92-.47.58-1,1.17-1.45,1.79-3.73,4.67-2.34,10-1.41,13.5.3,1.15.76,2.9.58,3.27,0,0-.44.31-2.41,0-3.77-.63-6.43-2.52-9-4.35-3.83-2.72-7.79-5.53-14.41-2.88l.55,1.39h0l.56,1.4c5.11-2,7.82-.12,11.56,2.54,2.72,1.93,5.8,4.12,10.25,4.86a12.16,12.16,0,0,0,2,.2,4,4,0,0,0,3.06-1.1c1.33-1.46.77-3.59.12-6.07-.87-3.29-1.94-7.38.85-10.87.49-.61,1-1.19,1.43-1.77a57.19,57.19,0,0,0,4.39-5.85,47.1,47.1,0,0,1,25.08,2.11,26.61,26.61,0,0,0,9.23,1.83,16,16,0,0,0,9.51-2.91c5.92-4.24,8.88-12.87,8.54-25-.27-9.48,1.82-13.48,3.21-16.14,2.37-4.54,2.21-6.29-5.66-13.78a4.84,4.84,0,0,0,1.94-3.21c.19-2.35-1.87-4.15-4.49-6.42-3.73-3.23-8.82-7.65-9.62-15.52V787l9.42-7.71A118.53,118.53,0,0,0,331.17,794c1.93,1.06,3.08,1.67,3.75,2,1.17,1.89,6.75,6.45,28.95,22.17,3,2.14,4.72,3,6,3a2.28,2.28,0,0,0,.84-.15,2.69,2.69,0,0,0,1.56-2.16,4.62,4.62,0,0,0,.1-.5,1.85,1.85,0,0,1,.85,0,25.79,25.79,0,0,0,10.27-.61,48.85,48.85,0,0,0,1.33,10.41c.32,1.63.63,3.18.83,4.57.28,2-.44,4.27-1.08,6.31-.83,2.66-1.61,5.17,0,6.8a4.4,4.4,0,0,0,3.35,1.13,24.1,24.1,0,0,0,6-1c12.47-3.4,37.69-3.11,44-3v1.19a1.5,1.5,0,0,0,.63,1.22,20.17,20.17,0,0,1,6.76,22.6,1.5,1.5,0,0,0,.19,1.3,80.35,80.35,0,0,1,8.8,16.61,1.5,1.5,0,0,0,.86.9,1.55,1.55,0,0,0,.56.11,1.65,1.65,0,0,0,.68-.16c.48-.25,48.92-24.87,69.09-41.08,12.28-9.86,29.06-13.9,41.78-10.06,8,2.42,13.56,7.77,16,15.45l1.43-.46,1-1.66c-2.94-8-9-13.61-17.57-16.2-13.63-4.12-31.51.14-44.53,10.6-17.95,14.42-58.81,35.71-67.09,40a87.8,87.8,0,0,0-8.14-15.11c4-13.9-4.94-22.63-7.46-24.75v-46l5.06-7.26a1.53,1.53,0,0,0,.26-.86V754.45l13.41-10.76a1.5,1.5,0,0,0,.55-1.37L459,733.85c5.51-.29,24.15-1,37.91,1.73a83.51,83.51,0,0,0,13,1.52c2.81.15,4.83.26,5.44,1s.48,2.8.33,4.3c-1,9.69,10.13,23.69,11.79,25.72.71,2.83,4.1,6.62,10.91,12.29a91.67,91.67,0,0,1,13.18,13.36c7.41,8.92,11.16,13.42,52.59,24.51l.81-1.34.39-1.45c-40.92-10.93-44.45-15.18-51.48-23.64a94.93,94.93,0,0,0-13.57-13.75c-9.86-8.21-10.12-10.68-10-11.24.28-1,3.75-1.52,6.28-1.9,3.52-.52,7.51-1.12,9.91-3.19,1.28-1.11,2.32-1.62,3.12-1.51,1.27.18,2.5,2.08,3.79,4.09a25.47,25.47,0,0,0,3.78,4.91,3.11,3.11,0,0,0,3.51.68c5.52-2.43,9.79-22.85,9.72-28.83-.07-5.27-7.35-8.15-13.77-10.69-2.77-1.09-7.4-2.92-7.65-3.93,0-12.64,1.53-13.62,2.76-14.41,1.9-1.22,3.27-2.61,3.68-9.44.85-14.46,14.55-33.41,14.69-33.6l-1.22-.9a11.2,11.2,0,0,1-1.29-.74c-1.33,1.84-14.3,20.19-15.18,35.06-.34,5.84-1.29,6.45-2.3,7.09-2.31,1.49-3.88,3.35-4.11,14.1l-16.39-11.36a1.45,1.45,0,0,0-.49-.22c-4.68-1.18-9.38-6.36-11.27-8.65,3.3-2.82,13-11.14,16.61-14.77,3.81-3.81-.92-9.07-4-12.54a30.38,30.38,0,0,1-2.31-2.76c1.46-.55,5.71-.77,8.36-.91a67.08,67.08,0,0,0,7.52-.67c3.13-.59,4.8-3.59,6.27-6.24.87-1.54,1.84-3.29,2.67-3.51.09,0,.36-.1,1,.27,4.58,2.78,7.37,3.44,9,2.15a2.87,2.87,0,0,0,.89-1.23c-.46-.73-.9-1.47-1.39-2.2l-1.44.42a1.75,1.75,0,0,1,.05.63c-.32,0-1.73,0-5.6-2.33a4.19,4.19,0,0,0-3.3-.61c-2.06.55-3.25,2.69-4.52,4.95s-2.46,4.42-4.21,4.75a62.58,62.58,0,0,1-7.12.62c-7.22.38-11,.71-11.38,3.3-.21,1.52,1.17,3,3.26,5.37,3.13,3.49,5.81,6.76,4.15,8.42-4.23,4.23-17.4,15.43-17.53,15.54a1.5,1.5,0,0,0-.24,2c.27.37,6.58,8.88,13.55,10.81l18,12.46c.73,2.41,4.45,3.88,9.4,5.84,5.28,2.09,11.84,4.68,11.88,7.93.1,8.09-5.36,25.88-8,26.08a.66.66,0,0,1-.19-.14,23.51,23.51,0,0,1-3.31-4.35c-1.67-2.6-3.26-5.06-5.89-5.44-1.72-.24-3.51.48-5.51,2.21-1.73,1.5-5.27,2-8.38,2.5s-6.2.92-7.76,2.45c-3.27-4.31-10.48-14.73-9.76-21.75.29-2.86.23-5.08-1-6.55-1.44-1.69-3.75-1.81-7.56-2a81.26,81.26,0,0,1-12.56-1.47c-16.64-3.33-39.35-1.76-40.31-1.69a1.5,1.5,0,0,0-1,.55,1.54,1.54,0,0,0-.33,1.15l.21,1.57c-9.88-3.15-14.72-3.19-17.74-.17-2,2-10,4.75-13.06,3.64-.51-.19-.62-.41-.92-1.17-1.18-3-3.31-4.17-11.7-2.21-3.17.75-4.45.72-4.93.64a26,26,0,0,1,3.05-4.83c1.14-1.59,2.43-3.39,3.52-5.22,3.05-5.15,2.43-9.09,1.12-11.41,2.22-.91,4.51-1.91,6.88-2.94,7.92-3.46,16.9-7.37,26.2-9.24a3.36,3.36,0,0,0,2.19-1.57c1-1.65.35-3.79-.35-6.27-1.19-4.26-1.68-6.94,1.57-8.17,11.12-4.23,11.35-11.65,11.51-16.56.11-3.43.29-4.79,1.81-5.4,6.89-2.75,12.74-7.19,13.95-8.8s-.39-3.18-3.86-6.64c-3.29-3.27-7.79-7.76-9.23-11.74-1.34-3.68-4.86-6.4-8-8.8-3.88-3-6.18-5-5.34-7.23a23.63,23.63,0,0,1,3.15-5.37c2.27-3.21,4.62-6.53,3.94-11.78,5.56-4.07,8.64-4.24,10.27-3.63a4.78,4.78,0,0,1,2.6,3.24,1.5,1.5,0,0,0,2.56.75,3.32,3.32,0,0,1,2.14-1.1c.15,0,.6,0,1.16.9,2.31,3.51,7.51,3,9.67,2.61l12.27,14.81a1.51,1.51,0,0,0,1.69.45,5.87,5.87,0,0,1,3.92,0,4.35,4.35,0,0,1,2.2,2.62,1.49,1.49,0,0,0,1.82.91l1.48-.43c.4-.12.78-.24,1.12-.33a27.73,27.73,0,0,0-.16,2.87c0,6.25,8.13,9.67,8.47,9.81a1.46,1.46,0,0,0,.57.12,1.51,1.51,0,0,0,1.38-.91l6.7-15.5h7.14l3.54,15.24,1.46-.34c-.45-.79-.27-1.69.9-2.76l-3.25-14a1.51,1.51,0,0,0-1.46-1.16h-9.31a1.52,1.52,0,0,0-1.38.9l-6.47,15c-2.17-1.2-5.29-3.54-5.29-6.39a25.33,25.33,0,0,1,.16-2.72c.12-1.19.22-2.22-.64-2.94s-1.93-.47-4.33.24l-.23.07a6.82,6.82,0,0,0-3.18-3,8.35,8.35,0,0,0-5.15-.42L489.9,603.13a1.51,1.51,0,0,0-1.54-.49c-1.57.41-5.94,1-7.36-1.15a4.51,4.51,0,0,0-3.41-2.24,5,5,0,0,0-2.79.67,7,7,0,0,0-3.66-3.37c-3.07-1.17-7-.13-11.84,3.09-1.38-8.49-5.43-19.51-11.09-30.11-3.07-5.73-11-19.42-18.78-22.87-3.21-1.43-5.44-.6-6.75.35-5,3.61-10.48,4.56-13.5,3.9a3.55,3.55,0,0,1-1.37-.54s.06-.35.84-1c2.24-1.83,3.3-3.42,3.44-5.17.23-2.66-1.71-4.88-4.64-8.24l-1.37-1.58a4,4,0,0,1-1-3.09c.31-3.61,4.34-8,6.7-10.17,2.83,2.41,5,4.06,5.84,4.27,4.5,1.13,21.61-15,22.34-15.66,3.09-2.92,8.45-2.28,11.93-.2,1.74,1,2.31,2.06,2.22,2.37-.59,2.15-1.19,4.37-.09,6.08A5.52,5.52,0,0,0,458,520.1c1.37.23,3.51,2,5.4,3.58,3,2.52,6.17,5.13,9.07,4.38s6.72,0,10.17.58c.91.16,1.8.32,2.65.45a24.05,24.05,0,0,0,3.57.37c2.67,0,4.88-1,5.82-5.54.66-3.1,2.36-6.79,6.8-6.79,2.13,0,3.61-.64,4.4-1.91.95-1.52.73-3.66-.68-6.56a10.06,10.06,0,0,1-.48-5,28.25,28.25,0,0,0,2,2.14c4.72,4.53,5,6.76,5.27,9.34.35,3,.75,6.48,7.6,12.85,5.2,4.82,4.83,7.85,4.45,11.06-.59,4.94-.28,8.86,9.11,14.4,6.1,3.6,5.15,5.6,4.15,7.72-.56,1.18-1.26,2.66-.4,4.15,1.24,2.16,5.08,3.52,22.61,5h.12a1.46,1.46,0,0,0,.77-.24c-.22-.39-.47-.8-.77-1.26l1.46-.34a1.51,1.51,0,0,0-1.33-1.16c-16-1.32-19.86-2.62-20.26-3.47a4.54,4.54,0,0,1,.51-1.37c1.51-3.19,2.47-7-5.33-11.58-8.44-5-8.1-7.84-7.66-11.46.41-3.46.93-7.76-5.38-13.62-6.05-5.62-6.35-8.23-6.67-11s-.67-5.89-6.17-11.16c-4.85-4.65-5.22-7.58-5.68-11.3-.51-4.06-1.14-9.1-7.48-17.27-5.7-7.35-9.16-7.43-11.69-7.49-2.25-.05-3.87-.08-8-13-2.38-7.41-3-11.77-1.78-13.33,1.05-1.37,4.27-1.22,8.33-1a61,61,0,0,0,16.73-1c9-2,9.41-.33,9.89,1.6,1,3.84,3,5.64,10.9,4.18,7.29-1.35,9.83-4.06,11.67-6,2.08-2.22,3-3.23,14.45,2.36,9.28,4.55,15.17.22,19.47-2.94,2.41-1.77,4-2.84,5.19-2.4,3.8,1.35,7.81,16.64,9.13,21.67,8.11,31,21.67,38.39,29.77,42.83,4,2.18,5.75,3.24,5.65,5.49-.49,10.83,6.78,13,7.09,13a1.43,1.43,0,0,0,1.46-.41l-1.06-1C623.36,517.56,623.85,517.47,624.33,517.39ZM235.8,425.22a2.79,2.79,0,0,1,.12,2.37c-.33,1-.67,2.42.22,3.43s2.42.76,3.6.52a8.56,8.56,0,0,1,1.42-.21,2.63,2.63,0,0,1,0,.6A3.88,3.88,0,0,0,242,435c1,1.14,2.62,1.14,3.89,1.14.56,0,1.6,0,1.79.21s.17.36.12,1a10,10,0,0,0,2.09,6.78c1.08,1.61,1.05,1.74.48,2.41-4.13,4.81-10.36,9.46-12.23,8.24-1.08-.7-3.94-2.57-6.06-.95s-3.43,6.38,3.81,28.73c5,15.56,12.94,26.85,17,32.52l-4.57-2.78c-6.27-3.84-9.43-4.85-11.25-3.6s-1.32,3.52-.91,5.77c.17,1,.57,3.17.16,3.5,0,0-.93.66-5.47-1.33-7.42-3.26-10.72-4-12.61-2.73-1.62,1.06-1.6,3-1.58,5.08,0,3.54.06,7.94-7,10.94-3.77,1.62-9.88.78-16.33-2.24-4.77-2.24-8.3-5.07-9.28-6.73,8.55-14.88,9.67-20.36,9.1-23.16a4.6,4.6,0,0,0-.32-1c2.86-2.36,10.67-8.5,16.1-10.2,3.37-1.05,5-3.61,6.42-5.87,2-3.1,3.14-5,8.1-3,1.71.67,3.83,1.5,4.78,0s-.43-3.05-5.92-8.38c-4.52-4.39-10.71-10.41-15.28-16.69C199.77,442.69,190.15,436,185,432.8l46-8.14a1.51,1.51,0,0,0,1-.67c.17-.28.4-.62.65-1A6,6,0,0,1,235.8,425.22Zm-35,180.35c2.56.35,6.1.54,7.32-1.74,1.59-3-2.16-7.27-6.14-11.83-1.11-1.27-2.16-2.48-2.88-3.44-1.37-1.83-.57-4.37,0-5.72,1.85-4.16,6.79-8.65,12.65-9.18,5.51-.5,7.49-5.17,8.56-7.67l.16-.37c.37.69.92,1.85,1.73,3.79a1.5,1.5,0,0,0,2.31.61l6.69-5.22h6.57a1.5,1.5,0,0,0,.78-2.79c-1-.58-2-1.63-1.93-2,0-.09.32-.55,1.67-1,5.95-2.16,6.67-7.86,7.06-10.92,0,0,0-.08,0-.12.26.31.57.71,1,1.22,1,1.36,4.13,5.51,6.66,3.64s.8-8.34-1.59-11.63c-.1-.14-.18-.27-.24-.37a4.75,4.75,0,0,1,1.48.52c1.1.57,4.84,2.93,6.75,9.52.63,2.16,1.16,3.89,2.67,3.81s1.74-1.44,2.11-3.2c.44-2,1.17-5.46,2.94-6.11,1.11-.4,2.83.25,5,1.89,3.76,2.9,6.52,4,8.67,3.49a3.9,3.9,0,0,0,2.06-1.23c.23.58.44,1.15.56,1.46.54,1.46,1.45,3.9,3.33,3.63,2.12-.31,2.4-3.12,3-11.95.3-4.55.63-9.72,1.41-12.07a10.7,10.7,0,0,1,.48-1.22,12.23,12.23,0,0,1,.6,5c-.47,4.72,1.42,30.65,1.77,34.64.06.67.13,1.31.2,1.94.43,4,.8,7.48-2.33,16.27-1.59,4.44.94,9.14,3.87,14.59a68.5,68.5,0,0,1,5,10.77,147.24,147.24,0,0,0,6.63,14.85c3,6.09,7.32,15.1,7.37,17.75-7.35-2-11.08-4.1-11.08-10A10,10,0,0,0,299,626.4a10.78,10.78,0,0,0-5.77-1.72,8.13,8.13,0,0,0-3.3.65c-.45.2-2.09-1.25-3-2-2.12-1.87-4.75-4.2-7.93-3.57-2.44.48-4.63,2.64-6.68,6.59-5.4,1.6-5.85,4.29-5.84,7.13a12.34,12.34,0,0,1,0,1.25c-1,.41-4.71-.29-6.32-.6a22.84,22.84,0,0,0-3.21-.47c-2.85-.61-36.33-14.7-59-24.42a1.55,1.55,0,0,0-.38-.5,7.82,7.82,0,0,1-2.37-3C195.39,605.53,196.57,605,200.78,605.57Zm94.85,270a25.49,25.49,0,0,1-6.78-1.58,50.18,50.18,0,0,0-24.35-2.67c1.93-4.57,2.53-10.43.7-20.15-1.6-8.48-6.51-17.23-10.09-23.62a60.15,60.15,0,0,1-3.69-7.18,10.13,10.13,0,0,1,1.39.53c5.05,2.22,7.92,3.18,9.81,3.16,2.4,5.64,13.71,30.34,30.61,38.28a1.15,1.15,0,0,0,.17.06c1,.34,2,1.56,2.63,3.29A13.31,13.31,0,0,1,295.63,875.62Zm9.18-2.29a12.68,12.68,0,0,1-5.92,2.23,16.25,16.25,0,0,0-.05-10.88c-1-2.59-2.54-4.38-4.4-5-15.77-7.47-26.85-31.6-29.08-36.77a6.07,6.07,0,0,0,.93-2.06q.09-.25.18-.54a22.37,22.37,0,0,0,2.74-4.81c1.83,1.4,3.65,3.23,3.8,4.53a1.06,1.06,0,0,1-.37,1c-2.09,2.09-1.76,4-1.38,5,1.05,2.68,5,4.52,10.15,4.69,2.46.08,3.68,1.49,5.64,4s4.43,5.65,9.47,7.25c3.9,1.24,6.39,3.68,8.38,5.64,1.72,1.68,3.47,3.4,5.58,3.4a4.15,4.15,0,0,0,1.6-.34c0,.12,0,.22,0,.34C312.4,861.94,309.88,869.7,304.81,873.33Zm3.31-59.82c1.74,1.51,3.54,3.07,3.47,3.9,0,.23-.26.89-2.1,2a1.46,1.46,0,0,0-.7,1.13,1.48,1.48,0,0,0,.46,1.24c8.32,7.76,8,8.33,6.39,11.47-1.38,2.64-3.39,6.51-3.56,14.77l-.46-.64c-1.26.9-1.87.63-4.61-2.06a23.58,23.58,0,0,0-9.58-6.36c-4.17-1.32-6.13-3.82-8-6.24s-3.92-5-7.9-5.13c-4.19-.14-7-1.54-7.46-2.79-.08-.19-.3-.74.71-1.75a4,4,0,0,0,1.23-3.43c-.4-3.33-4.8-6.54-6.46-7.63a7.47,7.47,0,0,0-1.43-2.61,6.49,6.49,0,0,1-1.56-5.62,10.13,10.13,0,0,0-.06-2.95h16.2a1.5,1.5,0,0,0,1.06-.44l6.3-6.34,7.57,2.86C298.8,805.4,304.38,810.26,308.12,813.51Zm.51-37L298,785.16a1.48,1.48,0,0,0-.55,1.16v7.33l-7.28-2.75a1.49,1.49,0,0,0-1.59.35l-6.55,6.58h-17a11,11,0,0,0-3.18-2.24c-2.24-1.19-3.86-2-3.54-6.16.53-6.73-2.63-11-6-12.2a6,6,0,0,0-7.15,2.23,13.36,13.36,0,0,0-2.11,5.26c-.07.32-.16.72-.24,1a12,12,0,0,1-2.23-1.3c-3-2-4.87-5-6.53-7.62s-3.26-5.15-5.69-5.59c-3.16-.57-4.41,2.33-5.24,4.25-.42,1-1,2.33-1.51,2.39-4.95.52-5.73-.09-5.78-.12a4.28,4.28,0,0,1,.16-1.38c.28-1.44.71-3.61-.86-5.59a1.72,1.72,0,0,0-.27-.27c-5.93-4.49-21-25-23.45-28.37.24-2.31-.45-5.1-1.25-8.29-.88-3.49-1.87-7.43-1.52-10.88,1.57-2.73,2-5,1.24-6.81-1.09-2.74-4.3-3.66-6.88-4.41-1.06-.3-2.83-.81-3.07-1.17,0,0,0-.28.49-.95,2.94-4,.81-7.27-.75-9.65-1.66-2.53-2.35-3.58.4-5.53l2.38-1.66c8.42-5.88,20-13.93,21.71-20.46a8.47,8.47,0,0,0-.75-6.67c-.65-1.32-.87-1.77,2-4.07a16,16,0,0,1,4.9-2.84c2.53-1,3.47-1.74,4.92-7.26.43-1.62.2-2.81-.66-3.52-1.61-1.32-4.21-.06-7.49,1.54-1.46.71-4.09,2-5.07,2h0c0-.38.06-1.48,1.2-4.15,2.61-6.12,5-7.86,5.61-8.24a1.61,1.61,0,0,0,.74-1.85,1.54,1.54,0,0,0-1.73-1c-1,.15-4.11.2-10.75-2.52-8.41-3.45-10.61-6-11-7.61s1.09-3.26,2.5-4.85l.61-.69,7.45-8.63c18.3,7.83,57.91,24.67,60.14,24.67a22,22,0,0,1,2.75.42c4,.77,7,1.22,8.71.05a2.53,2.53,0,0,0,1.1-1.73,10.67,10.67,0,0,0,.11-1.93c0-2,0-3.29,4.26-4.4a1.51,1.51,0,0,0,1-.79c1.65-3.34,3.33-5.27,4.87-5.58,1.73-.33,3.57,1.3,5.36,2.87,1.95,1.73,4,3.52,6.18,2.53a7.17,7.17,0,0,1,9.41,7.06c0,8.27,6.13,10.92,12.67,12.73a4.78,4.78,0,0,0,1.87,2.38,10,10,0,0,0,5.81,1.46c3.38,0,7.77-.9,13.13-2.7-1.88,7.15-7.09,26.47-10.52,34.65a26.48,26.48,0,0,1-5.2,8.4,12.74,12.74,0,0,0-3.68,7.57c-.24,1.47-.66,3-1.1,4.66-1.64,6.07-3.68,13.63,5.09,17.57,4.66,2.09,6.35,6,8.31,10.59,1.51,3.51,3.19,7.42,6.46,11-6.52,2.47-18.09,9-17.58,14.27.39,4.08,6.87,4.41,9,4.52,7.84.41,13,1,14.47,2.66.85,1,.78,2.62.58,5.74-.07,1-.14,2.08-.18,3.28l0,.7c-.09,2.77-.19,5.92-.81,6.29-1.12.66-7.38-2.54-11.95-4.87-6.85-3.5-12-4.43-15.36-2.76A5.79,5.79,0,0,0,308.63,776.48Zm77.31,19.36a44.71,44.71,0,0,0,2,8.09c-2.09-3.84-6.65-7-13.61-9.52-15.13-5.4-18.48-2.82-20.43,0l0,0c-2.65-1.67-9-9-12.07-12.58.72-1.52.8-3.83.91-7.21l0-.69c0-1.16.11-2.22.17-3.18.23-3.49.39-6-1.33-7.93-2-2.26-5.87-3.11-16.55-3.66-4.76-.25-6.12-1.26-6.18-1.82-.23-2.43,9.73-9.57,17.11-11.68,2,1.19,3.85.07,5.26-.77,1.7-1,3.3-2,5.82-1a9.31,9.31,0,0,0,7.5-.1c1.26-.5,1.79-.7,2.88,0,.5.3,1.09.69,1.74,1.13,4.41,2.91,11.78,7.79,16.65,3.62,2.1-1.8,4.2-2.52,5.62-1.92,1.6.67,2.63,3.11,2.88,6.87.19,2.86,1.13,4.88,2.8,6,3.12,2.09,7.8.54,12.32-1,1.62-.54,3.14-1,4.55-1.37,2-.47,3.48-.08,4,1.07.93,1.92-.59,5.84-5.31,9.59-5.77,4.6-6.51,8-7,10.32-.32,1.46-.42,2-1.55,2.47C389.81,782.62,384.46,785.09,385.94,795.84Zm-.05,15.33a7.37,7.37,0,0,0-2,3.39c-1.8.51-6.34,1.6-10.16.88-3.43-.64-4.15,1.61-4.39,2.56a22.88,22.88,0,0,1-3.75-2.31C344.87,801,339.4,796.46,338,795.06c0-.89-.86-1.34-1.18-1.5-.51-.26-1.68-.87-4.18-2.24a116.4,116.4,0,0,1-20.87-14.38,2.93,2.93,0,0,1,1.23-1c1.38-.65,4.86-1.17,12.59,2.78,8,4.09,11.59,5.74,13.93,5.15,2.45,2.93,9.63,11.32,12.92,13.28a2.6,2.6,0,0,0,3.93-1c.89-1.29,2.74-4,17,1.1,7.28,2.6,11.67,6,12.69,9.87A7.62,7.62,0,0,1,385.89,811.17Zm25.73-87.8c-1,1.72-2.27,3.46-3.38,5-2.64,3.67-4.55,6.32-3.23,8.3,1,1.55,3.35,1.71,8.24.56,7.39-1.73,7.83-.61,8.22.38a4.39,4.39,0,0,0,2.69,2.9,8.14,8.14,0,0,0,2.78.41c4.67,0,11.23-2.55,13.42-4.75,1.51-1.51,4.39-2.43,15.11,1l.64-2,.88,6.67-13.31,10.68a1.53,1.53,0,0,0-.56,1.17v35.11l-5.05,7.26a1.59,1.59,0,0,0-.27.86v43c-6.54-.15-31.79-.45-44.78,3.09-5.53,1.5-6.34.75-6.37.71-.34-.35.39-2.69.74-3.82.73-2.35,1.56-5,1.19-7.63-.21-1.47-.53-3.05-.86-4.73-.78-3.92-1.62-8.17-1.14-11.22a13.43,13.43,0,0,0,1.89-3.45l.08-.06c4.48-2.8,3.49-5.89,2.23-9.81a42.25,42.25,0,0,1-1.87-7.63c-1.18-8.55,2.19-10.1,6.46-12.07,2.48-1.15,2.86-2.88,3.22-4.56.45-2.08,1-4.67,5.94-8.6,6.69-5.33,7.49-10.47,6.14-13.25-1.18-2.45-4-3.48-7.42-2.68-1.53.36-3.19.91-4.8,1.44-3.66,1.21-7.8,2.58-9.7,1.31-.86-.58-1.36-1.83-1.49-3.72-.42-6.34-2.79-8.63-4.71-9.44-2.53-1.06-5.71-.18-8.74,2.41s-9.33-1.4-13-3.85c-.69-.45-1.31-.86-1.84-1.18a5.51,5.51,0,0,0-5.53-.21,6.32,6.32,0,0,1-5.36.08c-3.87-1.44-6.6.19-8.41,1.26s-2,1-2.43.6c-4-3.56-5.78-7.71-7.5-11.72-2.11-4.92-4.11-9.57-9.84-12.14-6-2.69-5.3-7.11-3.43-14.05a50.77,50.77,0,0,0,1.17-5,9.74,9.74,0,0,1,3-6.06,29.08,29.08,0,0,0,5.71-9.23c3.85-9.18,9.66-31.17,11.07-36.58,4.76.25,20,.72,24.46-3.37a4.67,4.67,0,0,0,1.16-1.58h35.85c-.07,4,.45,14.68,7.17,22,4.08,4.45,3.72,6.9,3.51,7.55a1.2,1.2,0,0,1-.82.89.46.46,0,0,1-.46-.14,4.6,4.6,0,0,0-4.8-1.61c-2.93.88-4.89,4.82-5.85,11.71-.28,2-.56,3.84-.83,5.62-1.38,9-2.48,16.1-.49,27.44A1.5,1.5,0,0,0,397.7,718h.52c4.33,0,9.07-1.36,14.27-3.37C413.29,715.79,414.43,718.61,411.62,723.37Zm12.82-173.94c.37-.26,1.47-1.06,3.77,0,10.11,4.5,26.59,35.25,28.44,53.07a.53.53,0,0,1,0,.12h0c.87,4.55-1.06,7.27-3.29,10.42a26.45,26.45,0,0,0-3.51,6.06c-1.67,4.46,2.39,7.61,6.32,10.65,2.92,2.26,5.93,4.59,7,7.46,1.67,4.6,6.44,9.36,9.93,12.83,1.12,1.13,2.47,2.47,3.08,3.24a44.69,44.69,0,0,1-12.16,7.3c-3.49,1.39-3.6,4.8-3.7,8.09-.15,4.84-.33,10.33-9.58,13.85-6,2.29-4.44,8-3.38,11.78.4,1.44.95,3.41.63,4a.59.59,0,0,1-.26.15c-9.54,1.91-18.67,5.89-26.73,9.41-8.48,3.69-15.88,6.92-22,7.18-1.6-10.14-.57-16.83.71-25.22.28-1.79.56-3.66.84-5.66.87-6.25,2.5-8.88,3.74-9.25.74-.22,1.43.44,1.69.73a3.43,3.43,0,0,0,3.32,1.08,4.15,4.15,0,0,0,3.07-2.9c.53-1.65.69-5.2-4.16-10.5-7.37-8-6.33-21.22-6.32-21.35a1.52,1.52,0,0,0-.39-1.15,1.48,1.48,0,0,0-1.1-.48H379.46a29.26,29.26,0,0,1,12.4-15.4c1.88-1.14,2.19-2.69,2.59-4.66.61-3.05,1.74-8.71,10.25-20,4.24-3.84,1.4-10.85-1.34-17.63-2.05-5.09-4.17-10.34-2.83-13.11a25.64,25.64,0,0,0,2.08-8.53c.52-4.43.94-6.71,4.3-7.68C410.55,555.06,418.21,554,424.44,549.43ZM353.59,250.92a28.66,28.66,0,0,1-7.95-4.88c-6-5.37-6.31-8-5.95-9.09s1.87-2.72,8.64-3.37c5.55-.54,9.21-2.18,11.2-5,3.07-4.39,1.69-11.08-.14-18.12-1.24-4.8-1.05-11.65,3.6-15.14,6.06-4.57,18.17-1.91,34.09,7.49,15.39,9.08,27.48,11.93,35.93,8.44A15.36,15.36,0,0,0,441,204a44.19,44.19,0,0,1,5.85,6c6.55,7.8,9.38,14.12,8.42,18.79-.62,3-2.78,5.37-6.61,7.28a41.62,41.62,0,0,1-11.36,3.7c-4.34.87-7.77,1.56-6.74,8.08a20.7,20.7,0,0,0,4.19,9c2.17,3.07,3,4.41,1.37,6.74-3.78,5.47-7.36,9.11-12.51,9.11-4.39,0-5.67,3.42-6.7,6.17-.66,1.77-1.28,3.43-2.55,4.28a14.64,14.64,0,0,1-3,1.37c-3.14,1.12-7,2.52-4.66,10.08.32,1,.62,1.86.88,2.63s.49,1.43.65,2c-1.36-.34-4-1.33-7.17-2.52l-3.49-1.31c-5.58-2.07-7-3.61-7.28-4.34-.23-.51-.07-.95.23-1.7a3.41,3.41,0,0,0,.19-2.83,3.88,3.88,0,0,0-2.53-1.79,14.53,14.53,0,0,1-5.69-2.81,36.71,36.71,0,0,0-4.19-2.82,7,7,0,0,0-3.55-1,10.63,10.63,0,0,0-2.89.48l-.59.16a19.8,19.8,0,0,1,.22-4.39c.85-7.1-5.43-8.27-9.6-9-2-.37-4.27-.79-4.7-1.63a2.93,2.93,0,0,1,.42-2.17c1.43-3,1.79-5,1.18-6.64C358,252.89,356,252,353.59,250.92ZM284.06,436.15a1.58,1.58,0,0,0-.61-.12h-4.14l1.14-3.51a1.84,1.84,0,0,0,.07-.47v-5.76a1.48,1.48,0,0,0-.52-1.13l-4.12-3.58,3.08-2a1.49,1.49,0,0,0,.61-1.68l-2.22-7.53a1.5,1.5,0,0,0-.79-.93l-6.72-3.2a4.05,4.05,0,0,0,.75-1.26c.81-2.24-.4-5-1.49-6.89,2.88-.74,4.54-2,5.06-3.92.8-2.9-1.75-6-3.47-7.7,2.18-1.86,5-4.85,4-7.3s-4.93-2.55-8.25-2.24c-2.68.25-4.52-.05-5.19-.86-.83-1-.17-3.24.35-5s1.06-3.62.08-4.8a2.55,2.55,0,0,0-2.33-.83c-3.82.34-5.5-3.23-5.89-4.85.6-1.36,5.55-5.23,10-8.1a1.51,1.51,0,0,0,.66-1.54,13.3,13.3,0,0,0-4-6.42c-.26-.3-1.58-2,.21-4.7s.08-5.38-1.09-7.1c-.47-.7-1.18-1.75-1.1-2.13,0-.09.18-.29.56-.52,3.26-2,1.9-5.66.69-8.86-1-2.66-2.13-5.68-1.32-8.39l0-.06c3.81,2.06,12.62,4.35,32.91,4.35,24.18,0,32.75,5.76,32.83,5.81a1.49,1.49,0,0,0,1.16.25,1.47,1.47,0,0,0,1-.68c.92-1.47,3.55-4.64,5.36-4.46,1.25.12,2.17,2.12,2.6,3.3a1.51,1.51,0,0,0,1.54,1c10.3-.94,12.83,1.62,13.46,5.76a1.49,1.49,0,0,0,1.55,1.27c5.77-.24,7.1,2.58,9.79,8.21.88,1.84,1.87,3.92,3.17,6.18a1.83,1.83,0,0,0,.24.31c7.06,7.15,7.14,11.83,7.2,15.59,0,2.43.08,4.72,1.87,6.91a23.09,23.09,0,0,0,5.17,4.27c3.86,2.63,7.86,5.35,8.69,12.26a1.54,1.54,0,0,0,.2.58c8,13.61,3.76,33.62,1.24,45.58-.61,2.93-1.12,5.36-1.34,7.17-15.62,4-35.93-.08-54.61-10.91a1.5,1.5,0,0,0-2,.41,46.28,46.28,0,0,0-4.12,7.37c-2.72,5.71-4.15,8.17-9.47,6.7-4.69-1.3-7.22-1.29-8.75,0s-1.39,3.66-1.12,6.06c0,.41.09.84.13,1.27a4.72,4.72,0,0,1-2.94,4.64c-.76.31-1.33.26-1.49.06l-.62-.81c-1.39-1.84-3.72-4.93-7.63-2.14-.88.63-2.66.13-4-1.09-.31-.29-1.8-1.8-1-3.1a4.12,4.12,0,0,0,.49-3.5C288.72,438.3,284.54,436.37,284.06,436.15ZM381,505.73c-5.91,1.89-13.95,4.46-22.29,13.72h-56.2a8.25,8.25,0,0,1-5.73-7c-.22-2.28-1-3.64-2.45-4s-3.13.51-4.42,1.65c-1-5.63-1.07-10.72-.19-11.41,0,0,1.17-.06,4.41,3.89l.09.11c2,1.95,3.64,2,4.71,1.63,1.68-.53,2.89-2.24,3.34-4.7a11,11,0,0,0-3.71-10.46,9.49,9.49,0,0,1-2.48-2.37,10,10,0,0,1,1.19-1,17.71,17.71,0,0,0,2.81-2.43,3.84,3.84,0,0,0,1.17-3.47c-.61-2.65-4.27-4.13-10.93-6.82-1.55-.63-3.25-1.31-5.07-2.08-1.05-.45-1.14-.57-.47-3s1.48-5.33-.44-9c-1-1.89-3.17-4.06-5.27-6.16-1.63-1.62-4.29-4.28-4.55-5.35.54-.27,2.88-.81,12.31,1a7.7,7.7,0,0,0,1.26,1.53c2.07,1.95,5.4,3,7.76,1.35,1.36-1,1.75-.8,3.49,1.51l.68.87a3.54,3.54,0,0,0,2.86,1.29,5.62,5.62,0,0,0,2.09-.43,7.69,7.69,0,0,0,4.81-7.7c0-.45-.09-.9-.14-1.33-.15-1.37-.34-3.09.08-3.45.23-.19,1.31-.7,6,.6,8,2.2,10.41-2.9,13-8.3a48.67,48.67,0,0,1,3.09-5.79c18.77,10.56,39.09,14.47,55,10.65l1.09,8.14c-.09,1-1,8.13-10.07,9.78-2.68.49-4.23,1-4.74,2.35s.37,2.53,1.51,4c2.31,2.95,6.59,8.45,4,20.42a1.5,1.5,0,0,0,.26,1.2c3.21,4.36,5.61,7.33,7.37,9.49,2.24,2.77,3.39,4.18,3.34,5C388.75,503.11,386.2,504.07,381,505.73ZM507.68,435.6c-2-.39-4.85-.18-9.07.75a57.91,57.91,0,0,1-15.94.93c-5.14-.23-8.85-.39-10.85,2.22s-1.59,7.07,1.31,16.07c4.36,13.58,6.53,15,10.8,15.06,2.14.05,4.57.11,9.39,6.32,5.84,7.53,6.39,11.93,6.87,15.81a19.2,19.2,0,0,0,2.07,7.46c-.4,1.75-1.29,6.57.25,9.75,1.3,2.68.93,3.52.84,3.66-.2.31-.89.5-1.86.5-5,0-8.51,3.35-9.73,9.17-.76,3.63-1.67,3.49-6,2.82-.84-.13-1.7-.28-2.58-.44-3.76-.66-8-1.41-11.45-.53-1.42.38-4.18-1.93-6.4-3.77-2.4-2-4.66-3.87-6.82-4.23-1.4-.24-1.8-.59-1.93-.77-.38-.6.13-2.45.47-3.68.52-1.93-.81-4.08-3.58-5.73-4.53-2.72-11.32-3.39-15.53.59-7.88,7.44-17.48,14.75-19.57,14.91-2.16-1-14.71-12.51-25.77-23.1-.12-1.71-1.4-3.3-4-6.51-1.67-2.05-3.92-4.83-6.88-8.84,2.55-12.89-2.35-19.18-4.73-22.23-.26-.34-.57-.73-.78-1a15.27,15.27,0,0,1,2.17-.52c12-2.18,12.54-12.62,12.54-12.73a2.18,2.18,0,0,0,0-.25l-1.31-9.77A68.9,68.9,0,0,1,391,429.8c2.59-12.31,6.91-32.86-1.44-47.45-1.08-8-6-11.38-10-14.07a21.45,21.45,0,0,1-4.53-3.68c-1.13-1.39-1.15-2.93-1.19-5.07-.07-4-.16-9.58-7.93-17.51-1.2-2.1-2.14-4.07-3-5.81-1.38-2.89-2.63-5.46-4.5-7.27,1.82-2.1,2.62-4.22,2.36-6.33a8,8,0,0,0-3.23-5.16,11.5,11.5,0,0,0-6.43-12.66c-3.56-1.8-5.47-3.27-5.85-4.51-.24-.79.05-1.77,1.07-3.62,2.53-4.54,4.61-14.22,3.73-22.55a6.83,6.83,0,0,1,5.29-7.82c1.38,1.17,3.56,1.59,5.85,2,5.22,1,7.63,1.85,7.16,5.73-.54,4.51-.35,6.27.77,7.23s2.34.54,3.38.25a4.77,4.77,0,0,1,4.12.2,35.18,35.18,0,0,1,3.9,2.62,17,17,0,0,0,6.62,3.28,4.28,4.28,0,0,1,.59.23l-.16.42a4.85,4.85,0,0,0-.18,4c.94,2.12,3.79,4,9,5.94l3.48,1.3c5,1.89,7.52,2.82,9,2.84,2.71,2.2,14.88,12,20.19,14.54,2.39,1.15,2.41,2,2.51,5.38a42.64,42.64,0,0,0,2,12.66l.57,1.86c2.71,8.83,3,9.16,10.13,12.06,1.8.73,4.05,1.64,7,3,10,4.54,18,2.72,23.84,1.4l.74-.17c-.87,8.52-1.74,24.06,3.35,25.86,4.05,1.44,6.2,8.47,5.34,17.51-.41,4.23,3.84,7.72,8.75,11.76C501,414.46,510.34,422.19,507.68,435.6Z"/></svg>