<svg id="Layer_1" data-name="Layer 1" xmlns="http://www.w3.org/2000/svg" viewBox="0 0 729.47 1000"><defs><style>.cls-1{fill:#aaedfe;}.cls-2{fill:#75dff9;}.cls-3{fill:#036f8b;}.cls-4{fill:#18bfe9;}.cls-5{fill:#00fff1;}.cls-6{fill:#3199b4;}.cls-7{font-size:22.26px;font-family:IRANSans-Bold, IRANSans;font-weight:700;}</style></defs><title>MAp۵</title><path class="cls-1" d="M190.25,498.46a.73.73,0,0,0-.25-.5c-31.21-18.84-36.12-24.72-39.06-28.23-2.09-2.48-3.13-3.73-13.53-8.37-13.74-6.14-15.13-10.84-15.46-15.91-.17-2.66-.28-4.43-5.75-6.52-13.79-5.29-31.68-19.65-34.51-22-12.62,30.44-37.45,84.84-37.45,84.84l-5.32,97.62,71.16,4.26c.44,0,.89,0,1.34,0s1.19-.11,1.77-.17h.13l.31-.06.75-.18c.39-.1.79-.16,1.18-.23a4.68,4.68,0,0,1,.48-.18,1.1,1.1,0,0,1,.4-.17v0c.1,0,10.72-2.41,22.35-18.91l2.62-3.69C154,562.26,192.25,508.21,190.25,498.46Z"/><path class="cls-2" d="M403.8,536.34a6.92,6.92,0,0,1-1.67-5.31c.42-4.77,5.07-9.68,7.41-11.87-5.73-5-13.09-12-17.87-16.52-1.85,3.41-5.56,4.6-9.76,5.95-6,1.91-13.45,4.3-21.4,13.35a1.5,1.5,0,0,1-1.13.51H302.3a1.2,1.2,0,0,1-.38-.05c-.3-.07-7.4-2-8.13-9.62a3.48,3.48,0,0,0-.34-1.42c-.64.12-2.19,1.47-3.27,2.86a1.49,1.49,0,0,1-2.65-.6c-2.94-13.54-.68-16.86.92-17.63,2.62-1.27,5.61,1.8,7.95,4.64.65.64,1.26.95,1.63.83s1-.93,1.29-2.36a8.09,8.09,0,0,0-2.6-7.56c-2.28-1.77-3.68-3.19-3.67-4.82s1.19-2.39,2.43-3.31a15.17,15.17,0,0,0,2.38-2c.41-.45.48-.71.47-.79-.26-1.12-5-3-9.13-4.7-1.57-.63-3.28-1.32-5.11-2.1-3.6-1.52-2.79-4.42-2.2-6.54s1.16-4.17-.21-6.78C280.9,459,278.89,457,277,455c-3.6-3.6-6.44-6.43-5.14-8.88,1-1.89,3.8-2.68,14.14-.8a4.54,4.54,0,0,1,.66-2.12,1.13,1.13,0,0,0,.17-1c-.38-1.25-2.47-2.6-3.66-3.18h-5.88a1.49,1.49,0,0,1-1.21-.62,1.51,1.51,0,0,1-.21-1.35l1.7-5.24V427l-5.1-4.43a1.5,1.5,0,0,1,.16-2.38l3.8-2.5-1.72-5.82L268,408.65a2.55,2.55,0,0,1,.35,1.87c-.33,1.56-2,2.72-5.69,3.9-9.17,2.93-11.46,2.4-15.79.92-.81-.28-1.73-.6-2.82-.91-3-.85-6.86,2.85-9.53,6.1a8.14,8.14,0,0,1,3.91,3.18,5.77,5.77,0,0,1,.36,4.83s0,.1,0,.15l.41-.09c1.28-.26,2.88-.59,4.06.45a3.58,3.58,0,0,1,1,3.13,1.51,1.51,0,0,0,.06.83,4.74,4.74,0,0,0,1.7.17c1.29,0,2.9,0,4,1.17a4.14,4.14,0,0,1,.9,3.29,7.12,7.12,0,0,0,1.6,4.89c1,1.5,2.37,3.56.26,6-.44.51-10.7,12.37-16.15,8.8-2.14-1.39-2.59-1.08-2.6-1.08-.27.22-2.5,2.73,4.85,25.42,5,15.52,13,26.74,16.86,32.13,2.59,3.64,3.38,4.73,2.28,5.91s-2,.82-11.15-4.81c-5.72-3.5-7.51-3.72-7.94-3.68a11.39,11.39,0,0,0,.29,2.76c.42,2.32.89,5-.93,6.38-1.59,1.25-4.22,1-8.54-.94-7.72-3.39-9.39-3.2-9.75-3s-.24,1.78-.23,2.56c0,3.71.08,9.93-8.78,13.72a14.33,14.33,0,0,1-5.67,1.06c-5.25,0-10.59-2.16-13.11-3.35-3.64-1.7-7.52-4.19-9.64-6.64-7.33,12.41-19.31,30.69-38.61,57.93l-2.61,3.69c-10.46,14.84-20.16,18.89-23.22,19.85a.92.92,0,0,1-.34.31l.17-.12a6.76,6.76,0,0,0-1,1,2.23,2.23,0,0,0-.2.33c0,.05,0,.1,0,.15L115.2,631.3c4.27-1.61,28.38-10.67,36.58-13.13s31.12-.55,35.72-.13l7-8.08c-1.31-1.36-2.94-3.58-2.08-5.52s3.59-2.53,8.79-1.84c3.63.48,4.28-.19,4.28-.19.56-1.19-4-6.46-5.76-8.44-1.15-1.32-2.23-2.56-3-3.61-1.7-2.27-1.81-5.37-.31-8.73,2.2-5,8.1-10.32,15.12-11,3.72-.34,5.08-3.53,6.07-5.86.66-1.55,1.28-3,2.79-3h0c1.42,0,2.35,1.26,3.85,4.66l5.56-4.34a1.45,1.45,0,0,1,.92-.32h3.45a3.56,3.56,0,0,1-.49-2.11c.15-1.55,1.37-2.75,3.62-3.57,4.24-1.54,4.75-5.55,5.12-8.48.22-1.76.41-3.29,1.85-3.67s2.57.78,4.5,3.35a12.48,12.48,0,0,0,2.48,2.68,12.5,12.5,0,0,0-2.23-7.1c-1.42-1.95-1-3.27-.67-3.88a3,3,0,0,1,3.18-1.24c2.83.35,7.72,3.51,10.3,10.69.66-2.4,1.82-5.08,4.29-6,2.18-.81,4.75,0,7.83,2.33,3.94,3,5.61,3.07,6.15,2.94s.75-.56,1.07-1.23A2,2,0,0,1,283,545c1.35.06,1.81,1.2,3.06,4.57.26-2,.44-4.89.59-7.21.32-5,.65-10.11,1.56-12.83.35-1.07,1.41-4.31,3.82-3.79,2.75.58,3.36,6.05,3.08,8.85-.42,4.23,1.32,28.78,1.78,34.08.05.65.12,1.27.19,1.88.45,4.19.88,8.16-2.49,17.6-1.14,3.19,1,7.14,3.69,12.15a71.84,71.84,0,0,1,5.19,11.25A149.28,149.28,0,0,0,310,626.08c6.47,13.34,8.92,19,7,21.3a2.11,2.11,0,0,1-.3.3,1.46,1.46,0,0,0,.24.17c1.28.82,5.67,2.21,18.77-2.6a1.32,1.32,0,0,1,.62-.09c7.45.51,20.41.29,23.48-2.51a1.18,1.18,0,0,0,.49-.91,1.5,1.5,0,0,1,1.5-1.46H376.3a31.91,31.91,0,0,1,14-18c.69-.42.81-.79,1.19-2.68.66-3.29,1.88-9.42,10.89-21.32a1.17,1.17,0,0,1,.21-.23c2.8-2.42.34-8.49-2-14.36s-4.67-11.57-2.75-15.54a23,23,0,0,0,1.8-7.57c.45-3.9.93-7.92,5.22-9.77-.18-1.1.27-2.44,1.9-3.78s2.28-2.25,2.35-3.1c.12-1.39-1.57-3.33-3.91-6Z"/><path class="cls-3" d="M146.07,772.91c.76.18,3.17.43,4.12-.64.77-.88.67-2.79-.28-5.39-.87-2.37-.84-4,.08-5.09a2.9,2.9,0,0,1,3-.78c2.09.47,4.91,2.69,5.56,5,.81,2.84,1.93,4.21,2.47,4.28.34,0,1.15-.44,2.32-2.49a8,8,0,0,0,1-6.36c-.38-2.06-.82-4.4,3.16-6.54,1-.55,1.19-.75-.05-3.13-.78-1.5-1.75-3.36-.91-5.23.69-1.52,2.37-2.57,5.3-3.3a32.43,32.43,0,0,1,12.72-.44c3.72.46,3.76.23,3.91-.52.34-1.78-.37-4.64-1.13-7.67-1-3.85-2.06-8.2-1.55-12.27a1.34,1.34,0,0,1,.2-.58c1.16-2,1.57-3.51,1.19-4.47-.54-1.36-2.87-2-4.92-2.62-2.29-.66-4.46-1.29-5.09-3.13a3.92,3.92,0,0,1,.92-3.65c1.63-2.23.79-3.75-.84-6.23s-3.94-6,1.18-9.63l2.39-1.67c7.13-5,19.07-13.3,20.53-18.77a5.55,5.55,0,0,0-.53-4.57c-1.33-2.66-1.24-4.5,2.81-7.74a19,19,0,0,1,5.72-3.31c1.53-.58,1.9-.72,3.08-5.21l.06-.25a28.92,28.92,0,0,0-4,1.72c-3.6,1.75-6.7,3.27-8.52,1.54-1.34-1.27-1.17-3.53.55-7.57a30.52,30.52,0,0,1,4-7,40.21,40.21,0,0,1-8.53-2.59c-7.92-3.25-12-6.33-12.75-9.7-.55-2.35.54-4.31,1.85-6-7.16-.58-25.63-1.84-32.44.2-8.72,2.62-36.72,13.2-37,13.3l-.53-1.4-6.35,112.15s32.59,11.3,33.25,21.28c.28,4.13,1.58,6.43,3.72,8h0Z"/><path class="cls-4" d="M117.28,436.13c6.73,2.58,7.43,5.41,7.66,9.13.23,3.5.49,7.46,13.69,13.36,10.59,4.72,12.13,6.23,14.61,9.19,2.79,3.33,7.44,8.89,37.4,27,2.69-2.24,11.22-9.07,17.43-11,2.32-.73,3.51-2.61,4.78-4.61,1.87-3,4.16-6.57,10.41-4.68-.91-.93-2-2-3-3-4.6-4.47-10.9-10.59-15.61-17.08-9.87-13.57-24.59-21-24.73-21.1v0a1.26,1.26,0,0,1-.36-.24,1.46,1.46,0,0,1-.46-1.26,37.21,37.21,0,0,0-4.69-20.8c-1.09-1.87-1.89-3.48-2.59-4.9-3.15-6.34-3.81-7.65-20.5-7.65a1.5,1.5,0,0,1-1.41-1c-11.29-31.43-19.27-51.22-34-58.66-13.54,8.1-35.86,28-36.09,28.24a1.52,1.52,0,0,1-1,.37c.15,2.93.75,9.44,3.28,12.48,3.33,4,8.65,7.31,6.65,18-.44,2.39-2.93,8.92-6.51,17.61l1-1.15C83.44,414.53,103.05,430.67,117.28,436.13Z"/><path class="cls-5" d="M567.15,835.62c-12.72-3.84-29.5.2-41.78,10.06-20.17,16.21-68.61,40.83-69.09,41.08a1.65,1.65,0,0,1-.68.16,1.55,1.55,0,0,1-.56-.11,1.5,1.5,0,0,1-.86-.9,80.35,80.35,0,0,0-8.8-16.61,1.5,1.5,0,0,1-.19-1.3,20.17,20.17,0,0,0-6.76-22.6,1.5,1.5,0,0,1-.63-1.22V843c-6.3-.14-31.52-.43-44,3a24.1,24.1,0,0,1-6,1,4.4,4.4,0,0,1-3.35-1.13c-1.57-1.63-.79-4.14,0-6.8.64-2,1.36-4.36,1.08-6.31-.2-1.39-.51-2.94-.83-4.57a48.85,48.85,0,0,1-1.33-10.41,25.79,25.79,0,0,1-10.27.61,1.85,1.85,0,0,0-.85,0,4.62,4.62,0,0,1-.1.5,2.69,2.69,0,0,1-1.56,2.16,2.28,2.28,0,0,1-.84.15c-1.24,0-2.94-.88-6-3-22.2-15.72-27.78-20.28-28.95-22.17-.67-.35-1.82-1-3.75-2a118.53,118.53,0,0,1-21.28-14.63L300.47,787v8.69c.8,7.87,5.89,12.29,9.62,15.52,2.62,2.27,4.68,4.07,4.49,6.42a4.84,4.84,0,0,1-1.94,3.21c7.87,7.49,8,9.24,5.66,13.78-1.39,2.66-3.48,6.66-3.21,16.14.34,12.11-2.62,20.74-8.54,25a16,16,0,0,1-9.51,2.91,26.61,26.61,0,0,1-9.23-1.83,47.1,47.1,0,0,0-25.08-2.11,57.19,57.19,0,0,1-4.39,5.85c-.46.58-.94,1.16-1.43,1.77-2.79,3.49-1.72,7.58-.85,10.87.65,2.48,1.21,4.61-.12,6.07a4,4,0,0,1-3.06,1.1,12.16,12.16,0,0,1-2-.2c-4.45-.74-7.53-2.93-10.25-4.86-3.74-2.66-6.45-4.59-11.56-2.54l-.56-1.4L225.81,930H564.34l19.29-77.78,1-1.59-1.43.46C580.71,843.39,575.18,838,567.15,835.62Z"/><path class="cls-3" d="M551.51,793.74a91.67,91.67,0,0,0-13.18-13.36c-6.81-5.67-10.2-9.46-10.91-12.29-1.66-2-12.79-16-11.79-25.72.15-1.5.28-3.58-.33-4.3s-2.63-.82-5.44-1a83.51,83.51,0,0,1-13-1.52c-13.76-2.75-32.4-2-37.91-1.73l1.12,8.47a1.5,1.5,0,0,1-.55,1.37l-13.41,10.76v34.86a1.53,1.53,0,0,1-.26.86l-5.06,7.26v46c2.52,2.12,11.49,10.85,7.46,24.75a87.8,87.8,0,0,1,8.14,15.11c8.28-4.26,49.14-25.55,67.09-40,13-10.46,30.9-14.72,44.53-10.6,8.59,2.59,14.63,8.18,17.57,16.2l18.51-30.7C562.67,807.16,558.92,802.66,551.51,793.74Z"/><path class="cls-3" d="M115.1,335.87a1.49,1.49,0,0,1,1.39-.06c16.06,7.58,24.34,27.63,35.89,59.72,16.82.08,18.53,2.08,22.12,9.32.69,1.37,1.46,2.93,2.51,4.72a39.93,39.93,0,0,1,5.19,20.67l47.59-8.42c1.77-2.67,8.58-12.13,15.06-10.27,1.16.33,2.12.66,3,.95,3.63,1.24,5.29,1.81,13.89-.94a11.22,11.22,0,0,0,3.54-1.58c-.16-.17-.41-.38-.57-.52-.65-.57-1.63-1.42-1.3-2.66s1.58-1.65,2.91-1.93,1.42-.77,1.48-.94c.51-1.38-1.07-4.33-2.35-6a1.51,1.51,0,0,1,1-2.41c2.82-.39,4.6-1.19,4.87-2.18.42-1.52-2-4.36-3.83-5.81a1.49,1.49,0,0,1-.56-1.19,1.53,1.53,0,0,1,.6-1.18c2.37-1.78,4.52-4.2,4.42-5,0,0-.44-.43-2.78-.43-.64,0-1.42,0-2.38.13-3.86.36-6.41-.27-7.78-1.94-1.84-2.22-.9-5.44-.22-7.79.16-.54.37-1.26.47-1.77-5.23.25-8.08-4.29-8.71-7.47-.58-2.94,6.77-8,10.34-10.39a12,12,0,0,0-2.77-3.89l-.05,0-.11-.12a20.52,20.52,0,0,0-7.74-4.36c-12.24-4.08-13.8-6.37-13.66-8.24.17-2.31,3.36-2.87,4.56-3.09,1.71-.3,1.8-.95,1.82-1.16.3-2.3-4.33-7.42-8.4-9.3a14.1,14.1,0,0,0-4.43-.73c-6.46-.45-16.22-1.13-19.48-22.13-3.39-21.89-15.44-25.23-18.09-25.7a2.67,2.67,0,0,1-.4.13,2.25,2.25,0,0,1-.58.08c-2.07,0-4.07-3-8.73-12.66-1.19-2.48-2.11-4.6-2.85-6.3-.89-2.07-1.82-4.21-2.35-4.68a13.75,13.75,0,0,0-3,2.89c-3.45,4-7.89,4-10.48,1.94-2.84-2.24-3.89-7,.14-12.67,6.1-8.53,2.13-16.23-2.27-21.18-2.36-2.66-2.27-6.55-2.2-9.4,0-.43,0-.94,0-1.39a30,30,0,0,0-3,2.85c-2.51,2.63-4.16,3.53-5.69,3.12-1.81-.48-2.3-2.48-2.82-4.6s-1.1-4.46-2.77-5.42c-1.15-.67-2.88-.67-5.12,0a1.52,1.52,0,0,1-.42.06v42.4l-17.3,3.32-2.66,12s20.62,4.65,6,10.64c-37,15.13-29.26,24.61-29.26,24.61L48.9,322.76s18,10,14.63,23.94c-2.76,11.61,9.64,17.25,13.9,18.82a1.48,1.48,0,0,1,.4-.65C78.78,364,101.38,343.84,115.1,335.87Z"/><path class="cls-4" d="M542.5,282.17c-2.47,8.34-10.24,9.77-17.75,11.16-4.49.83-9.14,1.69-13.11,3.91-4.14,2.32-4.62,4.63-5.13,7.07-.91,4.34-2.29,7.23-12.82,7.75a11.78,11.78,0,0,0-4.2.67,17.06,17.06,0,0,0,2.25,2.73c2.46,2.66,5.82,6.3,5.47,10.68-.23,2.74-1.91,5.36-5,7.78-1.34,1-2.91,2.57-2.75,3.92.28,2.4,5.61,4.82,9.9,6.77,5.31,2.42,10.33,4.7,10.74,8.29.21,1.86-.82,3.63-3.13,5.41-3.63,2.78-6.65,3.82-9.19,3.83-4.49,0-7.54-3.24-10-5.85-1.73-1.83-3.36-3.57-5.07-3.91a10.76,10.76,0,0,0-3.69.08c-1.3,12-.74,22.93,1.26,23.64,5.46,1.94,8.33,10,7.32,20.62-.25,2.64,3.43,5.67,7.68,9.17,7.94,6.53,18.75,15.43,15.2,31.06a6.6,6.6,0,0,1,1.61,3.21c.45,1.84.79,3.17,7.45,1.95,6.32-1.17,8.37-3.37,10-5.13,3.36-3.6,5.64-4.32,18,1.71,7.66,3.74,12.29.34,16.38-2.67,2.66-1.95,5.17-3.8,8-2.8,3.18,1.12,6.28,5.59,11,23.73,7.79,29.7,20.64,36.75,28.31,40.95,4.14,2.27,7.4,4.06,7.21,8.27-.38,8.34,4.68,9.95,4.9,10a1.5,1.5,0,0,1,1.05,1.2c17.65-3.17,26.58-16.8,30.46-31.69,4-15.29,14-19.28,18-20.61s-8.65-12.64-14-25.28c5.32-6,4-12-13.3-17.95,8-10-10.64-15.3-4.66-20s-11.3-27.27-18-39.24-39.91-14-45.23-36.58c-5.23-22.21-16.87-38-26.73-54.32a1.57,1.57,0,0,1-.93.22C549.82,272,545.52,272,542.5,282.17Z"/><path class="cls-4" d="M139.6,201.6c3.1-.9,5.54-.81,7.46.3,2.78,1.6,3.59,4.9,4.18,7.31a13.36,13.36,0,0,0,.73,2.36,9.24,9.24,0,0,0,2.7-2.25c3.62-3.78,5.18-4.74,6.67-4.12s1.53,2.49,1.48,4.81-.13,5.56,1.44,7.33c7.25,8.16,8.13,17,2.47,24.93-2.88,4-2.44,7.21-.73,8.56,1.44,1.13,4,1.13,6.36-1.55,2.15-2.48,3.82-4.21,5.69-3.92s2.85,2.37,4.64,6.49c.72,1.67,1.62,3.76,2.79,6.19,1.09,2.24,4.11,8.53,5.76,10.46a31.45,31.45,0,0,0,.26-6.66c-.42-14,3.65-17.2,6.93-19.77,1.91-1.51,3.3-2.59,3.73-5.75.83-6.15,4.39-7,7-7.55,2.23-.51,3.35-.76,3.65-3.5.35-3.15,1.52-5,3.47-5.43,4.42-1,9.66,6.43,11.71,9.67a14.58,14.58,0,0,0,.83,1.2c.2-.53.41-1.26.58-1.85,1-3.5,2.53-8.8,7.8-9.35a7.23,7.23,0,0,0,6-4.77c1.79-4.54.27-10.57-3.87-15.37-5.73-6.64-4.51-11.36-3.62-14.82.51-2,.72-3,0-3.86-2.64-3.4-1.59-8.76-.82-12.67a22.54,22.54,0,0,0,.51-3.33c0-1,0-1.82.89-2.27a1.6,1.6,0,0,1,1.76.22c.52.39,2.23-.44,4.87-3.12,2-2.05,3.55-2.85,5-2.62a3.78,3.78,0,0,1,2.66,2.37c.24-.33.56-.82,1-1.54.89-1.53,2.17-3.3,3.88-3.28s2.68,1.7,3.43,3.05a9,9,0,0,0,.95,1.5,5.58,5.58,0,0,0,1.09-1.33c3.78-5.84,9.17-6.47,12.4-5.84.94-2.05,2.89-6.37,3.86-9s3.43-1.93,4.91-1.57c2.54.6,5.16,1.22,7.52-4.67,2.54-6.35,11.11-6.33,18-5.14a24.78,24.78,0,0,1-5.21-11.44l-6-8.13a1.51,1.51,0,0,1,.44-2.18l8.14-4.88v-5.8a1.48,1.48,0,0,1,.48-1.1l7.21-6.65L308.28,90l-6.65,5.32-6-12L225.81,63.38l-33.92,9.31s2.66,16,3.33,18-10.64,5.33-14,8,0,9.31-5.32,6.65-10,7.31-10,7.31l4,6.65-12,6.65-6-2v16l-1.33,10,7.31,6-7.31,6H134l-10,6.65,6,7.32h-12s-4,9.31,0,15.29l4,10,7.32-4,9.33,5.25A1.52,1.52,0,0,1,139.6,201.6Z"/><path class="cls-3" d="M563,664.41c-1.67,1.29-4.46.63-9-2.15-.62-.37-.89-.29-1-.27-.83.22-1.8,2-2.67,3.51-1.47,2.65-3.14,5.65-6.27,6.24a67.08,67.08,0,0,1-7.52.67c-2.65.14-6.9.36-8.36.91a30.38,30.38,0,0,0,2.31,2.76c3.12,3.47,7.85,8.73,4,12.54-3.63,3.63-13.31,12-16.61,14.77,1.89,2.29,6.59,7.47,11.27,8.65a1.45,1.45,0,0,1,.49.22L546,723.62c.23-10.75,1.8-12.61,4.11-14.1,1-.64,2-1.25,2.3-7.09.88-14.87,13.85-33.22,15.18-35.06a12.86,12.86,0,0,1-3.75-4.19A2.87,2.87,0,0,1,563,664.41Z"/><path class="cls-3" d="M622.47,519.07c-.31-.08-7.58-2.21-7.09-13,.1-2.25-1.66-3.31-5.65-5.49-8.1-4.44-21.66-11.88-29.77-42.83-1.32-5-5.33-20.32-9.13-21.67-1.24-.44-2.78.63-5.19,2.4-4.3,3.16-10.19,7.49-19.47,2.94-11.43-5.59-12.37-4.58-14.45-2.36-1.84,2-4.38,4.69-11.67,6-7.93,1.46-9.95-.34-10.9-4.18-.48-1.93-.9-3.6-9.89-1.6a61,61,0,0,1-16.73,1c-4.06-.18-7.28-.33-8.33,1-1.18,1.56-.6,5.92,1.78,13.33,4.15,12.9,5.77,12.93,8,13,2.53.06,6,.14,11.69,7.49,6.34,8.17,7,13.21,7.48,17.27.46,3.72.83,6.65,5.68,11.3,5.5,5.27,5.84,8.26,6.17,11.16s.62,5.37,6.67,11c6.31,5.86,5.79,10.16,5.38,13.62-.44,3.62-.78,6.48,7.66,11.46,7.8,4.6,6.84,8.39,5.33,11.58a4.54,4.54,0,0,0-.51,1.37c.4.85,4.24,2.15,20.26,3.47a1.51,1.51,0,0,1,1.33,1.16c25.62-6,21.23-15,25.15-17.62s14,9.31,17.29,8,11.3-8.64,15.3-8.64,18-16,19.28-18-7.63-7.37-14.23-13.6A1.43,1.43,0,0,1,622.47,519.07Z"/><path class="cls-1" d="M536.77,620.22h-7.14l-6.7,15.5a1.51,1.51,0,0,1-1.38.91,1.46,1.46,0,0,1-.57-.12c-.34-.14-8.47-3.56-8.47-9.81a27.73,27.73,0,0,1,.16-2.87c-.34.09-.72.21-1.12.33l-1.48.43a1.49,1.49,0,0,1-1.82-.91,4.35,4.35,0,0,0-2.2-2.62,5.87,5.87,0,0,0-3.92,0,1.51,1.51,0,0,1-1.69-.45l-12.27-14.81c-2.16.39-7.36.9-9.67-2.61-.56-.85-1-.89-1.16-.9a3.32,3.32,0,0,0-2.14,1.1,1.5,1.5,0,0,1-2.56-.75,4.78,4.78,0,0,0-2.6-3.24c-1.63-.61-4.71-.44-10.27,3.63.68,5.25-1.67,8.57-3.94,11.78a23.63,23.63,0,0,0-3.15,5.37c-.84,2.24,1.46,4.22,5.34,7.23,3.11,2.4,6.63,5.12,8,8.8,1.44,4,5.94,8.47,9.23,11.74,3.47,3.46,5,5,3.86,6.64s-7.06,6.05-13.95,8.8c-1.52.61-1.7,2-1.81,5.4-.16,4.91-.39,12.33-11.51,16.56-3.25,1.23-2.76,3.91-1.57,8.17.7,2.48,1.3,4.62.35,6.27a3.36,3.36,0,0,1-2.19,1.57c-9.3,1.87-18.28,5.78-26.2,9.24-2.37,1-4.66,2-6.88,2.94,1.31,2.32,1.93,6.26-1.12,11.41-1.09,1.83-2.38,3.63-3.52,5.22a26,26,0,0,0-3.05,4.83c.48.08,1.76.11,4.93-.64,8.39-2,10.52-.8,11.7,2.21.3.76.41,1,.92,1.17,3,1.11,11.08-1.66,13.06-3.64,3-3,7.86-3,17.74.17l-.21-1.57a1.54,1.54,0,0,1,.33-1.15,1.5,1.5,0,0,1,1-.55c1-.07,23.67-1.64,40.31,1.69A81.26,81.26,0,0,0,510,734.11c3.81.2,6.12.32,7.56,2,1.26,1.47,1.32,3.69,1,6.55-.72,7,6.49,17.44,9.76,21.75,1.56-1.53,4.59-2,7.76-2.45s6.65-1,8.38-2.5c2-1.73,3.79-2.45,5.51-2.21,2.63.38,4.22,2.84,5.89,5.44a23.51,23.51,0,0,0,3.31,4.35.66.66,0,0,0,.19.14c2.63-.2,8.09-18,8-26.08,0-3.25-6.6-5.84-11.88-7.93-4.95-2-8.67-3.43-9.4-5.84l-18-12.46c-7-1.93-13.28-10.44-13.55-10.81a1.5,1.5,0,0,1,.24-2c.13-.11,13.3-11.31,17.53-15.54,1.66-1.66-1-4.93-4.15-8.42-2.09-2.32-3.47-3.85-3.26-5.37.37-2.59,4.16-2.92,11.38-3.3a62.58,62.58,0,0,0,7.12-.62c1.75-.33,3-2.57,4.21-4.75s2.46-4.4,4.52-4.95a4.19,4.19,0,0,1,3.3.61c3.87,2.34,5.28,2.37,5.6,2.33a1.75,1.75,0,0,0-.05-.63l1.44-.42a12.43,12.43,0,0,0-6.1-5c-10-4-1.33-9.31-2-13.3-.51-3.08-10.91-4.57-12.59-7.54l-1.46.34Z"/><path class="cls-6" d="M232,424a1.51,1.51,0,0,1-1,.67l-46,8.14c5.2,3.17,14.82,9.89,22.12,19.94,4.57,6.28,10.76,12.3,15.28,16.69,5.49,5.33,7,6.77,5.92,8.38s-3.07.65-4.78,0c-5-1.94-6.14-.07-8.1,3-1.43,2.26-3,4.82-6.42,5.87-5.43,1.7-13.24,7.84-16.1,10.2a4.6,4.6,0,0,1,.32,1c.57,2.8-.55,8.28-9.1,23.16,1,1.66,4.51,4.49,9.28,6.73,6.45,3,12.56,3.86,16.33,2.24,7-3,7-7.4,7-10.94,0-2.07,0-4,1.58-5.08,1.89-1.24,5.19-.53,12.61,2.73,4.54,2,5.43,1.35,5.47,1.33.41-.33,0-2.55-.16-3.5-.41-2.25-.83-4.59.91-5.77s5-.24,11.25,3.6l4.57,2.78c-4-5.67-11.94-17-17-32.52-7.24-22.35-6-27.07-3.81-28.73s5,.25,6.06.95c1.87,1.22,8.1-3.43,12.23-8.24.57-.67.6-.8-.48-2.41a10,10,0,0,1-2.09-6.78c.05-.66,0-1-.12-1s-1.23-.21-1.79-.21c-1.27,0-2.85,0-3.89-1.14a3.88,3.88,0,0,1-.85-3.11,2.63,2.63,0,0,0,0-.6,8.56,8.56,0,0,0-1.42.21c-1.18.24-2.64.55-3.6-.52s-.55-2.44-.22-3.43a2.79,2.79,0,0,0-.12-2.37,6,6,0,0,0-3.19-2.2C232.36,423.37,232.13,423.71,232,424Z"/><path class="cls-2" d="M357.86,323c-.26-2.18-2.67-3.57-2.69-3.58a1.51,1.51,0,0,1-.7-1.75,8.63,8.63,0,0,0-4.65-10.19c-4.57-2.31-6.7-4.14-7.37-6.31s.3-4.11,1.32-6c1.89-3.39,4.26-12.34,3.37-20.78A9.75,9.75,0,0,1,354,263.57a6.85,6.85,0,0,1,.79-3.31c1-2.09,1.36-3.54,1.08-4.32s-1.66-1.45-3.53-2.29a31.72,31.72,0,0,1-8.72-5.37c-4.46-4-6.77-7.34-7-10.16h0A1.54,1.54,0,0,1,336,238h0c-10.48-1.79-15.2,4.53-20.2,11.23-3.13,4.18-6.09,8.14-10.45,10-6,2.51-7.38,4.55-8.95,6.92a18,18,0,0,1-4.94,5.33c-3.45,2.47-7,1.51-9.88.74-3.47-.93-5.2-1.25-6.85,1.47a41,41,0,0,0-2.91,6.17c-1.75,4.35-3.25,8.11-8.89,9.16-2.38.45-2.57,1.7-2.51,5.17.05,2.71.1,6.09-3,8-2.15,1.33-1.67,4.23-.87,6.47a1.52,1.52,0,0,1,1.62.51c.74.83,5.77,4.95,32.83,4.95,20.24,0,30,3.9,33.25,5.6,1.38-1.83,4.22-5,7.38-4.67,1.94.2,3.51,1.61,4.68,4.19,6.44-.47,13.52.17,15.32,7.11a11,11,0,0,1,4.37.94C357.38,325.71,358,324.29,357.86,323Z"/><path class="cls-1" d="M473.89,167.79c-2.66-8,4-9.31-4.66-18.62s-2.66,4-12.63-4-9.32-15.3-15.3-16.63-8.65,2.66-16-2.66-15.3-2-24.61-5.32-12.64,0-20.62-6.65-10.64.67-15.38-4.65-10.56,2.66-16.54,1.33a16.08,16.08,0,0,0-10.64,1.33l-6.66-7.32-7.31-10-7.81-2.38a1.43,1.43,0,0,1-.39.67L308,99.73v6a1.52,1.52,0,0,1-.73,1.29l-7.45,4.47,5.23,7.1a1.55,1.55,0,0,1,.28.69c0,.1,1.52,10.7,9.57,13.87.95.38,1.48.58,1.67.65a1.5,1.5,0,1,1-1,2.83c-7.44-2.52-20.7-5.12-23.21,1.14-3.31,8.28-8.3,7.1-11,6.46A9.23,9.23,0,0,0,280,144c-1.38,3.65-4.34,10-4.47,10.28a1.5,1.5,0,0,1-1.89.77c-.23-.09-6.05-2.1-10.18,4.29-.79,1.21-2,2.82-3.74,2.77s-2.69-1.75-3.44-3.11a11.27,11.27,0,0,0-.87-1.4,6.84,6.84,0,0,0-1.22,1.67c-1.32,2.29-2.37,3.62-3.77,3.62h-.07c-1.33,0-1.93-1.24-2.32-2a3.8,3.8,0,0,0-.59-1s-.67.06-2.35,1.77c-2.72,2.77-4.92,4.13-6.73,4.13h0c-.1.83-.29,1.79-.5,2.84-.65,3.35-1.55,7.93.25,10.25,1.64,2.11,1.06,4.32.51,6.46-.8,3.12-1.72,6.66,3,12.11,4.94,5.72,6.62,12.78,4.39,18.43a10.12,10.12,0,0,1-8.47,6.65c-3,.32-4.16,3.45-5.24,7.2-.68,2.35-1.21,4.21-2.93,4.45s-2.82-1.32-3.9-3c-3.92-6.2-7.33-8.6-8.5-8.34-.42.09-.94.89-1.16,2.83-.54,4.86-3.67,5.57-6,6.09s-4.12.95-4.68,5c-.6,4.37-2.76,6.06-4.85,7.71-3,2.37-6.16,4.83-5.78,17.32a33,33,0,0,1-.34,7.35c4.6,1.22,16.05,6.41,19.39,27.93,2.89,18.63,10.56,19.17,16.72,19.6a15.78,15.78,0,0,1,5.48,1c4.41,2,10.69,8,10.12,12.4-.15,1.14-.9,3.14-4.28,3.74a8.71,8.71,0,0,0-1.8.47c.75.69,3.26,2.36,11.33,5.05a26.49,26.49,0,0,1,5.32,2.41,8.18,8.18,0,0,1,1.38-3.59c.66-1,.15-1.95-1.08-3.76-.93-1.38-1.89-2.8-1.55-4.43a3.88,3.88,0,0,1,1.91-2.45c1-.63.77-1.81-.52-5.26-1-2.78-2.34-6.2-1.56-9.66-4.16-7.23-1.49-11.54.82-13,1.51-.93,1.59-2.65,1.54-5.38-.05-3-.12-7.21,5-8.17,4-.75,5-3.22,6.65-7.32a43.74,43.74,0,0,1,3.13-6.61c2.89-4.78,6.94-3.69,10.2-2.82,2.6.7,5.06,1.36,7.35-.28a15,15,0,0,0,4.19-4.55c1.69-2.54,3.43-5.17,10.3-8,3.6-1.5,6.32-5.14,9.2-9,5.07-6.79,10.83-14.49,23.11-12.39l0,.07h0a1.39,1.39,0,0,1,.66.26h0c1.28-2.62,4.86-4.19,10.93-4.78,4.62-.44,7.58-1.68,9-3.76,2.12-3,1.39-8-.58-15.65-1.48-5.7-1.13-13.9,4.69-18.29,5-3.78,15.59-5.58,37.43,7.31,18,10.65,28,10.38,33.2,8.28a12.3,12.3,0,0,0,6.85-6.68c-1-1.46-1.76-3.74-3.67-10.07-1.36-4.49-1.21-7.65.45-9.39a4.37,4.37,0,0,1,4.41-1.05c4.11,1,9.47,6.41,11.76,14.7,1,3.7,2.88,6.14,5.51,7.26,5.54,2.36,13.54-1.37,16.72-3.08,5.65-3,16.51-10.06,16.61-10.13l.05,0C483.62,178.87,475.85,173.69,473.89,167.79Z"/><path class="cls-3" d="M455.94,206c-3.51-1.5-5.94-4.6-7.22-9.22-2.09-7.54-6.87-11.9-9.6-12.59-.71-.17-1.21-.11-1.51.2-.63.66-.89,2.7.25,6.46,2.13,7,2.68,8.65,3.58,9.6a13,13,0,0,0,1.05.91,46.08,46.08,0,0,1,6.61,6.69c7.27,8.66,10.23,15.64,9,21.33-.8,3.89-3.56,7-8.2,9.36a44.43,44.43,0,0,1-12.1,3.95c-4.49.9-5,1-4.38,4.67.52,3.28,2.2,5.66,3.68,7.76,2.09,3,4.26,6,1.39,10.18-3.74,5.4-8.14,10.4-15,10.4-2.2,0-2.85,1.45-3.89,4.22-.76,2-1.62,4.34-3.7,5.72a16.55,16.55,0,0,1-3.69,1.7c-3.06,1.1-4.32,1.55-2.81,6.36.31,1,.6,1.81.86,2.55a11.26,11.26,0,0,1,1,4.16c3.33,2.69,14.43,11.52,19.13,13.79,4,1.94,4.1,4.48,4.21,8a40,40,0,0,0,1.89,11.86l.58,1.87c2.37,7.72,2.37,7.72,8.39,10.16,1.83.74,4.1,1.66,7.07,3,9.08,4.13,16.21,2.51,21.94,1.21,3.3-.75,6.14-1.39,8.77-.87s4.68,2.69,6.66,4.79c3.92,4.15,7.31,7.74,15.19,1.7,1.35-1,2.06-2,2-2.69-.22-1.9-5.09-4.11-9-5.9-5.73-2.61-11.15-5.07-11.63-9.15-.26-2.23,1-4.4,3.89-6.64,2.41-1.88,3.71-3.78,3.87-5.66.25-3.06-2.49-6-4.69-8.39s-3.7-4-2.92-5.91,3.31-2.34,6.93-2.52c9-.45,9.41-2.41,10-5.38.54-2.56,1.27-6.08,6.61-9.07,4.4-2.46,9.29-3.36,14-4.24,7.53-1.39,13.48-2.49,15.42-9.06,3-10.15,7.52-12,9.62-12.3-8.8-14.22-8.6-8.35-18.82-30.06-10.64-22.61-25.94-12.64-33.25-34.59A68.38,68.38,0,0,0,492,192.6c-1,.67-11.17,7.21-16.75,10.21C470.84,205.2,462.44,208.78,455.94,206Z"/><path class="cls-4" d="M559.56,570.33c-17.53-1.44-21.37-2.8-22.61-5-.86-1.49-.16-3,.4-4.15,1-2.12,1.95-4.12-4.15-7.72-9.39-5.54-9.7-9.46-9.11-14.4.38-3.21.75-6.24-4.45-11.06-6.85-6.37-7.25-9.81-7.6-12.85-.29-2.58-.55-4.81-5.27-9.34a28.25,28.25,0,0,1-2-2.14,10.06,10.06,0,0,0,.48,5c1.41,2.9,1.63,5,.68,6.56-.79,1.27-2.27,1.91-4.4,1.91-4.44,0-6.14,3.69-6.8,6.79-.94,4.5-3.15,5.54-5.82,5.54a24.05,24.05,0,0,1-3.57-.37c-.85-.13-1.74-.29-2.65-.45-3.45-.61-7.37-1.3-10.17-.58s-6-1.86-9.07-4.38c-1.89-1.57-4-3.35-5.4-3.58a5.52,5.52,0,0,1-3.95-2.11c-1.1-1.71-.5-3.93.09-6.08.09-.31-.48-1.33-2.22-2.37-3.48-2.08-8.84-2.72-11.93.2-.73.69-17.84,16.79-22.34,15.66-.83-.21-3-1.86-5.84-4.27-2.36,2.17-6.39,6.56-6.7,10.17a4,4,0,0,0,1,3.09l1.37,1.58c2.93,3.36,4.87,5.58,4.64,8.24-.14,1.75-1.2,3.34-3.44,5.17-.78.64-.84,1-.84,1a3.55,3.55,0,0,0,1.37.54c3,.66,8.53-.29,13.5-3.9,1.31-1,3.54-1.78,6.75-.35,7.75,3.45,15.71,17.14,18.78,22.87,5.66,10.6,9.71,21.62,11.09,30.11,4.8-3.22,8.77-4.26,11.84-3.09a7,7,0,0,1,3.66,3.37,5,5,0,0,1,2.79-.67,4.51,4.51,0,0,1,3.41,2.24c1.42,2.15,5.79,1.56,7.36,1.15a1.51,1.51,0,0,1,1.54.49l12.24,14.78a8.35,8.35,0,0,1,5.15.42,6.82,6.82,0,0,1,3.18,3l.23-.07c2.4-.71,3.39-1,4.33-.24s.76,1.75.64,2.94a25.33,25.33,0,0,0-.16,2.72c0,2.85,3.12,5.19,5.29,6.39l6.47-15a1.52,1.52,0,0,1,1.38-.9H538a1.51,1.51,0,0,1,1.46,1.16l3.25,14c.12-.11.24-.22.39-.34,15.29-8,12.63-23.28,12.63-27.93s10.64-7.32,9.31-16c-8.85-15.81-.28-10.59-4.55-18a1.46,1.46,0,0,1-.77.24Z"/><path class="cls-5" d="M394.11,780.64c1.13-.52,1.23-1,1.55-2.47.49-2.27,1.23-5.72,7-10.32,4.72-3.75,6.24-7.67,5.31-9.59-.55-1.15-2-1.54-4-1.07-1.41.33-2.93.83-4.55,1.37-4.52,1.49-9.2,3-12.32,1-1.67-1.13-2.61-3.15-2.8-6-.25-3.76-1.28-6.2-2.88-6.87-1.42-.6-3.52.12-5.62,1.92-4.87,4.17-12.24-.71-16.65-3.62-.65-.44-1.24-.83-1.74-1.13-1.09-.67-1.62-.47-2.88,0a9.31,9.31,0,0,1-7.5.1c-2.52-.94-4.12,0-5.82,1-1.41.84-3.29,2-5.26.77-7.38,2.11-17.34,9.25-17.11,11.68.06.56,1.42,1.57,6.18,1.82,10.68.55,14.55,1.4,16.55,3.66,1.72,1.93,1.56,4.44,1.33,7.93-.06,1-.13,2-.17,3.18l0,.69c-.11,3.38-.19,5.69-.91,7.21,3,3.61,9.42,10.91,12.07,12.58l0,0c1.95-2.84,5.3-5.42,20.43,0,7,2.48,11.52,5.68,13.61,9.52a44.71,44.71,0,0,1-2-8.09C384.46,785.09,389.81,782.62,394.11,780.64Z"/><path class="cls-1" d="M326.92,776c4.57,2.33,10.83,5.53,11.95,4.87.62-.37.72-3.52.81-6.29l0-.7c0-1.2.11-2.29.18-3.28.2-3.12.27-4.79-.58-5.74-1.48-1.67-6.63-2.25-14.47-2.66-2.13-.11-8.61-.44-9-4.52-.51-5.23,11.06-11.8,17.58-14.27-3.27-3.56-5-7.47-6.46-11-2-4.56-3.65-8.5-8.31-10.59-8.77-3.94-6.73-11.5-5.09-17.57.44-1.64.86-3.19,1.1-4.66a12.74,12.74,0,0,1,3.68-7.57,26.48,26.48,0,0,0,5.2-8.4c3.43-8.18,8.64-27.5,10.52-34.65-5.36,1.8-9.75,2.7-13.13,2.7a10,10,0,0,1-5.81-1.46,4.78,4.78,0,0,1-1.87-2.38c-6.54-1.81-12.67-4.46-12.67-12.73a7.17,7.17,0,0,0-9.41-7.06c-2.21,1-4.23-.8-6.18-2.53-1.79-1.57-3.63-3.2-5.36-2.87-1.54.31-3.22,2.24-4.87,5.58a1.51,1.51,0,0,1-1,.79c-4.27,1.11-4.27,2.42-4.26,4.4a10.67,10.67,0,0,1-.11,1.93,2.53,2.53,0,0,1-1.1,1.73c-1.67,1.17-4.67.72-8.71-.05a22,22,0,0,0-2.75-.42c-2.23,0-41.84-16.84-60.14-24.67l-7.45,8.63-.61.69c-1.41,1.59-2.87,3.23-2.5,4.85s2.56,4.16,11,7.61c6.64,2.72,9.73,2.67,10.75,2.52a1.54,1.54,0,0,1,1.73,1,1.61,1.61,0,0,1-.74,1.85c-.65.38-3,2.12-5.61,8.24-1.14,2.67-1.22,3.77-1.2,4.15h0c1,0,3.61-1.28,5.07-2,3.28-1.6,5.88-2.86,7.49-1.54.86.71,1.09,1.9.66,3.52-1.45,5.52-2.39,6.3-4.92,7.26a16,16,0,0,0-4.9,2.84c-2.88,2.3-2.66,2.75-2,4.07a8.47,8.47,0,0,1,.75,6.67c-1.75,6.53-13.29,14.58-21.71,20.46l-2.38,1.66c-2.75,2-2.06,3-.4,5.53,1.56,2.38,3.69,5.64.75,9.65-.5.67-.49.94-.49.95.24.36,2,.87,3.07,1.17,2.58.75,5.79,1.67,6.88,4.41.73,1.84.33,4.08-1.24,6.81-.35,3.45.64,7.39,1.52,10.88.8,3.19,1.49,6,1.25,8.29,2.44,3.35,17.52,23.88,23.45,28.37a1.72,1.72,0,0,1,.27.27c1.57,2,1.14,4.15.86,5.59a4.28,4.28,0,0,0-.16,1.38c.05,0,.83.64,5.78.12.51-.06,1.09-1.41,1.51-2.39.83-1.92,2.08-4.82,5.24-4.25,2.43.44,3.94,2.83,5.69,5.59s3.54,5.58,6.53,7.62a12,12,0,0,0,2.23,1.3c.08-.28.17-.68.24-1a13.36,13.36,0,0,1,2.11-5.26,6,6,0,0,1,7.15-2.23c3.36,1.23,6.52,5.47,6,12.2-.32,4.12,1.3,5,3.54,6.16a11,11,0,0,1,3.18,2.24h17l6.55-6.58a1.49,1.49,0,0,1,1.59-.35l7.28,2.75v-7.33a1.48,1.48,0,0,1,.55-1.16l10.61-8.68a5.79,5.79,0,0,1,2.93-3.23C314.91,771.58,320.07,772.51,326.92,776Z"/><path class="cls-6" d="M358.7,254.91c.61,1.65.25,3.63-1.18,6.64a2.93,2.93,0,0,0-.42,2.17c.43.84,2.7,1.26,4.7,1.63,4.17.77,10.45,1.94,9.6,9a19.8,19.8,0,0,0-.22,4.39l.59-.16a10.63,10.63,0,0,1,2.89-.48,7,7,0,0,1,3.55,1,36.71,36.71,0,0,1,4.19,2.82,14.53,14.53,0,0,0,5.69,2.81,3.88,3.88,0,0,1,2.53,1.79,3.41,3.41,0,0,1-.19,2.83c-.3.75-.46,1.19-.23,1.7.32.73,1.7,2.27,7.28,4.34l3.49,1.31c3.17,1.19,5.81,2.18,7.17,2.52-.16-.57-.42-1.31-.65-2s-.56-1.64-.88-2.63c-2.38-7.56,1.52-9,4.66-10.08a14.64,14.64,0,0,0,3-1.37c1.27-.85,1.89-2.51,2.55-4.28,1-2.75,2.31-6.17,6.7-6.17,5.15,0,8.73-3.64,12.51-9.11,1.61-2.33.8-3.67-1.37-6.74a20.7,20.7,0,0,1-4.19-9c-1-6.52,2.4-7.21,6.74-8.08a41.62,41.62,0,0,0,11.36-3.7c3.83-1.91,6-4.29,6.61-7.28,1-4.67-1.87-11-8.42-18.79a44.19,44.19,0,0,0-5.85-6,15.36,15.36,0,0,1-7.94,7.23c-8.45,3.49-20.54.64-35.93-8.44-15.92-9.4-28-12.06-34.09-7.49-4.65,3.49-4.84,10.34-3.6,15.14,1.83,7,3.21,13.73.14,18.12-2,2.85-5.65,4.49-11.2,5-6.77.65-8.32,2.39-8.64,3.37s-.06,3.72,5.95,9.09a28.66,28.66,0,0,0,7.95,4.88C356,252,358,252.89,358.7,254.91Z"/><path class="cls-4" d="M679.4,732.45c-6-4.66-25.94-14.63-25.28-25.94s-5.32-4.66-9.31-2-5.32,2.66-10,0-17.29-12.64-20-21.29,5.33-5.32,5.33-7.31-4.66-9.31-4-16-2.67-6.65-10.65-6.65,0,0-1.33,6.65-10,10.65-26.6,10a21.33,21.33,0,0,1-8.75-1.82l1.22.9c-.14.19-13.84,19.14-14.69,33.6-.41,6.83-1.78,8.22-3.68,9.44-1.23.79-2.76,1.77-2.76,14.41.25,1,4.88,2.84,7.65,3.93,6.42,2.54,13.7,5.42,13.77,10.69.07,6-4.2,26.4-9.72,28.83a3.11,3.11,0,0,1-3.51-.68,25.47,25.47,0,0,1-3.78-4.91c-1.29-2-2.52-3.91-3.79-4.09-.8-.11-1.84.4-3.12,1.51-2.4,2.07-6.39,2.67-9.91,3.19-2.53.38-6,.9-6.28,1.9-.16.56.1,3,10,11.24a94.93,94.93,0,0,1,13.57,13.75c7,8.46,10.56,12.71,51.48,23.64l-.39,1.45h0s58.53,33.92,63.85,35.25,1.33-34.58,1.33-44.56,3.32-12.63-4-20-9.31-16-14.64-23.28-4-10,6-10,14,0,21.95-6.65S685.38,737.1,679.4,732.45Z"/><path class="cls-3" d="M401.5,640.76a1.52,1.52,0,0,1,.39,1.15c0,.13-1.05,13.31,6.32,21.35,4.85,5.3,4.69,8.85,4.16,10.5a4.15,4.15,0,0,1-3.07,2.9,3.43,3.43,0,0,1-3.32-1.08c-.26-.29-1-1-1.69-.73-1.24.37-2.87,3-3.74,9.25-.28,2-.56,3.87-.84,5.66-1.28,8.39-2.31,15.08-.71,25.22,6.12-.26,13.52-3.49,22-7.18,8.06-3.52,17.19-7.5,26.73-9.41a.59.59,0,0,0,.26-.15c.32-.55-.23-2.52-.63-4-1.06-3.78-2.66-9.49,3.38-11.78,9.25-3.52,9.43-9,9.58-13.85.1-3.29.21-6.7,3.7-8.09a44.69,44.69,0,0,0,12.16-7.3c-.61-.77-2-2.11-3.08-3.24-3.49-3.47-8.26-8.23-9.93-12.83-1.05-2.87-4.06-5.2-7-7.46-3.93-3-8-6.19-6.32-10.65a26.45,26.45,0,0,1,3.51-6.06c2.23-3.15,4.16-5.87,3.29-10.42h0a.53.53,0,0,0,0-.12c-1.85-17.82-18.33-48.57-28.44-53.07-2.3-1-3.4-.23-3.77,0-6.23,4.54-13.89,5.63-17.53,3.85-3.36,1-3.78,3.25-4.3,7.68a25.64,25.64,0,0,1-2.08,8.53c-1.34,2.77.78,8,2.83,13.11,2.74,6.78,5.58,13.79,1.34,17.63-8.51,11.28-9.64,16.94-10.25,20-.4,2-.71,3.52-2.59,4.66a29.26,29.26,0,0,0-12.4,15.4H400.4A1.48,1.48,0,0,1,401.5,640.76Z"/><path class="cls-3" d="M378.9,485.26a1.5,1.5,0,0,1-.26-1.2c2.57-12-1.71-17.47-4-20.42-1.14-1.47-2-2.62-1.51-4s2.06-1.86,4.74-2.35c9.08-1.65,10-8.75,10.07-9.78l-1.09-8.14c-15.94,3.82-36.26-.09-55-10.65a48.67,48.67,0,0,0-3.09,5.79c-2.57,5.4-5,10.5-13,8.3-4.7-1.3-5.78-.79-6-.6-.42.36-.23,2.08-.08,3.45.05.43.09.88.14,1.33a7.69,7.69,0,0,1-4.81,7.7,5.62,5.62,0,0,1-2.09.43,3.54,3.54,0,0,1-2.86-1.29l-.68-.87c-1.74-2.31-2.13-2.48-3.49-1.51-2.36,1.69-5.69.6-7.76-1.35a7.7,7.7,0,0,1-1.26-1.53c-9.43-1.82-11.77-1.28-12.31-1,.26,1.07,2.92,3.73,4.55,5.35,2.1,2.1,4.27,4.27,5.27,6.16,1.92,3.65,1.06,6.73.44,9s-.58,2.52.47,3c1.82.77,3.52,1.45,5.07,2.08,6.66,2.69,10.32,4.17,10.93,6.82a3.84,3.84,0,0,1-1.17,3.47,17.71,17.71,0,0,1-2.81,2.43,10,10,0,0,0-1.19,1,9.49,9.49,0,0,0,2.48,2.37,11,11,0,0,1,3.71,10.46c-.45,2.46-1.66,4.17-3.34,4.7-1.07.33-2.75.32-4.71-1.63l-.09-.11c-3.24-3.95-4.41-3.89-4.41-3.89-.88.69-.77,5.78.19,11.41,1.29-1.14,2.9-2.09,4.42-1.65s2.23,1.76,2.45,4a8.25,8.25,0,0,0,5.73,7h56.2c8.34-9.26,16.38-11.83,22.29-13.72,5.2-1.66,7.75-2.62,8.61-6,.05-.8-1.1-2.21-3.34-5C384.51,492.59,382.11,489.62,378.9,485.26Z"/><path class="cls-4" d="M289.65,441.32a4.12,4.12,0,0,1-.49,3.5c-.81,1.3.68,2.81,1,3.1,1.3,1.22,3.08,1.72,4,1.09,3.91-2.79,6.24.3,7.63,2.14l.62.81c.16.2.73.25,1.49-.06a4.72,4.72,0,0,0,2.94-4.64c0-.43-.09-.86-.13-1.27-.27-2.4-.52-4.67,1.12-6.06s4.06-1.31,8.75,0c5.32,1.47,6.75-1,9.47-6.7a46.28,46.28,0,0,1,4.12-7.37,1.5,1.5,0,0,1,2-.41c18.68,10.83,39,14.87,54.61,10.91.22-1.81.73-4.24,1.34-7.17,2.52-12,6.72-32-1.24-45.58a1.54,1.54,0,0,1-.2-.58c-.83-6.91-4.83-9.63-8.69-12.26a23.09,23.09,0,0,1-5.17-4.27c-1.79-2.19-1.83-4.48-1.87-6.91-.06-3.76-.14-8.44-7.2-15.59a1.83,1.83,0,0,1-.24-.31c-1.3-2.26-2.29-4.34-3.17-6.18-2.69-5.63-4-8.45-9.79-8.21a1.49,1.49,0,0,1-1.55-1.27c-.63-4.14-3.16-6.7-13.46-5.76a1.51,1.51,0,0,1-1.54-1c-.43-1.18-1.35-3.18-2.6-3.3-1.81-.18-4.44,3-5.36,4.46a1.47,1.47,0,0,1-1,.68,1.49,1.49,0,0,1-1.16-.25c-.08-.05-8.65-5.81-32.83-5.81-20.29,0-29.1-2.29-32.91-4.35l0,.06c-.81,2.71.32,5.73,1.32,8.39,1.21,3.2,2.57,6.82-.69,8.86-.38.23-.54.43-.56.52-.08.38.63,1.43,1.1,2.13,1.17,1.72,2.93,4.33,1.09,7.1s-.47,4.4-.21,4.7a13.3,13.3,0,0,1,4,6.42,1.51,1.51,0,0,1-.66,1.54c-4.4,2.87-9.35,6.74-10,8.1.39,1.62,2.07,5.19,5.89,4.85a2.55,2.55,0,0,1,2.33.83c1,1.18.49,2.86-.08,4.8s-1.18,4-.35,5c.67.81,2.51,1.11,5.19.86,3.32-.31,7.26-.34,8.25,2.24s-1.84,5.44-4,7.3c1.72,1.69,4.27,4.8,3.47,7.7-.52,1.89-2.18,3.18-5.06,3.92,1.09,1.86,2.3,4.65,1.49,6.89a4.05,4.05,0,0,1-.75,1.26l6.72,3.2a1.5,1.5,0,0,1,.79.93l2.22,7.53a1.49,1.49,0,0,1-.61,1.68l-3.08,2,4.12,3.58a1.48,1.48,0,0,1,.52,1.13v5.76a1.84,1.84,0,0,1-.07.47L279.31,436h4.14a1.58,1.58,0,0,1,.61.12C284.54,436.37,288.72,438.3,289.65,441.32Z"/><path class="cls-4" d="M197.52,608.71a1.55,1.55,0,0,1,.38.5c22.72,9.72,56.2,23.81,59,24.42a22.84,22.84,0,0,1,3.21.47c1.61.31,5.3,1,6.32.6a12.34,12.34,0,0,0,0-1.25c0-2.84.44-5.53,5.84-7.13,2.05-4,4.24-6.11,6.68-6.59,3.18-.63,5.81,1.7,7.93,3.57.88.78,2.52,2.23,3,2a8.13,8.13,0,0,1,3.3-.65A10.78,10.78,0,0,1,299,626.4a10,10,0,0,1,4.56,8.73c0,5.91,3.73,8,11.08,10,0-2.65-4.42-11.66-7.37-17.75a147.24,147.24,0,0,1-6.63-14.85,68.5,68.5,0,0,0-5-10.77c-2.93-5.45-5.46-10.15-3.87-14.59,3.13-8.79,2.76-12.26,2.33-16.27-.07-.63-.14-1.27-.2-1.94-.35-4-2.24-29.92-1.77-34.64a12.23,12.23,0,0,0-.6-5,10.7,10.7,0,0,0-.48,1.22c-.78,2.35-1.11,7.52-1.41,12.07-.56,8.83-.84,11.64-3,11.95-1.88.27-2.79-2.17-3.33-3.63-.12-.31-.33-.88-.56-1.46a3.9,3.9,0,0,1-2.06,1.23c-2.15.51-4.91-.59-8.67-3.49-2.14-1.64-3.86-2.29-5-1.89-1.77.65-2.5,4.07-2.94,6.11-.37,1.76-.67,3.15-2.11,3.2s-2-1.65-2.67-3.81c-1.91-6.59-5.65-8.95-6.75-9.52a4.75,4.75,0,0,0-1.48-.52c.06.1.14.23.24.37,2.39,3.29,4.06,9.81,1.59,11.63s-5.64-2.28-6.66-3.64c-.39-.51-.7-.91-1-1.22,0,0,0,.08,0,.12-.39,3.06-1.11,8.76-7.06,10.92-1.35.49-1.66.95-1.67,1,0,.4,1,1.45,1.93,2a1.5,1.5,0,0,1-.78,2.79h-6.57L224.52,570a1.5,1.5,0,0,1-2.31-.61c-.81-1.94-1.36-3.1-1.73-3.79l-.16.37c-1.07,2.5-3,7.17-8.56,7.67-5.86.53-10.8,5-12.65,9.18-.6,1.35-1.4,3.89,0,5.72.72,1,1.77,2.17,2.88,3.44,4,4.56,7.73,8.87,6.14,11.83-1.22,2.28-4.76,2.09-7.32,1.74-4.21-.56-5.39,0-5.63.11A7.82,7.82,0,0,0,197.52,608.71Z"/><path class="cls-6" d="M502.26,500.22a19.2,19.2,0,0,1-2.07-7.46c-.48-3.88-1-8.28-6.87-15.81-4.82-6.21-7.25-6.27-9.39-6.32-4.27-.09-6.44-1.48-10.8-15.06-2.6-8.08-3.16-12.53-1.83-15.21-6.39-.12-18.52-.54-26.41-2.07-11.76-2.28-20.07-3.58-28.06-.92-7.12,2.36-21.34,2.07-27,1.84l1.08,8.05a2.18,2.18,0,0,1,0,.25c0,.11-.51,10.55-12.54,12.73a15.27,15.27,0,0,0-2.17.52c.21.3.52.69.78,1,2.38,3,7.28,9.34,4.73,22.23,3,4,5.21,6.79,6.88,8.84,2.6,3.21,3.88,4.8,4,6.51,11.06,10.59,23.61,22.06,25.77,23.1,2.09-.16,11.69-7.47,19.57-14.91,4.21-4,11-3.31,15.53-.59,2.77,1.65,4.1,3.8,3.58,5.73-.34,1.23-.85,3.08-.47,3.68.13.18.53.53,1.93.77,2.16.36,4.42,2.24,6.82,4.23,2.22,1.84,5,4.15,6.4,3.77,3.43-.88,7.69-.13,11.45.53.88.16,1.74.31,2.58.44,4.33.67,5.24.81,6-2.82,1.22-5.82,4.77-9.17,9.73-9.17,1,0,1.66-.19,1.86-.5.09-.14.46-1-.84-3.66C501,506.79,501.86,502,502.26,500.22Z"/><path class="cls-1" d="M493.34,408.2c-4.91-4-9.16-7.53-8.75-11.76.86-9-1.29-16.07-5.34-17.51-5.09-1.8-4.22-17.34-3.35-25.86l-.74.17c-5.84,1.32-13.84,3.14-23.84-1.4-2.91-1.33-5.16-2.24-7-3-7.13-2.9-7.42-3.23-10.13-12.06l-.57-1.86a42.64,42.64,0,0,1-2-12.66c-.1-3.33-.12-4.23-2.51-5.38-5.31-2.56-17.48-12.34-20.19-14.54-1.49,0-4-.95-9-2.84l-3.48-1.3c-5.19-1.93-8-3.82-9-5.94a4.85,4.85,0,0,1,.18-4l.16-.42a4.28,4.28,0,0,0-.59-.23,17,17,0,0,1-6.62-3.28,35.18,35.18,0,0,0-3.9-2.62,4.77,4.77,0,0,0-4.12-.2c-1,.29-2.34.65-3.38-.25s-1.31-2.72-.77-7.23c.47-3.88-1.94-4.76-7.16-5.73-2.29-.42-4.47-.84-5.85-2a6.83,6.83,0,0,0-5.29,7.82c.88,8.33-1.2,18-3.73,22.55-1,1.85-1.31,2.83-1.07,3.62.38,1.24,2.29,2.71,5.85,4.51a11.5,11.5,0,0,1,6.43,12.66,8,8,0,0,1,3.23,5.16c.26,2.11-.54,4.23-2.36,6.33,1.87,1.81,3.12,4.38,4.5,7.27.83,1.74,1.77,3.71,3,5.81,7.77,7.93,7.86,13.46,7.93,17.51,0,2.14.06,3.68,1.19,5.07a21.45,21.45,0,0,0,4.53,3.68c4,2.69,8.87,6,10,14.07,8.35,14.59,4,35.14,1.44,47.45-.55,2.6-1,4.78-1.23,6.4,5.35.21,19.47.53,26.14-1.68,9.33-3.1,19.62-1.1,29.57.83,10.6,2,29.85,2.09,30.09,2h0a33.83,33.83,0,0,1,7.12-.13,57.91,57.91,0,0,0,15.94-.93c4.22-.93,7.08-1.14,9.07-.75C510.34,422.19,501,414.46,493.34,408.2Z"/><text class="cls-7" transform="translate(318.5 891.53)">سراف جیلخ</text><path class="cls-6" d="M309.25,821.8a1.48,1.48,0,0,1-.46-1.24,1.46,1.46,0,0,1,.7-1.13c1.84-1.13,2.08-1.79,2.1-2,.07-.83-1.73-2.39-3.47-3.9-3.74-3.25-9.32-8.11-10.51-16.6L290,794.05l-6.3,6.34a1.5,1.5,0,0,1-1.06.44l-19.48-.47h0a5.89,5.89,0,0,0-2.72-2.13c-2.36-1.25-5.6-3-5.12-9,.4-5.16-1.73-8.31-4-9.15a3,3,0,0,0-3.68,1.16,10.68,10.68,0,0,0-1.62,4.15c-.3,1.36-.6,2.75-1.93,3.28s-3-.26-5.17-1.75c-3.49-2.39-5.64-5.77-7.36-8.48-1.32-2.08-2.56-4-3.7-4.25-.65-.11-1,.37-1.94,2.49-.76,1.75-1.7,3.93-3.94,4.18-4.82.5-7.16.19-8.35-1.12s-.79-2.72-.54-4,.38-2.21-.17-3c-5.85-4.59-18.73-21.83-22.92-27.53-1.43,1.06-3.67.78-5.86.51a29.69,29.69,0,0,0-11.62.37c-2.6.65-3.17,1.35-3.29,1.63-.25.54.33,1.64.83,2.61.93,1.78,2.65,5.09-1.19,7.15-2,1.1-2,1.54-1.63,3.35a10.91,10.91,0,0,1-1.32,8.39c-.61,1.07-2.48,4.32-5.29,4s-4.35-4.18-5-6.44a5.68,5.68,0,0,0-3.36-2.86,5.84,5.84,0,0,0,.45,1.93c1.39,3.79,1.29,6.62-.3,8.41a5.67,5.67,0,0,1-3.64,1.75c2.8,1.15,6.37,2,10.51,3.66,10,4,29.93,37.91,31.93,47.89s-8,13.3-6,16,12-2,12,23.94,31.26,23.94,31.26,23.94l-.55-1.39c6.62-2.65,10.58.16,14.41,2.88,2.57,1.83,5.23,3.72,9,4.35,2,.33,2.4,0,2.41,0,.18-.37-.28-2.12-.58-3.27-.93-3.52-2.32-8.83,1.41-13.5.49-.62,1-1.21,1.45-1.79a47.1,47.1,0,0,0,4.84-6.68h0c4.64-.67,17.57-1.88,28,2a25.49,25.49,0,0,0,6.78,1.58l3.26-.06a12.68,12.68,0,0,0,5.92-2.23c5.07-3.63,7.59-11.39,7.28-22.45V848l-.54-.59.08-.05.46.64c.17-8.26,2.18-12.13,3.56-14.77C317.27,830.13,317.57,829.56,309.25,821.8Z"/><path class="cls-6" d="M456.11,735.21l-.64,2c-10.72-3.46-13.6-2.54-15.11-1-2.19,2.2-8.75,4.75-13.42,4.75a8.14,8.14,0,0,1-2.78-.41,4.39,4.39,0,0,1-2.69-2.9c-.39-1-.83-2.11-8.22-.38-4.89,1.15-7.2,1-8.24-.56-1.32-2,.59-4.63,3.23-8.3,1.11-1.54,2.36-3.28,3.38-5,2.81-4.76,1.67-7.58.87-8.75-5.2,2-9.94,3.37-14.27,3.37h-.52a1.5,1.5,0,0,1-1.44-1.24c-2-11.34-.89-18.44.49-27.44.27-1.78.55-3.63.83-5.62,1-6.89,2.92-10.83,5.85-11.71a4.6,4.6,0,0,1,4.8,1.61.46.46,0,0,0,.46.14,1.2,1.2,0,0,0,.82-.89c.21-.65.57-3.1-3.51-7.55-6.72-7.33-7.24-18-7.17-22H363a4.67,4.67,0,0,1-1.16,1.58c-4.47,4.09-19.7,3.62-24.46,3.37-1.41,5.41-7.22,27.4-11.07,36.58a29.08,29.08,0,0,1-5.71,9.23,9.74,9.74,0,0,0-3,6.06,50.77,50.77,0,0,1-1.17,5c-1.87,6.94-2.57,11.36,3.43,14.05,5.73,2.57,7.73,7.22,9.84,12.14,1.72,4,3.5,8.16,7.5,11.72.46.4.65.46,2.43-.6s4.54-2.7,8.41-1.26a6.32,6.32,0,0,0,5.36-.08,5.51,5.51,0,0,1,5.53.21c.53.32,1.15.73,1.84,1.18,3.7,2.45,9.89,6.55,13,3.85s6.21-3.47,8.74-2.41c1.92.81,4.29,3.1,4.71,9.44.13,1.89.63,3.14,1.49,3.72,1.9,1.27,6-.1,9.7-1.31,1.61-.53,3.27-1.08,4.8-1.44,3.4-.8,6.24.23,7.42,2.68,1.35,2.78.55,7.92-6.14,13.25-4.94,3.93-5.49,6.52-5.94,8.6-.36,1.68-.74,3.41-3.22,4.56-4.27,2-7.64,3.52-6.46,12.07a42.25,42.25,0,0,0,1.87,7.63c1.15,3.58,2.06,6.47-1.2,9.08l-3.44-2.31a7.12,7.12,0,0,0-.16-2.73c-1-3.86-5.41-7.27-12.69-9.87-14.21-5.07-16.06-2.39-17-1.1a2.6,2.6,0,0,1-3.93,1c-3.29-2-10.47-10.35-12.92-13.28-2.34.59-5.94-1.06-13.93-5.15-7.73-3.95-11.21-3.43-12.59-2.78a2.93,2.93,0,0,0-1.23,1,116.4,116.4,0,0,0,20.87,14.38c2.5,1.37,3.67,2,4.18,2.24.32.16,1.18.61,1.18,1.5,1.43,1.4,6.9,6,27.63,20.63a22.88,22.88,0,0,0,3.75,2.31c.24-1,1-3.2,4.39-2.56a23.33,23.33,0,0,0,9.12-.61l3.64,2.37c-.25,3,.51,6.82,1.22,10.4.33,1.68.65,3.26.86,4.73.37,2.62-.46,5.28-1.19,7.63-.35,1.13-1.08,3.47-.74,3.82,0,0,.84.79,6.37-.71,13-3.54,38.24-3.24,44.78-3.09V797a1.59,1.59,0,0,1,.27-.86l5.05-7.26V753.73a1.53,1.53,0,0,1,.56-1.17L457,741.88Z"/></svg>