<?xml version="1.0" encoding="utf-8"?>
<!-- Generator: Adobe Illustrator 24.0.1, SVG Export Plug-In . SVG Version: 6.00 Build 0)  -->
<svg version="1.1" id="Layer_1" xmlns="http://www.w3.org/2000/svg" xmlns:xlink="http://www.w3.org/1999/xlink" x="0px" y="0px"
	 viewBox="0 0 729.5 1000" style="enable-background:new 0 0 729.5 1000;" xml:space="preserve">
<style type="text/css">
	.st0{fill:#A8ECFC;}
	.st1{fill:#19BFE8;}
	.st2{fill:#046F8B;}
	.st3{fill:#04708B;}
	.st4{fill:#A6EBFC;}
	.st5{fill:#3299B4;}
	.st6{fill:#75DEF7;}
	.st7{fill:#A9ECFD;}
	.st8{fill:#07728D;}
	.st9{fill:#A4ECFC;}
	.st10{fill:#A7ECFC;}
	.st11{fill:#01FDF0;}
</style>
<path id="XMLID_35_" class="st0" d="M413.4,59.3c0.6,0.5,1.1,1,1.7,1.5c0.3,6.2,4.7,6.5,8.8,5.3c3.6-1.1,6.2,0.2,9.2,1.3
	c6.5,2.4,7.4,5,0.6,8.1c-3.1,1.5-2.9,3.4-1.2,5.6c1.4,1.8,3.1,4.1,5.8,2c1.9-1.4,4-2.9,5.1-4.9c3.8-7,9.3-8.9,16.6-6.4
	c1.1,1.2,2.2,2.4,3.3,3.6c0,2.8,0,5.5,3.9,5.4c1.4,0.8,1.6,2.1,1.7,3.5c-1.1,0.6-1.6,1.2-0.1,1.9l0-0.1c0.3,3.5,1.4,5.6,5.6,4.5
	c2.8-0.7,5.8-0.6,8.8-0.9l0-0.1c0.6,7,2.7,13.6,2.7,20.8c0,5,1.2,11.5,8.1,13.3l-0.1-0.1c-1.2,5.9,5.4,8.2,6,13.2l-0.1-0.1
	c-1.2,0-1.9,0.6-2,1.7l0.1-0.1c-0.7,0.5-1.4,1.1-2.1,1.6c-2,1.7-4,3.5-6.1,5.1c-12,9-19.3,7.4-26.3-5.7c-2.3-4.2-4.4-8.4-7.9-11.8
	c-3.4-3.3-6.9-1.6-9.8,0c-3.9,2.1-0.2,4.6,0.6,6.6c2.6,6,5.9,11.6,10.4,16.3c-6-0.9-11.4,3.1-17.5,1.8c-14.3-3-29.5-2.7-42.2-11.7
	c-3.4-2.4-7.4-4-11.3-5.4c-7.9-2.9-14.5,0.1-20.6,5.2c-5.4,4.5-6.7,9.7-4.5,16.7c2.9,9.2-4.6,19.6-15.2,22.3
	c-2.9,0.2-6.6-1.4-7.4,3.4c-12,0.7-20.2,7.2-27,16.5c-8.5,11.7-20.6,18-34.4,21c-5.4,1.2-9.1,2.4-8.5,8.7c0.3,3.1-0.1,6.7-3.6,7.3
	c-11.1,2-10.8,11-12.3,18.8c-1.8,10,1.4,13.6,11.7,13.7c8.3,0,16.7-0.1,25,0c2.8,0,6.1-1,8.1,2.2c-13.7-1.8-27.4,1.6-41,0.3
	c-6.8-0.6-5.9,1.4-5.2,6.1c1.1,7.2,3,14.4,1.4,21.7c-2.5,0.1-5.1,0.1-7.6,0.2l0,0c-0.4-3.7-1.5-6.4-6-4c-0.4-0.2-0.7-0.5-0.8-0.9
	c1.1-4.6,7.2-10.9-3.8-11.5c-0.3-0.3-0.5-0.7-0.5-1.1c-0.1-3.1,2.1-7.2-3.7-7.6c-0.5,0-0.9-0.2-1.3-0.5c-3.9-4.2-9.8-4.4-14.5-6.9
	l0,0c0.1-2.7,0.1-5.3-3.7-5.4c-0.5-0.6-1.1-1.2-1.6-1.8c0-1.6-0.4-2.9-2.3-3.2l0.2-0.4l-0.2,0.4c-0.5-0.7-1-1.4-1.5-2.1
	c-3.9-5.3-5.8-11.4-7.2-17.7c0.1-1.6-0.1-3.1-2.1-3.5l0.1,0.1c0-1.1-0.6-1.8-1.7-1.9l0.4-0.4l-0.3,0.4c-0.4-0.7-0.9-1.5-1.3-2.2
	c-1.8-1.8-3.7-3.6-5.5-5.4c-0.8-0.5-1.6-1-2.4-1.4c-0.4,0-0.8-0.1-1.2-0.4c-0.4-2.4,0.7-5.2-1.8-7.1c3.2-14.6,6.6-29.1,20.1-38.2
	c0.6-0.4,1-1.5,1.1-2.3c0.1-3.1,0.3-5.9,4.5-6.3c4.2-0.3,5.4,2.8,7.4,5.3c2.8,3.4,6,13.5,9-0.1c0.2-1.1,2.9-1.8,4.5-2.5
	c9.6-4,12.9-10,7.5-19.2c-6.6-11.3-7.4-22.9-6.7-35.2c3.5-1.2,2.6-4.2,2.7-6.7c0.2-4.2,3.5-6.4,6.4-5.5c4.2,1.4,8-1.4,12,0.4
	c4.3,2,4.9-1.1,5-4.4c1-3,4.5-2.6,6.2-4.3c3.7-3.7,11.1-1.6,12.5-8.2c1.3-6.1,5.3-5.9,9.9-4.9c1.6,3.7,4.4,4.1,5.1,0.2
	c1-6.6,6.1-6.5,10.4-7.9c3.1-1,6.6-1,9.4-2.4c2.9-1.4,0.7-2.6-1-3.2c-2.2-2.6-4.6-5-4.2-8.8c2.7-3.2,3.5-5.9-1.7-7.2
	c-0.6-0.6-1.2-1.1-1.8-1.7c-1.2-5.5,7.1-6.9,5.4-12.6l0,0c1.4-0.3,3.4-0.1,4.1-1c8.2-9.2,12.1-9,18.7,2c1.9,3.2,4.1,4.7,7.8,4.3
	c0,0,0-0.1,0-0.1c-0.4,7.7,4.4,8.4,9.9,6.6c12.3-4.1,25.1-4.2,36.4,0.6C392.8,56.4,401.6,63.2,413.4,59.3z"/>
<path id="XMLID_34_" class="st1" d="M594.7,272.4c0.2,0.5,0.4,1,0.5,1.5c1.8,9.1,1.5,19,10.3,25.3c0,0,0,0,0,0
	c1.1,5.8,5.5,8.8,10.3,11.1c0.6,0.6,1.2,1.2,1.8,1.8c3.3,5.7,8.1,8.6,14.7,8.5c0,0,0,0,0,0c4.2,6.6,10.2,10.7,17.9,12.5
	c0,0,0.1,0.1,0.1,0.1c0,4.7,2.5,8.8,5.2,11.9c5.4,6,3.1,15.9,11.1,20.2c1.2,1.2,2.4,2.5,3.6,3.7c0.3,3.2-3.4,7-0.8,9.1
	c6.5,5.5,5.9,13.8,9.2,20.5c1.3,2.7,2.5,4.6,5.6,4.7l0,0c0.3,3.3,2,5.2,5.5,5.2c1.2,1.2,2.4,2.4,3.6,3.6c-1.2,10.3,0.1,19.9,9,26.8
	c0,0,0.1,0,0.1,0c0.6,3.2,1.2,6.3,1.8,9.5c0,0-0.1,0.1-0.1,0.1c-5.1,0.3-8.2,3.1-11.3,7c-7.2,9.1-8.7,20.1-11.9,30.6
	c-0.6,0.7-1.1,1.4-1.7,2c-3,0.5-4.8,2.3-5.4,5.2c0,0-0.1,0.1-0.1,0.1c-2.8-0.4-4.7,0.5-5.4,3.4c0,0,0,0,0,0
	c-2.8-0.5-4.6,0.8-5.5,3.4l0,0c-4.3,0.4-8.5,3.9-12.8-0.1l0.1,0.1c0.2-2.1,0.5-4.2-1.7-5.6c0-1.5,0-3-1.9-3.4l0,0.1
	c0.3-1.7-0.1-3-1.9-3.6l0.1,0.1c-1.4-3.2-3.9-4.2-7.2-3.7l0.1,0c0-1.2-0.8-1.7-1.9-1.8l0.1,0.1c-0.6-1.8-1.9-2.2-3.6-1.9l0,0
	c0.1-1.3-0.6-1.9-1.8-1.8l0,0c0.4-1.7,0-3-1.9-3.6l0,0.1c0-2.4-1-3.8-3.6-3.6l0.1,0c0-1.2-0.6-1.9-1.8-1.9l0,0.1
	c0.3-1.7-0.1-3-1.9-3.6l0.1,0.1c-0.6-0.6-1.2-1.3-1.8-1.9l0.1,0.1c0.1-1.6,0.1-3.1-1.9-3.7l0.1,0.1c-4.8-14.3-9.6-28.6-14.5-42.9
	c-0.6-1.7-1.5-3.3-3.5-3.7l0.1,0.1c-0.4-1.8-1.4-3.3-3.4-3.2c-1.9,0.1-2.1,1.6-1.9,3.1l0,0c-1.3-0.1-1.9,0.6-1.8,1.8l0,0
	c-1.3-0.1-1.9,0.6-1.8,1.8l0,0c-1.7-0.4-3.1,0-3.6,1.8l0.1-0.1c-1.1,0.1-1.8,0.6-1.9,1.8l0.1-0.1c-4.2,0-8.5,0-12.7,0l0.1,0.1
	c-0.5-2-2-2.1-3.7-1.8l0.1,0c0-1.2-0.7-1.7-1.9-1.8l0,0c-0.1-1.1-0.7-1.7-1.8-1.8l0,0c-0.6-0.6-1.2-1.2-1.8-1.8l0.1,0.1
	c-4.3-6.2-7.6-4.4-10.4,1.4c-14.3,11.1-14.3,11.1-23.8,3.7c0-1.4,0.1-2.9-1.8-3.4l0.1,0.1c-0.2-2.4-0.3-4.8-0.5-7.2
	c0.3-1.5,0.1-2.8-1.3-3.6c0-2,0.2-4.1-1.9-5.3c-0.1-2.4-1.2-4.2-3.6-5.1c-2.2-3.3-3.7-7.2-7.7-9.1c-1.5-3.1-3.7-5.5-6.6-7.4
	c-4.9-9-2.2-21.2-11.9-28.3c-1-0.7-0.8-3.3-0.8-5.1c0-6.2,0.2-12.4,0.3-18.6c2.7-1.7,5.7-2.1,8.8-1.9l-0.1,0c0.6,1.9,2,2.1,3.6,1.9
	l-0.1-0.1c0.1,1.2,0.7,1.8,1.9,1.9l-0.1-0.1c3.5,4.1,14.7,5.8,17.4,2.2c2-2.8,5.7-7.2-1.3-9.2l0,0c0-1.2-0.8-1.7-1.9-1.8l0.1,0.1
	c-0.9-2.5-2.9-3.6-5.4-3.6l0.1,0c-4.6-4.5-6.2-10-5.4-16.3l0,0.1c3.2-3.1,4.8-7.1,2.3-10.9c-3.4-5.3-0.2-7.8,3.1-10.7l-0.1,0.1
	c0.6-0.6,1.2-1.2,1.8-1.8l-0.1,0.1c4.1-3.7,11.5-4.7,10.8-12.6l0,0c8.6-1.5,18-0.7,25.2-7.2l-0.1,0.1c6.1,0.1,9-3,9-9l0,0.1
	c4.2-1.8,3.7-5.5,3.6-9l-0.1,0.1c0.6-0.5,1.3-1,1.9-1.5c5.4-1.1,4.9,6.3,9.3,6.5c0.6,0.7,1.1,1.3,1.7,2
	C584.6,254.7,587,264.9,594.7,272.4z"/>
<path id="XMLID_33_" class="st2" d="M181.9,230.8c0.4,0.3,0.7,0.4,1.2,0.4c0.8,0.5,1.6,1,2.4,1.4c1.8,1.8,3.7,3.6,5.5,5.4
	c0.4,0.7,0.9,1.5,1.3,2.2l0.3-0.4c0,0-0.4,0.4-0.4,0.4c0.6,0.6,1.2,1.3,1.7,1.9c0,0-0.1-0.1-0.1-0.1c0.2,1.5,0.6,2.8,2.1,3.5
	c1.4,6.3,3.3,12.4,7.2,17.7c0.5,0.7,1,1.4,1.5,2.1l0.2-0.4c0,0-0.2,0.4-0.2,0.4c0.2,1.4,0.8,2.7,2.3,3.2c0.5,0.6,1.1,1.2,1.6,1.8
	c0.4,2.4,1.4,4.3,3.7,5.4c0,0,0,0,0,0c1.3,9.8,9.6,4.7,14.5,6.9c0.4,0.3,0.8,0.4,1.3,0.5c1.2,2.5,2.4,5,3.7,7.6
	c0,0.4,0.2,0.8,0.5,1.1c-0.8,2.3,4.3,3.5,1.3,6c-6.6,5.3,0.2,4.4,2.5,5.6c0.1,0.4,0.4,0.7,0.8,0.9c1.2,2.5,3.7,3,6,4c0,0,0,0,0,0
	c2.3,4.6,9.7,5.5,9.1,12.3l0.1,0c-0.6,0.6-1.2,1.2-1.9,1.8l0,0c-4.8,3.2-13.1,5.4-3.6,12.7l0,0c2.5,2.5,9.3,2,5.8,8.8
	c-0.6,1.2,1.6,2.8,3.3,3.4c1.7,3.2,5.1-1.3,6.9,1.5c-4.8,6.1-4.8,6.1,1.7,14.2c-4.3,1.6-7.4,2.6-4.5,9.1c1.4,3.1,5.4,12.5-4.3,14.9
	c-0.6-0.1-1.1,0-1.7,0.3c-6.8,0.3-13.6,0.5-20.3-1.1c-3-0.7-5.2-0.2-6.9,2.4c-3,5-6.7,8.6-13.1,9c-5,0.3-10,1.4-15,2.1
	c-2.6,0.3-5.6-0.2-6,3.7c-3,0.1-6,0.1-9,0.2c-9.6,0.5-18.3-0.2-19.4-12.6c-1.5-3-3-6.1-4.5-9.1c-1.4-7.5-6.4-11.5-13.3-12.6
	c-8.3-1.3-15-4-17.9-12.5l0,0c0.3-1.7-0.1-3.1-1.8-3.9c-3.9-11.2-8.3-22.1-16.1-31.4c0-1.3-0.1-2.5-1.9-2.5l0.1,0.1
	c0.7-1.9,0-3.1-1.8-3.6l0,0c-0.1-1.1-0.4-2.1-1.8-1.9l0.1,0.1c0.6-1.8-0.2-2.9-1.9-3.6l0,0.1c-0.6-0.9-1.3-1.7-1.9-2.6
	c-0.1-0.5-0.4-0.8-0.9-1c-4.7-7.3-7.3-2.8-9.9,1.7l0.1-0.1c-0.3,0.5-0.7,1-1,1.6c-2.9,0.9-4.8,3.1-6.4,5.6c-2.4,0.3-5.2,0-5.3,3.6
	l0.1,0c-1.3-0.1-2.2,0.3-1.9,1.9l0.1-0.1c-1.9-0.8-3,0.1-3.6,1.9l0,0c-2.7,0.9-5.3,1.9-5.4,5.4l0.1,0c-3.1-0.7-4.3,1.4-5.4,3.7
	l0.1-0.1c-1.2,0.7-2.4,1.3-3.5,2c-8.1-0.4-13.5-5.2-15.8-12.3c-3.7-11.8-7.8-23.1-16.2-32.4c-0.5-0.6,0.1-2.3,0.2-3.5
	c4.1-2.4,8.2-4.9,12.2-7.3c2,0,4.3,0.6,5.3-2l-0.1,0c1.6,0.1,3-0.2,3.6-1.9c0,0-0.1,0-0.1,0c1.6,0,2.8-0.4,3.5-2l0,0
	c2.5-0.1,4.5-1,5.6-3.4l0,0c3.8-0.5,7-2,9-5.4l0,0c1.2,0.1,1.9-0.4,2-1.7l0,0.1c4.8-0.4,6-3.2,5.2-7.4l0,0c1.8-0.7,3.1-1.8,3.5-3.7
	l0,0c1.9-0.4,3.2-1.5,3.7-3.5l0,0c1.7-0.1,2.4-1.2,2.7-2.6c0,0,0.2-0.2,0.2-0.2c2-0.7,2.9-2.1,2.8-4.2c0,0,0,0,0,0
	c1.2,0,1.9-0.5,1.9-1.8l-0.1,0.1c6.6-0.5,11.4-4.6,16.5-8.3c1.9-1.4,4.1-3.9,1.6-5.9c-5.6-4.5-1.5-9.7-1.8-14.6l-0.1,0.1
	c3.5-1.5,6.9-3.6,10.6-4.2c7.6-1.4,9.4-5.6,9.2-13c-0.3-10.5-3.6-20.9-1.3-32.7c3.1,3.2,5.8,7.4,10,3c3,0.3,5.3,4.1,9,1.2
	c1.9-1.6,2.6,0.1,3.5,2c6.2,12.2,3.7,25.1,2.9,37.7c-0.2,2.6-1.9,5.4,0.8,7.2c3,2,6.8,1.3,8.9-1.4c4.4-5.6,6.7-2.8,8.7,1.7
	c1,2.2,1.5,4.5,3.8,5.7l-0.1-0.1c0.4,2.3,1.2,4.4,3.6,5.4l0-0.1C172.8,228.1,177.4,229.4,181.9,230.8z"/>
<path id="XMLID_32_" class="st1" d="M298.3,47.3c0.6,0.6,1.2,1.1,1.8,1.7c0.8,2.3-0.7,5.2,1.7,7.2c-0.4,3.8,2.1,6.3,4.2,8.8
	c-1.7,2.3-4.2,1.5-6.5,1.9c-7.3,1.5-14.3,3.4-17.4,11.3c-4.6-1-8.6-1.2-9.9,4.9c-1.4,6.6-8.8,4.5-12.5,8.2c-1.6,1.7-5.1,1.3-6.2,4.3
	c-3.2,2.5-4.9-3-6.7-1.8c-3.7,2.3-6.7,4-10.4,0.2c-0.1-0.1-1.7,1.2-2.7,1.8c-6,3.8-8.1,9.1-6.3,15.9c-0.7,12.3,0.1,23.9,6.7,35.2
	c5.4,9.2,2.1,15.3-7.5,19.2c-1.6,0.7-4.3,1.4-4.5,2.5c-2.9,13.6-6.2,3.5-9,0.1c-2-2.5-3.2-5.7-7.4-5.3c-4.2,0.3-4.4,3.1-4.5,6.3
	c0,0.8-0.5,1.9-1.1,2.3c-13.5,9.2-16.9,23.7-20.1,38.2c-2.7,0.6-4.9-0.8-7.3-1.8c0,0,0,0.1,0,0.1c0.2-2.8,0.3-5.4-3.6-5.4
	c0,0,0.1,0.1,0.1,0.1c-0.3-5.1-1.1-9.8-6-13c-5.8-3.7-6.8,2.2-9.7,4.3c-2,1.4-4.5,0.1-3.5-1.4c4.5-6.6-1.7-13.2,0.9-20.2
	c3.1-8.4-0.9-16.8-4.7-24.5c-3-6.1-9,1.3-12.8-2.3c-0.3-0.3-1.1-0.1-1.7-0.1c-3.5-3.3-10-0.5-12.4-5.8c-1.9-4.3-5.2-5.6-9.3-5.1
	c-9.9,1.2-8.1-8-9.7-12.4c-1.7-4.7,3.7-6.2,8.4-5.8c3.4,0.3,6.3-0.3,4.2-4.9c-4.1-8.7-2.5-11.5,7.2-12.9c1.8-0.3,3.5-0.7,5.3-0.8
	c14.4-0.3,18.6-6.3,11.8-18.4c-3.5-6.2-1-12.1-1.1-18c-0.1-4.5,5.3,1.2,7-2.1c0.5-1,1.1-2,1.6-3c0,0,0.2-0.2,0.2-0.2
	c5.6-2.7,2.3-7.4,2.7-11.3c0,0,0,0,0,0c3.2-0.8,4.9-3.1,5.6-6.2c0.5-2.2,1.8-4.7,4-4c10.7,3.5,12.7-5.8,17.2-11.3c0,0,0,0,0,0
	c3.2,0.2,5.2-1.3,6.1-4.4c0,0,0.2-0.3,0.2-0.3c4.6-2.4,2.8-6.2,2.2-9.8c0.1-1.7,0.1-3.3,0.2-5c2.5-1.4,6-0.9,7.7-4
	c2.5,0.2,4.7-0.5,6.8-2c14.6-4.2,29.2-4.3,43.8,0c2,1.6,4.3,2.1,6.8,1.9c1.3,2.7,3.4,2.5,5.8,1.7c2,0.5,4.1,1.1,6.1,1.6
	c1.8,3.2,5.4,3.6,8.3,4.2c10.8,2.2,20.3,6.8,28.2,14.5l0,0c-0.1,5.6,7.3,7,7.1,12.7c0,0,0,0,0,0c-2.2,1.5-4.3,3-6.5,4.3
	C291.6,42.6,293.3,45.1,298.3,47.3z"/>
<path id="XMLID_31_" class="st1" d="M681,873.6c-1.1-0.7-2.3-1.3-3.4-2c-1.8-3.8-5.1-5-9.1-5.2c0,0,0,0,0,0
	c-3.5-5.3-8.4-8.7-14.3-10.7c0,0,0,0,0,0c-0.6-2.9-2.6-3.8-5.3-3.7c0,0,0,0,0,0c-2.5-6.6-7.9-8-14.2-7.5c-9.2-4.1-18.5-8-28.8-8.8
	l0.1,0c-1.8-2.9-4.6-2-7.2-1.9l0.1,0.1c-3.7-4.7-9.1-6.8-14.4-9l0.1,0c-0.6-0.6-1.2-1.2-1.8-1.8l0.1,0.1c-0.6-0.6-1.2-1.2-1.8-1.8
	l0.1,0.1c-0.6-1.8-1.9-2.2-3.6-1.9l0.1,0c0-1.2-0.6-1.8-1.9-1.9l0.1,0.1c0.3-2.7-0.9-3.9-3.6-3.6l0.1,0.1c0-1.2-0.7-1.8-1.9-1.9
	l0,0.1c0.4-2.9-1.1-4.5-3.7-5.4l0,0.1c0.2-3.1-2.1-4.7-3.8-6.6c-3.5-3.9-3.9-7.6,0.6-11.1c1.8-0.2,3.8,0.2,5.3-0.5
	c8.1-3.6,15.6-5.5,21.3,4c1.3,2.2,3.1,0.5,3.9-1.3c3.9-8.3,7.9-17.2,7.6-26.1c-0.2-6-9.2-7.2-14.4-10.4c-2-1.2-4-2.5-6-3.7
	c-0.1-5.3-0.9-10.8,1.7-15.5c4.8-8.6,3.5-18.7,7-27.6c2.7-5.8,5.3-11.6,8-17.5c3.6-6.4,7.7-6.5,12.5-1.2c0.5,0.6,2.2,0.2,3.3,0.2
	c0.9,0,1.8,0,2.6,0c7.2,0.9,13.7,0,18.1-6.7c0.6-0.6,1.2-1.2,1.8-1.8c3.6-1.1,5.7-3.2,5-7.3c0.1-1.1,0.3-2.1,0.4-3.2
	c8-0.8,11.3,2.6,11.2,10.8c-0.1,8.7,5.5,16.9,1.7,26c-0.8,1.9,1.2,3.8,3.7,4.1c0,0,0,0,0,0c1.6,4.2,4.6,6.5,9,7.1
	c1.9,1.7,3.8,3.5,5.6,5.2c2.2,5.9,5.3,6.7,10.7,3c7.3-4.9,8.8-3.8,10.4,4.8c0.9,5.1,2.9,9.7,9.1,10.4c1.2,1.2,2.5,2.3,3.7,3.5
	c2.3,6.5,8.9,7.2,13.8,10.2c11.7,7.2,12,13.5,0.8,21c-2.7,1.8-5.5,1.6-8.5,1.6c-5.9-0.1-11.9,0-17.8,0c-3,0-5.7,0.9-4.8,4.5
	c1,4,0.6,9.1,5.8,11c0,0,0.1,0.1,0.1,0.1c1.9,11.5,7.3,21,15.9,28.8c0,0,0,0,0,0c1.7,6.3,1.4,12.7,1.6,19.2
	c0.3,11.1-1.2,22.3,0.6,33.4c0,1.1,0,2.1,0,3.2c-2.9,7.4-7.8,7.8-14.1,4.1c-1.9-1.1-4.1-2.6-6.6-1.9c-1.1-0.6-2.2-1.2-3.3-1.8
	C688.3,875.2,685.1,873.6,681,873.6z"/>
<path id="XMLID_30_" class="st3" d="M622.2,875.5c-1.6,1.7-3.3,3.4-4.9,5.1c-2.1,0.4-3.9,0.7-5.3-1.7c-6.1-10.6-16.2-13.9-27.7-14.6
	c-14.3-0.9-26.2,5.4-37.1,13c-21.9,15.4-45.5,27.8-68.6,41.2c-1.6,0.9-3.6,2.2-4.8,0.6c-3.8-4.8-9.9-9.2-9.2-15.6
	c1.1-10.6-0.5-19.8-7.4-28c1.6-17.9,0.6-35.9,0.6-53.8l0,0.1c2.4-1.2,2.4-3.3,1.8-5.5l-0.1,0.1c3.7-7.5,1.7-15.5,1.7-23.3
	c-2.8-10,4.6-15.9,9.1-22.9c0.6-0.7,1.2-1.5,1.8-2.2L472,768c1.2-0.1,1.8-0.8,1.9-1.9l-0.1,0.1c0.7-10.9,8.2-10.9,16.6-11.3
	c11.7-0.6,23.1,1.6,34.7,2.7c2.9,2.2,6.4,1.5,9.7,1.6c1.3,1.1,2.5,2.2,3.8,3.2c0.3,0.7,0.7,1.5,1,2.2l0.3-0.5l-0.3,0.5
	c0.5,4.4,0.5,8.9,4.1,12.3c0.1,0.5,0.2,1,0.5,1.5c0.6,2.1,1.3,4.1,3.2,5.4c0.6,1.2,1.2,2.4,1.8,3.6c3,6.8,4,15,12.4,18.1l0-0.1
	c-0.6,3.1,1.4,4.3,3.7,5.4l0-0.1c0.6,0.6,1.2,1.2,1.9,1.9l-0.1-0.1c0.6,1.8,1.9,3,3.6,3.6c0,0-0.1-0.1-0.1-0.1
	c0.6,0.6,1.2,1.2,1.9,1.9l-0.1,0c0.7,1.6,1.7,2.6,3.6,1.9l-0.1-0.1c-0.3,1.5,0.3,2.1,1.8,1.8l-0.1-0.1c-0.3,1.5,0.3,2.1,1.8,1.8
	c0,0-0.1,0-0.1,0c2.4,6.9,8.6,7.6,14.4,9c0,0-0.1-0.1-0.1-0.1c1.9,2.5,4.5,2.3,7.2,1.9l-0.1,0c8.9,5.3,19,7.5,28.8,10.3
	c3.9,0.6,5.6,2.2,3.7,6.4c-1.1,2.5-2.7,5.2-2.1,8.3l0-0.1C627.4,864.1,625,869.9,622.2,875.5z"/>
<path id="XMLID_29_" class="st2" d="M458.6,159.3c-4.6-4.7-7.9-10.4-10.4-16.3c-0.9-2.1-4.6-4.6-0.6-6.6c2.9-1.6,6.5-3.3,9.8,0
	c3.5,3.4,5.7,7.6,7.9,11.8c7,13.1,14.4,14.7,26.3,5.7c2.1-1.6,4.1-3.4,6.1-5.1c0.7-0.5,1.4-1.1,2.1-1.6c0,0-0.1,0.1-0.1,0.1
	c0.7-0.6,1.4-1.2,2-1.7c0,0,0.1,0.1,0.1,0.1c4-1.7,6.4-0.1,8.6,3.3c2,3.1,2.6,7.2,6.2,9.2l0.4-0.3c0,0-0.4,0.3-0.3,0.3
	c0.1,1.6,0.8,2.7,2.5,2.9c0,0,0,0,0,0c0.9,2.8,2.8,4.5,5.5,5.5c0.5,0.6,0.9,1.1,1.4,1.7c2.1,5.3,5.5,9.2,11,11.1
	c0.5,0.5,1.1,0.9,1.6,1.4c1.8,3.5,3.4,7.3,7.3,9.1c0,0,0,0,0,0c0,1.2,0.5,1.9,1.7,1.9l0,0c0.7,3.2,2.7,5.5,5.5,7.1l0,0
	c3.5,6.1,4.3,13.7,10.2,18.4l0.5-0.2c0,0-0.4,0.3-0.4,0.3c0.5,2.9,2.4,4.5,5.1,5.5c0,0,0.2,0.1,0.2,0.1c0.6,0.6,1.1,1.1,1.7,1.7
	c0,0,0.1,0.1,0.1,0.1c0.7,2.4,0.2,4.6-1.1,6.7c-1.5,0.7-2,1.8-2,3.4l0.1-0.1c-2.9,2.3-3.7,5.5-3.6,9l0-0.1c-3,3-6,6-9,9l0.1-0.1
	c-8.4,2.4-17.6,2.1-25.2,7.2l0,0c-2.7,4.9-11.2,4.9-10.8,12.6l0.1-0.1c-1.4-0.2-2.1,0.3-1.8,1.8l0.1-0.1c-7.6-1.1-8.8,3.2-6.6,8.9
	c1.7,4.3,1.8,8.4,1.2,12.8l0-0.1c-5.8,7.8-3.9,13.5,5.4,16.3l-0.1,0c0.5,3.1,2.4,4.2,5.4,3.6l-0.1-0.1c-0.3,1.6,0.7,1.8,1.9,1.8l0,0
	c1.6,6.5-0.9,9.5-7.6,8.7c-2.8-0.3-5.6-1.1-8.5-1.7l0.1,0.1c-0.6-0.6-1.3-1.2-1.9-1.9l0.1,0.1c-0.8-1.5-1.8-2.5-3.6-1.9l0.1,0
	c-0.6-2.9-3-4.4-5.1-3.5c-10.1,4.7-20.4,3.4-30.8,2.4c-1.1-0.3-2.3-0.6-3.4-0.8l0,0.1c-3.5-4.8-10.2-3.4-14.2-7.3l0.1,0.1
	c-0.2-10.9-11.6-18.8-8.2-30.9c0.6-2.3-3-3.3-5.2-4.2c-2.7-1.1-5.6-1.8-8.4-2.7c-1.2-2.3-2.4-4.6-3.7-6.9c-0.9-3.1-1.4-6.4-2.7-9.3
	c-2-4.4-1.6-7.8,2.7-10.4l0,0c4.2-5.8,10.1-8.8,16.8-10.8c2.3-0.7,3.9-2.4,4.8-4.8c3.2-8.6,3.9-17.1-0.1-25.6
	c0.3-3.5,2.1-5.4,5.6-5.6c7.1-0.3,13.5-1.7,14.2-10.6l0,0c1.7,0.4,2.2-0.3,1.8-1.8l0,0c4-7,1.4-13.5-1.8-19.9l0.1,0.1
	c0.2-1.6-0.1-3-1.9-3.7l0.1,0.1c-0.1-1.1-0.5-1.9-1.9-1.9l0.1,0.1c0-0.6,0-1.3,0-1.9C461.2,159.5,460.1,159.1,458.6,159.3z"/>
<path id="XMLID_28_" class="st4" d="M537.6,757.5c-1.3-1.1-2.5-2.2-3.8-3.2c-2.8-3.4-6.3-1.8-9.7-1.6c-11.5-1.1-22.9-3.2-34.7-2.7
	c-8.4,0.4-15.8,0.4-16.6,11.3c0.9-7.3-1.7-9.8-9.4-9.4c-11.1,0.6-21.8,6.5-33.2,2.1c-3.5-1.4-8.5,3.5-10.4-0.5
	c-1.9-3.9,3.5-7,5-10.9c0.2-0.5,0.8-0.9,1.2-1.3c1.3-0.1,1.6-0.6,0.6-1.7c0-3,0.1-6,0.1-9c0.5-1.1,0.9-2.2,1.4-3.3
	c9.4-5.2,20-7.4,30.1-10.8c5.3-1.8,8.2-4.5,7.4-10.3c-0.6-4.5,0.7-8.1,4.8-10.7c4.6-2.9,7.1-7.6,7.9-12.5
	c1.4-8.4,6.5-13.1,13.6-16.1c4.1-1.7,5.4-4,2-7.2c-8.6-8.3-13.9-19.4-23.2-27.1c-0.2-3.8-0.4-7.7-0.6-11.5l0.1-0.6
	c0.4,0.1,0.9,0.1,1.3,0.2c-0.3-0.3-0.5-0.7-0.8-1c0.8-1.7,1.6-3.5,2.4-5.2c4-1.2,4.3-4.8,5.2-8c1.7-0.4,3.3-0.7,5-1.1
	c2.1,1.7,3.9,4.9,7.2,1.8c1.2,0,2.4,0.1,3.6,0.1c0.4,2.1,0.7,4.4,3.6,1.9c2.4,0,4.7,0.1,7.1,0.1c0.3,2.2,1.5,3.4,3.9,3.1l0,0
	c-0.2,2.5,1.1,3.7,3.5,3.7c4.9,2.7,6.8,8.9,12.3,11c0.3,2.4,1.5,3.5,4,3.2c1.1,0.8,2.1,1.5,3.2,2.3c0.1,2,1.2,3.2,3.2,3.4
	c2,2.9,3.9,5.7,5.9,8.6c0.1,1.4-0.1,3.2,1.9,3c0.6-0.1,1-1.7,1.5-2.6c1.7-3.4,3.9-6.7,5.1-10.2c2.2-6.4,6.3-8.8,12.7-7.5
	c0.2,5.6,0.4,11.3,3.9,16.1c1.7,2.3,3.4,4.5,5.2,6.8c0.1,2.3-0.3,5.1,3.1,5.4c6.7,0.6,5.4,4.5,4,8.8c-0.7,1.9-1.1,3.9-1.6,5.9
	c-3.3,9.7-10.4,14.1-20.2,13.9c-6.9-0.1-8.7,3.2-4.6,7.7c7.3,8.1,3.4,12.6-3.6,17c-2.3,1.4-4.2,3.3-6.5,4.6
	c-6.1,3.3-4.9,7.4-0.1,9.8c10.2,5.1,17.7,13.9,27.7,19c0.6,3.4,3.2,3,5.6,3c2,1.3,4,2.5,6,3.7c5.2,3.2,14.2,4.4,14.4,10.4
	c0.2,8.8-3.7,17.8-7.6,26.1c-0.9,1.8-2.6,3.4-3.9,1.3c-5.8-9.4-13.2-7.6-21.3-4c-1.5,0.7-3.5,0.4-5.3,0.5c-3.1-0.1-6.1-0.3-9.2-0.4
	c-0.6-1.2-1.2-2.4-1.8-3.6c0-2.4,0-4.9-3.2-5.4c-0.3-0.5-0.5-1-0.5-1.5c0-4.6-0.1-9.1-4.1-12.3l0.3-0.5c0,0-0.3,0.5-0.3,0.5
	C538.3,759,538,758.3,537.6,757.5z"/>
<path id="XMLID_26_" class="st1" d="M522.7,625.9c-5.5-2.1-7.4-8.3-12.3-11c-0.2-2.2-1.3-3.4-3.5-3.7c0,0,0,0,0,0
	c-0.3-2.3-1.4-3.5-3.9-3.1c-2.4,0-4.7-0.1-7.1-0.1c-0.8-1.4-2-2-3.6-1.9c-1.2,0-2.4-0.1-3.6-0.1c-1.9-2.7-3.9-4.7-7.2-1.8
	c-1.7,0.4-3.3,0.7-5,1.1c-5.5-1.1-2.5-8.7-7.6-10l0.1,0.1c0.1-2.1,0.8-4.3-1.8-5.5l0,0.1c-0.1-5.5-0.4-10.8-5.4-14.4l0.1,0.1
	c0.2-2.1,0.6-4.3-1.9-5.4l0,0.1c0-2.4-1-3.8-3.6-3.6l0.1,0c0-1.2-0.7-1.8-1.8-1.8l0,0.1c0-1.2-0.6-1.8-1.8-1.8l0,0
	c0-1.2-0.6-1.8-1.8-1.9l0.1,0.1c0-1.2-0.6-1.9-1.8-1.8l0,0c0-1.3-0.6-1.9-1.8-1.8l0.1,0.1c0-1.2-0.6-1.8-1.8-1.9l0.1,0.1
	c0-1.2-0.7-1.8-1.9-1.9l0.1,0.1c-0.1-3.8-2.7-3.8-5.4-3.6l0.1,0.1c-0.5-2-2-2-3.7-1.8l0.1,0c-4-5.8-8.2-4.9-12.6-0.5
	c-2.5,0.4-3.6-0.6-3.6-3.1c0.2-0.4,0.3-0.8,0.3-1.2c5.1-2.2,2.9-4.2-0.1-6.3c-1.2-1.7-2.5-3.4-3.7-5.1c0.1-1.8,0.2-3.6,0.4-5.3
	c2.3-2.4,4.6-4.8,6.9-7.2c12,1.2,19.6-7.2,28-13.3c6.1-4.5,16.5-4.8,19.6,2c3.4,7.6,10.2,9.8,16.1,13.1c11.4,6.4,20.1,3.8,28.6-6.7
	c1-1.3,2.9-2,4.3-2.9c3.8,0.5,5.8-0.8,5.1-4.9c-0.1-2.4-0.1-4.7-0.2-7.1c2.1,1.2,4.1,2.4,6.2,3.6l0-0.1c-0.2,1.6,0.1,3,1.8,3.7
	l0-0.1c-0.2,1.6,0.1,3,1.8,3.7l0-0.1c-0.1,1.6,0.1,3,1.8,3.7l-0.1-0.1c0.1,1.1,0.6,1.8,1.8,1.9l-0.1-0.1c-0.3,1.7,0,3,1.9,3.6
	l-0.1-0.1c0.6,0.6,1.2,1.2,1.8,1.9l0,0c0.9,3.9,1.3,8,2,11.9c1.1,5.8-0.2,13.6,8.8,15l-0.1,0c0.6,0.6,1.2,1.2,1.9,1.9l-0.1-0.1
	c0.6,0.6,1.2,1.2,1.9,1.8l0,0c0.2,2.9,0.8,5.6,3.6,7.3l0-0.1c-1.6,9.5,4.9,9.1,11.1,8.9c2.9,0.7,5.8,1.4,8.7,2.1
	c0.9,1.3,1.7,2.5,2.6,3.8c0,0.9,0,1.8,0,2.7c0.7,8.2,6.9,15.3,4.9,24c0,0,0,0,0,0c-4,1-6.4,4.6-6.3,7.6c0.1,9.3-5.4,16.3-8.2,24.4
	c-0.5,0.7-1,1.3-1.6,2c-2.6,0.5-5.9,2.9-6-2.7c0-2.6,0.1-5.5-3.4-6.3c-6.5-1.3-10.6,1-12.7,7.5c-1.2,3.6-3.4,6.8-5.1,10.2
	c-1.2-0.1-2.3-0.2-3.5-0.3c-2-2.9-3.9-5.7-5.9-8.6c0.3-2.5-0.7-3.6-3.2-3.4c-1.1-0.8-2.1-1.5-3.2-2.3
	C526.2,627,525.1,625.7,522.7,625.9z"/>
<path id="XMLID_25_" class="st1" d="M254.2,312c1.6-7.4-0.4-14.6-1.4-21.7c-0.7-4.6-1.6-6.7,5.2-6.1c13.6,1.2,27.3-2.2,41-0.4
	c8.8,1.7,17.6,3.5,26.4,5.2c4.4,4.6,6.9-3.5,10.9-1.7c0.5,0.5,1,0.9,1.5,1.4c3.2,3.2,7.3,1.4,10.9,1.9c3,3.3,6.1,6.5,10.9,7
	c3.1,4.2,5.7,8.6,8.4,13.1c5.5,9.4,12.1,18.1,16.7,28.2l0,0c4,6.7,10.5,11.7,12.7,19.6c1.4,4.8,2.8,9.6,4.1,14.3
	c-0.4,2.5-0.7,5,1.1,7.2c-1.1,8.3-2.3,16.7-3.4,25c-2.6,2-1.8,4.7-1.6,7.3c-0.1,1.2-0.2,2.3-0.3,3.5c-2.9,1.9-6.2,1.8-9.4,1.8
	c-15.6,0-30-4.5-44.3-10.6c-4.3-1.8-11.2-8.4-12.8,3.2c-6.2,5.4-6.2,5.4-19.5,9c-6.6,1.5-2.1,7.3-4.1,10.5
	c-4.4-0.2-7.6-3.7-12.5-3.4c-5.1,0.3-17.6-12.3-16.7-16.3c1.6-7.6-1.6-14.4-2.3-21.5c-0.2-1.7,0.3-4.6-1.9-4.3
	c-8.4,1.4-5.7-4.7-5.6-8.4c0.1-6,0.5-12.3,1.1-17.9c1-10.4-2.4-10.4-9.8-8.7c1.5-10.7,1.5-10.7-9.1-10.4l0,0
	c-1.9-5.1,3.5-8.1,3.6-12.7l0,0c1.2,0,1.9-0.6,1.9-1.8l-0.1,0c4.3,0,8.4-0.7,3-5.3C256.1,317,256.8,313.6,254.2,312z"/>
<path id="XMLID_24_" class="st5" d="M458.6,156.3c1.5-0.2,2.6,0.2,3.3,1.6c-1.5,0.7-2.1,1.3,0,1.9l-0.1-0.1c0.1,1.2,0.6,1.9,1.9,1.9
	l-0.1-0.1c-0.2,1.6-0.3,3.2,1.9,3.7l-0.1-0.1c0.6,6.6,1.2,13.2,1.8,19.9l0,0c-1.1,0.1-1.8,0.7-1.8,1.8l0,0c-4.7,3.5-9.5,7-14.2,10.6
	c-3.5,0.2-5.3,2.1-5.6,5.6c-2.2,3.5-2,7-0.9,10.9c2.3,8.8-1.5,13.5-9.7,17c-5.1,2.2-12.5,4.6-10.8,13.3l0,0c-6.7-1-8.7,1.9-6.5,8
	c1,2.8,1.7,5.6,0.6,8.5c-2.9,1-4.1-2-6.3-2.6c-5.5-1.7-10.9-3.5-16.4-5.2c-0.6-1.1-1.3-2.2-1.9-3.3c2.4-1.9,2.1-4.1,0.1-5.9
	c-1.4-1.3-3-1.8-4.2,0.5c-1.8,0.6-3.6,1.1-3.9-1.8c-2.4-7.5-11.2-7.2-15.5-12.5c-1.2-1.2-2.5-2.3-3.7-3.5c-7-2.4-3.9-10.8-8.7-14.6
	l0,0c-0.1-2.3-1.5-3.4-3.7-3.6c-2.3-2.4-4.5-4.7-6.8-7.1c-0.7-0.6-1.4-1.2-2.1-1.8l0.1,0c0.1-1.6-0.7-2.7-1.9-3.5l0,0
	c-0.5-4.1,1.4-7.4,3.7-10.5c10.6-2.7,18.1-13.1,15.2-22.3c-2.2-7-0.9-12.2,4.5-16.7c6-5,12.6-8.1,20.6-5.2c3.9,1.4,7.9,3,11.3,5.4
	c12.7,9,27.9,8.7,42.2,11.7C447.2,159.3,452.6,155.4,458.6,156.3z"/>
<path id="XMLID_23_" class="st6" d="M347.6,203.9c2.3,2.4,4.5,4.7,6.8,7.1c0,2.5,1.1,3.8,3.7,3.6l0,0c0.9,5.9-1.6,11-3.7,16.2
	c0.3,8.3-0.6,16.4-3,24.5c-1,3.3-2.7,8,3,9.5c7.5,2.1,9,7.7,9,14.4c-2.7,2.8-0.4,3.2,1.8,3.7c0,1.7,0,3.5,0,5.2
	c-1.8,1.8-3.6,3.6-5.4,5.5c-4.8-0.5-7.9-3.8-10.9-7c0.1-0.3,0.4-0.5,0.4-0.8c0-0.2-0.1-0.7-0.2-0.7c-3.7-0.2-7.4-0.3-11.1-0.5
	c-0.5-0.5-1-0.9-1.5-1.4c-5.1-9.1-7.3,0.8-10.9,1.7c-8.8-1.7-17.6-3.5-26.4-5.2c-2-3.2-5.3-2.2-8.1-2.2c-8.3-0.1-16.7,0-25,0
	c-10.3-0.1-13.5-3.6-11.7-13.7c1.4-7.9,1.2-16.9,12.3-18.8c3.4-0.6,3.9-4.2,3.6-7.3c-0.6-6.4,3.1-7.6,8.5-8.7
	c13.8-3,25.8-9.3,34.4-21c6.8-9.3,15.1-15.8,27-16.5c3.7,1.1-2.5,7.4,3.7,7.1c0,0,0,0,0,0c0,1.5,0.3,2.9,1.9,3.5c0,0-0.1,0-0.1,0
	C346.2,202.7,346.9,203.3,347.6,203.9z"/>
<path id="XMLID_22_" class="st7" d="M363.3,284.3c0-6.7-1.5-12.3-9-14.4c-5.7-1.5-4-6.2-3-9.5c2.5-8,3.4-16.2,3-24.5
	c4.1-0.6,8.3-1.1,12.4-1.7c1.2,1.2,2.5,2.3,3.7,3.5c1.4,8.8,8,11.2,15.5,12.5c0.2,2.9,2,2.4,3.9,1.8c0.5,2.5,1.7,4.3,4,5.4
	c0.6,1.1,1.3,2.2,1.9,3.3c3.6,7.7,10.5,5,16.4,5.2c2.2,0.6,3.5,3.6,6.3,2.6c0.9,3,3.4,3.1,5.8,3.1c1.2,2.3,2.4,4.6,3.7,6.9
	c0.1,1.5,0.3,3.3,2,3.5c7,1.2,8.4,5.2,9.1,12.1c0.8,8,4.3,16,10.7,22c0,0-0.1-0.1-0.1-0.1c1.6,8.5,8.5,6.8,14.2,7.3c0,0,0-0.1,0-0.1
	c0,3.9,2.7,3.8,5.4,3.7c8.4,0.9,16.8,1.9,25.2,0.1c-0.1,6.2-0.3,12.4-0.3,18.6c0,1.7-0.2,4.4,0.8,5.1c9.7,7.1,7,19.3,11.9,28.3
	c-0.4,4.8,1.6,7.3,6.6,7.4c4,1.8,5.4,5.8,7.7,9.1c0.1,2.5,0.2,4.9,3.6,5.1c2.1,1.2,1.9,3.3,1.9,5.3c-2.6,2.3-1.1,3.1,1.3,3.6
	c0.2,2.4,0.3,4.8,0.5,7.2c-1.2-0.5-2.4-1-3.6-1.5c-4.5-5.4-9.5-0.3-14,0c-20.8,1.1-40.7-3.3-60.6-8.2c-6.7-1.7-12.8-1.6-18.6,2.6
	c-7.4,0-14.7-0.1-22.1,0.1c-3.9,0.1-7.7,0.1-10.1-3.7c1.1-8.3,2.3-16.7,3.4-25c2.6-2.9,3.4-5.5-1.1-7.2c-1.4-4.8-2.8-9.6-4.1-14.3
	c2.2-9.1-1.9-15.5-12.7-19.6c0,0,0,0,0,0c0.2-5.1,0.8-10.3-2.9-14.4c-8.4-9.4-12.8-20.7-16.8-32.3c0-1.7,0-3.5,0-5.2
	C365.1,286.5,364.7,285.1,363.3,284.3z"/>
<path id="XMLID_21_" class="st2" d="M524.5,421.5c1.2,0.5,2.4,1,3.6,1.5c0,0-0.1-0.1-0.1-0.1c0.3,1.3-0.1,2.9,1.8,3.4
	c9.5,7.4,9.5,7.4,23.8-3.7c3.4-1.1,6.8-2.1,10.4-1.4l-0.1-0.1c-0.1,1.4,0.4,2.1,1.8,1.8l0,0c-0.2,1.5,0.5,2,1.8,1.8l0,0
	c-0.1,1.4,0.7,1.7,1.9,1.8l-0.1,0c0.6,1.8,2.1,1.9,3.7,1.8l-0.1-0.1c4.2,3.2,8.5,3,12.7,0l-0.1,0.1c1.1-0.2,2-0.4,1.9-1.8l-0.1,0.1
	c1.8,0.5,3-0.1,3.6-1.8l0,0c1.1-0.1,1.8-0.7,1.8-1.8l0,0c1.1-0.1,1.8-0.7,1.8-1.8l0,0c1.8,0,3.5,0,5.3,0l-0.1-0.1
	c3.2,10.4,6.5,20.9,9.7,31.4c1.7,5.7,3.5,11.3,8.3,15.3c0,0-0.1-0.1-0.1-0.1c-0.1,1.6,0.2,3,1.9,3.7l-0.1-0.1
	c0.1,1.1,0.4,2.1,1.8,1.9c0,0-0.1-0.1-0.1-0.1c-0.5,1.8,0.2,3,1.9,3.6l0-0.1c0.1,1.1,0.7,1.8,1.8,1.9l-0.1,0c0.4,2,1,3.8,3.6,3.6
	l0-0.1c-0.6,1.8,0.1,3,1.9,3.6l0,0c0.1,1.1,0.7,1.7,1.8,1.8l0,0c0.7,1.7,1.8,2.4,3.6,1.9l-0.1-0.1c-0.2,1.4,0.7,1.8,1.9,1.8l-0.1,0
	c1.8,2.4,3.8,4.4,7.2,3.7l-0.1-0.1c-0.9,2,0.2,2.9,1.9,3.6l0-0.1c-0.2,2.1,0,4,1.9,5.4c0.1,1.5-0.1,3,1.8,3.6l-0.1-0.1
	c1.6,7,6,11.7,12.2,14.8c0.6,0.5,1.3,1,1.9,1.6c1.9,3.8,0.4,7.1-1.8,10.2c-8.5,10.4-21.9,13.1-32.3,20.6c-3.1,2.2-6.6-0.4-8.9-2.1
	c-8.3-6.1-13.9-4.3-18,4.7c-0.8,0.3-1.6,0.7-2.4,1c-7.4,2.9-14.8,5.7-22.2,8.6c-2.9-0.7-5.8-1.4-8.7-2.1c-2-5.1-9.7-3.1-11.1-8.9
	l0,0.1c-0.3-2.8,1.3-6.7-3.6-7.3l0,0c0.2-1.5-0.4-2.1-1.9-1.8c0,0,0.1,0.1,0.1,0.1c0.2-1.4-0.5-2-1.9-1.9c0,0,0.1,0,0.1,0
	c-4.5-5.2-6.1-11.3-5.8-18.1c0.2-3.7-0.2-7.6-5-8.8l0,0c0.3-1.5-0.1-2.3-1.8-1.9l0.1,0.1c1-2-0.4-2.8-1.9-3.6l0.1,0.1
	c-0.2-1-0.4-2-1.8-1.9l0.1,0.1c0.4-1.7,0.3-3.2-1.8-3.7l0,0.1c0.4-1.7,0.3-3.2-1.8-3.7c0,0,0,0.1,0,0.1c0.4-1.7,0.4-3.2-1.8-3.7
	l0,0.1c0.8-6.6-5.5-7.8-8.6-11.4c-2.2-9.9-4.9-19-14.5-25.2c-9.4-6.1-18.1-13.1-19-26.4c-0.6-8.8,0.4-11.9,9.3-12.6
	C506.4,423.6,515.4,422.4,524.5,421.5z"/>
<path id="XMLID_20_" class="st1" d="M69.5,396.1c-3.9-6-0.8-11.5,1.6-16.7c5.8-12.1,4.8-14.1-5.9-21.6c-6.3-4.4-5.6-11.8-2.7-18.5
	c2-0.6,3.6-1.6,3.3-4.1l-0.1,0.1c2.9,0.3,4.6-1,5.4-3.7c0,0-0.1,0-0.1,0c3.4-0.1,5.4-1.8,5.4-5.4l0,0c1.7,0.3,3-0.1,3.6-1.9
	l-0.1,0.1c0.6-0.6,1.2-1.2,1.9-1.9l-0.1,0c2.6,0.1,4.2-1.4,5.3-3.6c1.5-2.5,3.4-4.7,6.4-5.6c0.3-0.5,0.7-1,1-1.6l-0.1,0.1
	c3.3-0.6,6.6-1.2,9.9-1.7c0.5,0.2,0.8,0.5,0.9,1c0,1.3,0.5,2.3,1.9,2.6l0-0.1c-0.4,1.7,0.1,3,1.9,3.6l-0.1-0.1
	c0.2,1.1,0.6,1.8,1.8,1.9l0,0c-0.3,1.7,0,3,1.8,3.6l-0.1-0.1c0.6,0.8,1.3,1.6,1.9,2.5c7.8,9.2,12.2,20.1,16.1,31.4
	c-2.2,2.6-0.3,3.3,1.8,3.9l0,0c-0.4,5.3,0.3,11.5,5.9,12.2c10.3,1.3,17.7,6.9,25.3,12.9c1.5,3,3,6.1,4.5,9.1
	c0.4,8.2-3,18.1,9.1,21.4l-0.1,0c0.7,1.6,2,2.1,3.6,1.9l-0.1-0.1c0,1.2,0.7,1.8,1.9,1.8l0,0c0,1.2,0.7,1.8,1.8,1.8l-0.1-0.1
	c0.1,1.2,0.7,1.8,1.8,1.8l-0.1-0.1c0.1,1.2,0.7,1.8,1.8,1.9l-0.1-0.1c0.1,1.1,0.7,1.8,1.9,1.9l-0.1-0.1c0.1,1.1,0.7,1.8,1.9,1.8
	l-0.1-0.1c0.1,1.2,0.6,1.8,1.8,1.9l-0.1-0.1c-0.3,1.7,0.1,3,1.9,3.6l0-0.1c0.6,0.6,1.2,1.2,1.8,1.8l-0.1-0.1
	c0.6,0.8,1.3,1.5,1.9,2.3c2.8,3.4,5.6,6.8,8.3,10.2c0.8,0.6,1.6,1.3,2.4,1.9l-0.1-0.1c0.6,3.8-0.8,7.3-1.8,10.8l0-0.1
	c-3,4.2-10,4.4-10.8,10.8l0-0.1c-1.2,0.1-1.8,0.6-1.8,1.8l0.1,0c-1.7-0.3-3.1-0.1-3.7,1.8l0.1,0c-1.6-0.2-3.1-0.1-3.7,1.8l0.1,0
	c-1.6-0.2-3.1,0-3.6,1.8l0.1,0c-2.5,0.1-4.9,0.2-7.4,0.4c-10-4.1-18.3-11.2-27.2-17c-13.9-9.1-29-17.8-39.3-30.3
	c-10.5-12.7-24.2-20.7-35.5-31.9C73.7,397.6,71.9,396.4,69.5,396.1L69.5,396.1z"/>
<path id="XMLID_19_" class="st5" d="M206.9,448.1c-2.8-3.4-5.6-6.8-8.3-10.2c-0.1-1.2-0.6-2.1-1.9-2.3l0.1,0.1
	c-0.1-1.2-0.6-1.8-1.8-1.8l0,0.1c0.3-1.7-0.2-2.9-1.9-3.6l0.1,0.1c-0.6-0.6-1.2-1.2-1.8-1.9l0.1,0.1c-0.6-0.6-1.2-1.2-1.9-1.8
	l0.1,0.1c-0.6-0.6-1.2-1.2-1.9-1.9l0.1,0.1c-0.6-0.6-1.2-1.2-1.8-1.9l0.1,0.1c-0.6-0.6-1.2-1.2-1.8-1.8l0.1,0.1
	c-0.6-0.6-1.2-1.2-1.8-1.8c0,0,0,0,0,0c-0.6-0.6-1.2-1.2-1.9-1.8l0.1,0.1c-0.7-1.6-2-2.1-3.6-1.9l0.1,0c-1.9-4.6-0.9-7.3,4.7-7.1
	c2,0.1,4.2,0.4,5.7-1.6c3-0.1,6-0.1,9-0.2c1.5-0.2,2.9-0.6,4.4-0.6c13-0.2,27.4-10.2,38.2,5.5c0.6,0.8,2.8,0.4,4.2,0.6c0,0,0,0,0,0
	c2.9,4.3,1.9,9.5,3.4,14.1l0,0c-5.6,1.5-8.8,7.5-14.2,8.5c-5.7,1-6,4.4-5.2,8.3c1.3,6.5,1.8,13.4,5.1,19.4l0,0c0,2-0.4,4.1,1.8,5.4
	l0,0c0.1,2-0.3,4.1,1.8,5.4l0,0c0,3,0.8,5.6,3.6,7.2l0,0c0,1.5,0.4,2.8,1.8,3.6l0,0c0.6,5.2,3,9.4,7.1,12.6l0,0
	c0.6,0.6,1.2,1.2,1.8,1.8l0,0c-0.2,1.6,0.7,2.6,1.9,3.5l0-0.1c-1.2,2.5-3.2,1.7-5.1,1.2c-0.5-0.5-1-0.9-1.6-1.4
	c-3.2-3.7-6.3-5.5-9.3,0.2c-0.2,0.4-0.3,0.8-0.2,1.2c-0.6,0.7-1.2,1.5-1.7,2.2l0-0.1c-4.1,0.4-8.1-0.1-11.9-1.6
	c-2.2-0.9-5.1-2.8-6,1.6l0.1,0.1c-0.6,0.6-1.1,1.3-1.7,1.9c-0.2,0.4-0.2,0.8-0.2,1.3c-1.4,1-1.8,2.4-1.8,4l0.1,0
	c-0.6,0.6-1.2,1.2-1.8,1.8l0,0c-0.6,0.6-1.2,1.2-1.8,1.8l0,0c-0.6,0.6-1.2,1.2-1.8,1.8l0-0.1c-6.5,2.3-12.9,2.4-19.4,0l0,0.1
	c-0.6-0.6-1.2-1.2-1.8-1.8l0,0c-1.2-0.7-2.4-1.5-3.6-2.2c-3.3-3.1-6.8-5.7-11.7-5c-4.3-7.8,6.2-9.8,6.3-15.8
	c1.4-0.9,1.7-2.3,1.6-3.8l0,0c1.8-3.6,3.6-7.2,5.4-10.7c0,0-0.1,0-0.1,0c1.6,0.2,3-0.2,3.6-1.8l-0.1,0c1.5,0,3-0.2,3.7-1.8l-0.1,0
	c1.6,0.1,3-0.1,3.7-1.8l-0.1,0c0.6-0.6,1.2-1.2,1.8-1.8l0,0.1c4-3.2,11.6-2.8,10.8-10.8l0,0.1c2.9-0.9,7.6-0.7,8.2-3.5
	c0.8-3.6-3.4-5.6-6.4-7.3l0.1,0.1C208.9,448.7,208.1,448.1,206.9,448.1z"/>
<path id="XMLID_18_" class="st8" d="M581.3,670.6c1.4,0.4,2.7,0.7,4.1,1.1c1.1,1.9,2.9,2.7,5,2.8c7.2,0.5,8.7,4.2,6,10.4
	c-2.7,5.8-5.3,11.7-8,17.5c-7.5,9.3-7.9,21-10.7,31.9c-0.8,3.1,0.2,6.6-3.7,8.2c-10.1-5.1-17.6-13.9-27.7-19c-4.8-2.4-6-6.5,0.1-9.8
	c2.3-1.3,4.3-3.2,6.5-4.6c7-4.5,11-8.9,3.6-17c-4.1-4.5-2.3-7.9,4.6-7.7C570.9,684.7,578,680.3,581.3,670.6z"/>
<path id="XMLID_17_" class="st5" d="M451.1,877.2c-16.5-2.7-32.8-1.1-49.1,1.3c-5.8,0.9-9.6,1.5-6.8-6.7c2.4-7.1-4.5-13.4-1.9-21.4
	c3-9.3,4.8-19.2,2.3-29.3c-0.6-2.5,0.5-4.8,3-7.4c5.8-6,10.2-13.6,14.6-20.8c1-1.6,1-3.9,3.1-5c1.6-0.9,4.8-0.7,2.9-3.9
	c-1.3-2.2-3.6-2.1-5.6-1.6c-2.9,0.8-5.5,1.7-8.7,1.6c-6.1-0.2-10-2.1-11.4-8.7c-1-4.8-2.7-11.8-9.2-3.2c-0.5,0.6-2.1,1.3-2.2,1.1
	c-4.4-5.4-11.1,1-16.9-4.1c-4.5-3.9-13.7-1.5-20.8-0.5c-2.3,0.3-4.5,1.3-7,0.8c0-0.6-0.2-1-0.6-1.5c-0.1-1.6-0.6-3.1-2-4.1
	c0-0.5-0.2-0.9-0.4-1.3c-0.5-0.8-1-1.5-1.4-2.3c0-0.5-0.1-0.9-0.3-1.3c-0.5-0.8-1-1.6-1.4-2.4c-0.2-1-0.3-2-0.5-3
	c-0.5-0.7-1-1.3-1.4-2l0.1,0.1c-0.1-1.5-0.6-2.7-2.2-3.2l-0.1-0.1c-0.5-1.6-1.8-2-3.2-2.3c-10.4-6.8-11.9-11.7-5.1-25.2
	c5.6-11.1,10.5-22.5,13.9-34.5c2.2-7.9,3.9-15.9,5.8-23.9c6.5-0.9,13.2,1.6,19.5-1.7c1.4-0.4,3-0.3,3.6-2l0,0
	c6.2,0,12.6-0.9,18.7,0.2c12.8,2.4,29.9-4,35,15.7l-0.1-0.1c0,2-0.7,4.3,1.9,5.5l-0.1-0.1c1.7,5.7,2.1,10.9-5.4,12.7l0.1-0.1
	c-3.3,1.4-5.4,3.9-5.5,7.4c-0.1,11.5-2.6,22.9-1.9,34.5c0.4,6.1,1.5,9.3,8.4,6c3.7-1.8,7.6-3.4,11.9-3.2c0,3-0.1,6-0.1,9
	c-0.3,0.5-0.5,1.1-0.6,1.7c-0.4,0.4-1,0.8-1.2,1.3c-1.4,3.8-6.8,7-5,10.9c1.9,4,6.9-0.8,10.4,0.5c11.3,4.4,22.1-1.5,33.2-2.1
	c7.7-0.4,10.4,2.1,9.4,9.4l0.1-0.1c-1.3-0.1-1.9,0.6-1.9,1.9c0,0,0.1-0.1,0.1-0.1c-1.6-0.1-3.7-0.5-1.8,2.2c-4.6,7-12,12.9-9.1,22.9
	c-4,7.5-1.1,15.5-1.7,23.3l0.1-0.1c-2.3,1.3-2.1,3.4-1.8,5.5l0-0.1c-2.7,1.5-3.6,4.3-3.2,6.8C454.3,845.9,452.7,861.5,451.1,877.2z"
	/>
<path id="XMLID_16_" class="st3" d="M468.7,635.6c9.3,7.7,14.6,18.8,23.2,27.1c3.3,3.2,2,5.5-2,7.2c-7.1,3-12.2,7.7-13.6,16.1
	c-0.8,4.9-3.3,9.6-7.9,12.5c-4,2.5-5.4,6.2-4.8,10.7c0.8,5.8-2.1,8.6-7.4,10.3c-10.1,3.3-20.7,5.6-30.1,10.8
	c-4.1-0.7-7.5,1.4-11,2.8c-5.7,2.3-7.7,1.2-7.5-5.4c0.4-13.1-0.1-26.2,4.2-38.8c0,0-0.1,0.1-0.1,0.1c3.5-0.8,9.7,5.2,10-3.2
	c0.1-3.2-0.5-7.7-4.6-9.6l0.1,0.1c0.4-2.2,0.3-4.2-1.9-5.5l0.1,0.1c-1.2-14.9-1.2-14.9-15.7-16.2c-2-0.2-4-1.5-5.9-1.4
	c-7.1,0.3-8.5-3.2-6.5-9.1c1.6-1.6,3.3-3.3,4.9-4.9c0.6-0.7,1.3-1.5,1.9-2.2l-0.1,0.2c0.7-0.6,1.3-1.2,2-1.8l0,0
	c0.6-0.6,1.2-1.3,1.8-1.9l0,0c2.4-1.9,3.3-4.4,3.5-7.3l-0.1,0.1c2-1.4,2.9-3.3,3.3-5.6c0.5-0.4,0.6-1,0.5-1.6l-0.3,0.1
	c1.3-0.1,1.6-1,1.8-2l-0.1,0.1c1.4-0.8,2.1-2,2-3.6l-0.2,0.2c0.6-0.7,1.2-1.3,1.8-2L410,612c1.5-0.8,2.1-2,2-3.6l-0.1,0.2
	c7.2-7.5-0.8-13.4-2-20.1l0.1,0.1c-2.5-9.1,0.1-17.9,1.3-26.8c0.4-0.4,0.5-0.9,0.5-1.5c0.7-1.3,1.5-2.6,2.2-3.9
	c0.4-0.5,0.9-1.1,1.3-1.6c2.3-0.2,4.7-0.4,7-0.7c4-2,8.4-1.2,12.6-1.3l-0.1,0c0.7,1.6,2.1,1.9,3.7,1.8l-0.1-0.1
	c1.2,2.1,3.1,3.2,5.4,3.6l-0.1-0.1c0.6,0.6,1.2,1.2,1.9,1.9c0,0-0.1-0.1-0.1-0.1c0.6,0.6,1.2,1.2,1.8,1.9l-0.1-0.1
	c0.1,1.1,0.7,1.7,1.8,1.8l0,0c0.1,1.1,0.7,1.8,1.8,1.8l-0.1-0.1c0.1,1.2,0.6,1.9,1.8,1.9l0,0c0,1.2,0.6,1.8,1.8,1.8l0,0
	c0,1.2,0.6,1.8,1.8,1.8l-0.1,0c0.3,2.1,1.1,3.8,3.6,3.6c0,0,0-0.1,0-0.1c-0.6,2.2-0.2,4.1,1.9,5.4l-0.1-0.1c0.8,5.2,2,10.2,5.4,14.4
	c0,0,0-0.1,0-0.1c-0.1,2.1-0.3,4.2,1.8,5.5c0,0-0.1-0.1-0.1-0.1c0.6,6,3.5,11.8,2.4,18.1c-0.8,1.7-1.6,3.5-2.4,5.2
	c-0.4,0.1-0.6,0.4-0.6,0.8c0,0-0.1,0.6-0.1,0.6C467.1,628,463.3,632,468.7,635.6z"/>
<path id="XMLID_15_" class="st6" d="M392.1,631.3c-1.6,1.6-3.3,3.3-4.9,4.9c-4.5,7.9-10.7,11.1-19.8,7.7c-2.2-0.8-4.5,0.8-5.8,3.1
	c0,0,0,0,0,0c-1.6-0.1-3.1,0.1-3.6,2c-6.2,3.3-13,0.8-19.5,1.7c-2-3-4.3-1.3-6.1,0c-5.8,4.1-11.3,3.5-16.9-0.1
	c-2.2-12.1-8-22.9-11.6-34.5c-4.8-15.2-15.5-29-10.3-46.4c1.8-10-1.2-20-0.4-30c0.3-3.6,1.5-7.6-1.5-10.9c-0.1-1.2-0.2-2.4-0.4-3.6
	c1.4-0.3,3.3-0.4,3-2.4c-0.2-1.6-1.4-2.6-3.2-1.9c-5.8,2.3-6.4,6.2-3.4,11.1c-0.3,2-0.4,4.1-0.8,6.1c-1.5,7.9-1.5,7.8-7.9,6
	c-0.7-0.2-1.7,0.6-2.5,0.6c-4.5-0.2-8.7-1.3-12-4.6c-3.5-4.9-9.2,1.9-12.8-2.4c-0.5,0-1-0.1-1.5-0.2c-1.8-1.4-3.6-3.5-5.1,0.3
	c-1,3.2,5.4,5.2,1.8,8.2c-2.9,2.4-4.8-2.1-7.5-2.8c-0.6-0.1-1.1-0.2-1.7-0.2c0-1,1.5-2.1-0.1-2.8c-0.3-0.1-1.6,0.8-1.7,1.5
	c-1.1,4.2-1.2,8.6-3.4,12.5c-0.1,1.1-0.1,2.2-0.2,3.3c-0.8,0.2-1.5,0.5-2.3,0.7c0.3,0.4,0.6,0.9,1,1.3c-6.3,6.9-18.4,2.3-23.4,11.9
	c-0.4,0.7-2.8,0.2-4.3,0.5c-12.7,3.1-16.5,11.6-10.4,23.1c2.4,4.5,4.6,9.2-4.2,9.3c-4.4,0-1.4,3.4-1.5,5.3
	c-3.8,4.3-6.8,9.2-8.9,14.6c-17.7-1-35.4-2.3-52.7,3.3c-2.2,0-4.7-0.7-6.1,1.8l0.2-0.1c-2.5,0.2-5.5-1.1-7.3,2l0.3,0.2
	c-7.9,0.6-10.6-3.3-9.3-10.7c1.1-6.7-0.5-14.4,7.2-18.5c3.4,0,5.6-2.3,7.2-4.7c13.5-20.8,25.7-42.3,38.3-63.6
	c3.8-6.4,6.1-15,14.7-17.7c4.9-0.8,8.4,1.8,11.7,5c0.5,1.9,1.9,2.2,3.6,2.2c0,0,0,0,0,0c0.6,0.6,1.2,1.2,1.8,1.8c0,0,0-0.1,0-0.1
	c6.5,7,12.1,7,19.4,0l0,0.1c0.6-0.6,1.2-1.2,1.8-1.8l0,0c0.6-0.6,1.2-1.2,1.8-1.8l0,0c0.6-0.6,1.2-1.2,1.8-1.8c0,0-0.1,0-0.1,0
	c1.8-0.8,1.9-2.3,1.8-4c0-0.4,0.1-0.9,0.2-1.3c0.6-0.6,1.1-1.3,1.7-1.9c0,0-0.1-0.1-0.1-0.1c6-1,12,7.6,18,0c0,0,0,0.1,0,0.1
	c0.6-0.7,1.2-1.5,1.7-2.2c0-0.4,0.1-0.8,0.2-1.2c3.1-0.1,6.2-0.1,9.3-0.2c0.5,0.5,1,0.9,1.6,1.4c0.8,2.8,2.6,4.9,5.5,3.5
	c2.3-1.1,1.6-3.3-0.4-4.7c0,0,0,0.1,0,0.1c0-1.5-0.3-2.9-1.9-3.5c0,0,0,0,0,0c-0.6-0.6-1.2-1.2-1.8-1.8c0,0,0,0,0,0
	c-0.9-5-1.5-10.2-7.1-12.6c0,0,0,0,0,0c0.1-1.6-0.2-2.9-1.8-3.6c0,0,0,0,0,0c0.4-3.2,0-6-3.6-7.2c0,0,0,0,0,0c0.1-2,0.6-4.2-1.8-5.4
	c0,0,0,0,0,0c0.1-2,0.6-4.2-1.8-5.4l0,0c1-5.4-0.3-10.6-1.9-15.6c-1.7-5.4-1.7-8.4,5.1-10.1c4.8-1.2,11.3-2.9,11.1-10.4c0,0,0,0,0,0
	c4.7-4.3,2.8-12.1-3.4-14.1c0,0,0,0,0,0c-0.2-4.4-4.3-5.6-6.9-7.5c-4.3-3.3-6.1-7-5.5-12.2c8.9-2.2,17.9,4.1,26.8-0.1
	c0.6-0.6,1.2-1.2,1.9-1.7c15.3-0.5,16.4,1.1,13.9,16.8c-0.5,3.5,1.9,7.7,3.8,11.1c0.9,1.6,5.5,1.2,4.5,4.3c-1,3.2-4.6,1.4-7.1,1.8
	c-1.8,0.3-3.8,0.2-4,2.6c-0.2,2.5,1.3,3.8,3.7,4.2c0,0-0.3,0.1-0.3,0.1c0.7,0.6,1.3,1.3,2,1.9l-0.1-0.2c0.7,0.6,1.3,1.3,2,1.9l0-0.1
	c0.5,4.7,1.6,9.4,1.4,14c-0.4,6.5,2.3,8.6,8.3,7.7l0.6-0.1c1.1,1.9,2.8,2,4.7,1.9l0.5-0.1l0.4,0.3c0.7,0.6,1.3,1.1,2,1.7l-0.1-0.1
	c0.1,2.6,0.2,5.2,0.3,7.8l0-0.2c-2.9,1.7-2.7,3.4-0.1,5.2l-0.1-0.2c-0.1,2.4,1,3.7,3.4,3.8l0,0c0,2.7,0.1,5.1-4,5
	c-9.2-0.3-9.8,0.7-7.2,10.9c4.7,5.3,9.5,10.5,14.2,15.8c1.4,1.9,3.3,2.2,5.5,2.3c14.2,0.6,28.5-1,42.8,1.4c3.9,0.7,9.5,0.1,13.1-3.6
	c8.9-11.6,23.6-13.6,34.9-21.3c10.5,4.6,17.5,13.1,24.3,21.8c-2.3,2.4-4.6,4.8-6.9,7.2c-1.6,0.6-3.1,1.4-3.2,3.2
	c-0.1,1.9,1.6,1.9,2.9,2.1c1.2,1.7,2.5,3.4,3.7,5.1c0,2.1,0,4.2,0.1,6.3c0,0.4-0.1,0.9-0.3,1.2c-3.8,0.3-3.4,3-3.4,5.6
	c-0.4,0.5-0.9,1.1-1.3,1.6c-2,0.6-2.3,2.1-2.2,3.9c0.1,0.6-0.1,1-0.5,1.5c-6.4,8.7-6.1,17.6-1.3,26.8l-0.1-0.1
	c-1.3,6.9,4,13.1,2,20.1c0,0,0.1-0.2,0.1-0.2c-1.8,0.6-2,2-2,3.6c0,0,0.1-0.1,0.1-0.1c-0.6,0.7-1.2,1.3-1.8,2c0,0,0.2-0.2,0.2-0.2
	c-1.8,0.6-2,2.1-2,3.6c0,0,0.1-0.1,0.1-0.1c-0.6,0.7-1.2,1.4-1.8,2c0,0,0.3-0.1,0.3-0.1c-0.8,0.5-1.5,1.1-2.2,1.6
	c-2.1,1.4-1.8,3.6-1.5,5.6c0,0,0.1-0.1,0.1-0.1c-3.8,1.2-4.2,4-3.5,7.3c0,0,0,0,0,0c-1.1,0.2-1.7,0.8-1.8,1.9c0,0,0,0,0,0
	c-0.7,0.6-1.3,1.2-2,1.8c0,0,0.1-0.2,0.1-0.2C393.4,629.9,392.8,630.6,392.1,631.3z"/>
<path id="XMLID_14_" class="st9" d="M422.4,509.1c-6.8-8.7-13.8-17.2-24.3-21.8c0.5-6.2-4-10.4-6.8-14.9c-4.4-7.1-3.6-14.8-5.5-22.1
	c-2.8-11.1,6.2-13.1,11.1-18.4c3.3-5.3,3-10.6,0.2-16c0.1-1.2,0.2-2.3,0.3-3.5c4.5-1.8,9.2-1.8,13.9-2.1c6.6-0.4,13.5,2,19.9-1.6
	c5.7-4.2,11.9-4.2,18.6-2.6c19.9,5,39.8,9.3,60.6,8.2c4.5-0.2,9.5-5.3,14,0c-9.1,1-18.1,2.2-27.2,2.8c-8.9,0.6-10,3.8-9.3,12.6
	c0.9,13.4,9.5,20.3,19,26.4c9.6,6.2,12.3,15.3,14.5,25.2c0.1,2.8-2,6.4,2.5,7.8c0.1,2.4,0.1,4.7,0.2,7.1c-2.8,0.5-4.5,2.2-5.1,4.9
	c-1.5,1-3.3,1.6-4.3,2.9c-8.4,10.6-17.1,13.1-28.6,6.7c-5.9-3.3-12.6-5.5-16.1-13.1c-3.1-6.9-13.4-6.5-19.6-2
	C442,501.9,434.4,510.3,422.4,509.1z"/>
<path id="XMLID_13_" class="st10" d="M315.6,660.6c5.6,3.6,11.2,4.2,16.9,0.1c1.7-1.3,4.1-2.9,6.1,0c-1.9,8-3.6,16-5.8,23.9
	c-3.4,12-8.2,23.3-13.9,34.5c-6.8,13.4-5.3,18.3,5.1,25.2c0.4,1.7,1.7,2.1,3.2,2.3c0,0,0.1,0.1,0.1,0.1c0.2,1.4,0.6,2.7,2.2,3.2
	c0,0-0.1-0.1-0.1-0.1c0.5,0.7,1,1.3,1.4,2c0.2,1,0.3,2,0.4,3c0.5,0.8,1,1.6,1.4,2.4c0.2,0.4,0.4,0.8,0.3,1.3c0.5,0.8,1,1.5,1.4,2.3
	c0.3,0.4,0.4,0.8,0.4,1.3c-0.2,1.8,0,3.4,2,4.1c0.4,0.4,0.6,0.9,0.6,1.5c-9.6,3.3-19.2,7.1-28.7-0.6c-1.5-1.2-4.6-0.6-6.9-0.9
	c-1.7-0.2-5-0.5-5-0.9c-0.4-14-13.9-7.5-20.1-13.6c-0.6,6.7,1.5,9.7,7.7,9.1c3.7-0.3,7.4-0.3,7.3,5.1c-0.1,1.6,0.5,3.3,2.2,3.4
	c10.1,0.9,14.8,9.7,21.9,14.9c2,1.5,3.5,2.7,6.3,1.9c2-0.6,5.6-1.6,6.1,1.4c0.5,2.9-2.2,6.6-4.8,6.6c-12.4,0-16.6,9.9-22.9,17.5
	c-1.4,1.7-2,5.6-6,3c-7.2-4.9-11.8,0.2-15.8,5c-2.2,2.7-3.3,7.4-7.7,5.2c-4.4-2.3-10.9-3.2-11.6-9.4c-0.9-8.2-7-12.2-12-17.1
	c-3.4-3.3-7.1-2.5-9.7,1.7c-1.6,2.6-3.5,4.6-6.2,1.4c-5.7-6.8-12-10.4-20.8-5.4c-1.4,0.8-3.5,0.3-5.3,0.4c0,0,0,0,0,0
	c-0.6-0.6-1.2-1.2-1.7-1.9c-1.2-1.2-2.4-2.3-3.6-3.5c-0.6-0.6-1.3-1.2-1.9-1.8c-2.8-1.6-3.8-4.5-5.4-7.1c0.2-2.7,0.2-5.3-3.5-5.5
	c-1.8-2.9-3.6-5.8-5.5-8.7c-2.3-6-1.8-13.1-6.3-18.3c-0.1-2.3-0.2-4.7-0.3-7c1.4-1.5,1.3-2.7-0.8-3.6c-0.3-0.2-0.4-0.6-0.3-0.9
	c-0.7-5.2-3.8-9.2-6.7-13.3l0,0c0-3.7,0-7.5,0-11.2c5.9-6.7,12.8-12.3,19.7-18c2-1.7,4.7-2.9,5.2-5.9c1.4-8.9,2.4-17.9,11.8-22.9
	c-3.9-3.2-5.9-0.4-8.2,0.4c-1.6,0.6-3.3,1.9-4.8,0c-1.2-1.6-0.7-3.5,0.4-5c0.8-1.2,2-2.2,3-3.3c3.7-3.9,3.4-6.4-2.5-6.2
	c-4,0.1-6.3-1.1-6.1-5.5c0.1-1.5-0.8-3.2-2.7-2.8c-13.6,3.6-7.7-5.3-7.1-10.8c2-5.4,5-10.3,8.9-14.6c0.5,2.9,0.7,5.8,4.4,6.9
	c21.6,6.4,42.7,14.3,63.6,22.7c3.9,1.6,7.6,2.2,10.7-3.7c2.2-4.1,5.9-9.3,11.1-11c4.9-1.7,7,3.4,10.1,5.8c0.8,0.7,2.3,1,3.4,0.8
	c8.7-1.7,10.2,3.8,11.9,10.5C304,657.4,306.5,664.2,315.6,660.6z"/>
<path id="XMLID_12_" class="st5" d="M200.2,791.3c1.2,1.2,2.4,2.3,3.6,3.5c0.6,0.6,1.2,1.2,1.7,1.9c0,0,0,0,0,0
	c0.5,1.4,1.4,2.8,1.4,4.1c0,1.9-1.8,4.3,1.7,4.8c2.6,0.3,5.7,1.3,7.1-1.9c4-9.1,7.4-3.3,10.7,0.4c2,2.2,3.3,5.2,5.6,6.8
	c2.7,1.9,7.9,8.5,7.6-2.3c-0.1-2.6,3.8-5.7,5-4.8c3.5,2.3,9.1,3.6,9.1,8.9c0,5.9,1.1,10.1,7,12.9c3.6,1.7,4.2,26,1.4,28.7
	c-2,2-13.8-2-15.4-5.8c-2.4-5.7-3.5-12.5-12.6-9.3c-1.1,0.4-3.7-2-4.7-3.6c-3.7-5.9-9.1-7.7-18-7.5c8.9,7.1,16.2,13.4,23.9,19.1
	c15.2,11,23.8,26.1,27,44.2c1,5.5-3.8,11-7.1,13.5c-9,6.9-9.4,15.1-6.8,25.9c-5.5-3.3-14.2,2.7-15.1-9c-0.3-3.3-3.1,2.3-5.9,2.8
	c-0.7-4.8-1.8-8.2-8.7-6.8c-5.1,1.1-10.9-1.3-16.7-1.4c-7.1-0.1-11.4-5.2-10.3-13.6c1.3-9.6-0.8-18.3-9.8-24.1
	c-3.3-2.1-6.6-4.7-4-9.4c10.4-9,9.7-15.8-2.7-26.3c-0.6-0.6-1.2-1.2-1.8-1.8c-0.6-0.6-1.2-1.2-1.8-1.8c-0.6-0.6-1.1-1.2-1.7-1.8
	c-0.2-2.5-1.3-4.3-3.7-5.3c-3.5-6.4-6.3-13.4-12.5-17.9c-0.8-4.2-3.4-6.2-7.6-7.1c-4.5-1-8.9-2.9-9-8.7c0.1-0.7,0.2-1.3,0.2-2l0,0.1
	c2.3-2,3-8.2,8-1.6c3.1,4,7.1,1.5,8-3.2c0.6-3.1,0.1-6.4,0.1-9.6l-0.1,0.1c3.4,0.3,4.5-2.2,5.8-4.5c5.6-10.8,12.6-13.5,24.6-9.5
	c1.8,2.9,3.6,5.8,5.5,8.7c0.2,2.5,1.4,4.3,3.5,5.5c1.5,2.5,2.6,5.4,5.4,7.1C198.9,790.1,199.6,790.7,200.2,791.3z"/>
<path id="XMLID_11_" class="st11" d="M340.2,801.8c1-1.4,2.4-2.7,3-4.2c4.6-10.9,2.7-13.9-9.1-15.9c-3.3-0.6-9.2,0-9.1-3.1
	c0.1-4.6,6.3-5.4,9.8-5.3c5.6,0.1,14.1-7.1,16.3,5c0.4,2.3,2.6,1.1,4.3,0.4c9.6-3.9,13.9-2.5,19.1,6.1c2.3,3.9,5,2.1,7.6,0.7
	c3.8-2,6.2-2,6.5,3.1c0.1,2.3,1.9,3.6,3.1,5.3c0.8,1.1,2.2,3.2,1.8,3.8c-3.7,4.8-7.8,9.3-9.2,15.6c-0.2,1-3.5-0.8-5-2.3
	c-3.4-3.2-7.1-2.6-10.5-0.3c-9.2,6.1-13.5,5.6-20-2.7C346.7,805.5,346,800.7,340.2,801.8z"/>
<path id="XMLID_10_" class="st8" d="M311.8,879c-2.7-2.5-4.1-5.6-8.1-5.2c-6.9,0.7-10.8-4.1-13.6-9.5c-1-1.9-1-4.3-3.6-4.2
	c-14.4,0.5-14-12.2-17.9-20.6c-3.5-7.6-1.3-12.4,8.4-10.7c2.5,0.4,5,0.2,7.4-2c5.4-5,10.7-4.1,13.3,2.8c2.3,6.1,7.6,9.9,10.5,15
	C313.7,854.6,318.3,865.9,311.8,879z"/>
<path id="XMLID_9_" class="st8" d="M375.9,855.2C365.6,843,353,839,341.7,832.8c-2.7-1.5-6-2.5-5-6.2c2-7.4-2.5-10.2-7.9-12.7
	c-0.8-0.4-1.6-0.9-2.4-1.2c-3.7-1.7-9.3-3.6-6.9-8.1c1.8-3.4,7-0.5,10.2,1.9c2.2,1.6,4.6,2.8,7.4,2.5c4.1-0.4,6,0.4,6.9,5.3
	c1.3,6.9,10.8,9.9,17.9,6.6c9.1-4.3,28.2,7.2,28.4,17.2c0.1,4.8-3.9,7.6-7.5,6.9C375.1,843.5,375.2,847.8,375.9,855.2z"/>
<path id="XMLID_8_" class="st8" d="M311.2,893.4c-0.8,1.9-1.8,4.7-2.9,7.5c-1.1,2.5-0.4,6.9-4.6,6.4c-3.2-0.4-3-3.8-3-6.6
	c0-2.6-1-4.6-3.8-5.2c-7.7-1.7-11.8-8.4-17.4-13c-1.8-1.5-2.6-3.1-1.2-5.4c1.8-3,0.5-5.6-1.3-8.3c-0.7-1.1-3.8-2-1.3-3.8
	c1.8-1.3,4.9-3.4,6.4-0.9c6.2,10.6,18.8,13.2,26.3,22.1C310.1,888,311.4,889.9,311.2,893.4z"/>
<path id="XMLID_7_" class="st8" d="M293.6,904.9c0.3,2.9-0.4,4.5-3.4,3.3c-7.1-2.8-14.6-2.3-22-2.1c-4,0.1-5.8-1.6-4.2-5.3
	c5.6-13.1-1.7-23.9-6.1-35.2c-0.7-1.8-3.5-3.5-1.1-5.2c2.3-1.6,3.4,1.3,4.5,2.9c2.4,3.7,4.8,7.4,7,11.3c4.5,8.1,9.9,15.3,17.8,20.6
	C289.5,897.4,294.2,899.6,293.6,904.9z"/>
<path id="XMLID_6_" class="st7" d="M170.8,516c-8.6,2.7-10.9,11.3-14.7,17.7c-12.6,21.3-24.8,42.8-38.3,63.6
	c-1.6,2.4-3.7,4.7-7.2,4.7c-6.6-0.6-13.2-1.6-19.7-1.6c-22-0.1-43.9-1.6-65.8-3.5c-5.8-0.5-7.7-2.7-7.7-8.3
	c-0.1-22.6,2.9-44.9,5.2-67.3c0.1-0.9,0.4-1.8,0.2-2.7c-3.3-20,7.9-36,14.7-53c7-17.6,15-34.8,23-52.1c1.9-4.1,2-10.4,9-10.3
	c0,0,0,0,0,0c0.1,3.7,2.7,3.7,5.3,3.7c11.3,11.2,25,19.2,35.5,31.9c10.3,12.4,25.5,21.2,39.3,30.3c8.9,5.8,17.2,12.9,27.2,17
	c1.2,3.4,2.5,6.7,1.9,10.4l0,0c-1.5,0.9-1.8,2.2-1.6,3.8C177,506.2,166.4,508.1,170.8,516z"/>
<path id="XMLID_5_" class="st3" d="M174.7,632c-0.7,5.6-6.5,14.5,7.1,10.8c1.8-0.5,2.7,1.3,2.7,2.8c-0.2,4.4,2.1,5.6,6.1,5.5
	c5.9-0.1,6.2,2.3,2.5,6.2c-1,1.1-2.2,2.1-3,3.3c-1,1.5-1.6,3.3-0.4,5c1.5,2,3.2,0.6,4.8,0c2.3-0.9,4.3-3.7,8.2-0.4
	c-9.4,4.9-10.3,14-11.8,22.9c-0.5,3-3.1,4.2-5.2,5.9c-6.9,5.6-13.8,11.3-19.7,18c-4,3.7-3.1,7.5,0,11.2l0,0
	c-1.2,5.1-3.2,10.5,5.1,11.4c0.6,0.1,1.1,1.3,1.6,1.9c-0.1,0.4,0,0.7,0.3,0.9c0.3,1.2,0.5,2.4,0.8,3.6c0.1,2.3,0.2,4.7,0.3,7
	c0.4,3.2,0.7,6.4,1.2,9.6c0.3,2.2,0.3,4.8-2.6,4.6c-13.6-1.3-19.3,6.9-22.7,18.2l0.1-0.1c-2.9,1.7-1.3,4.8-2.4,7.1
	c-1.1,2.4-2,5.7-5.2,1.7c-1.7-2.2-3.7-4.4-6.5-3c-3.5,1.8-2.1,5.5-2.1,8.5l0-0.1c-1.8,0.1-3.6,0.1-5.3,0.2
	c-1.7-14.4-6.7-20-20.5-23.5c-4.1-1-7.3-4.1-12.2-4.1c-3.2,0.1-2.8-4.5-3-7.5c-1.4-23.3,1.9-46.3,3.1-69.5
	c0.6-11.3,1.9-22.6,1.9-33.9c0-8.7,2-15,11.3-17c0,0-0.3-0.2-0.3-0.2c2.6,0,5.3,0.3,7.3-2l-0.2,0.1c2.2-0.1,4.5,0.1,6.1-1.8
	C139.3,629.7,157,631,174.7,632z"/>
<path id="XMLID_4_" class="st3" d="M308,435.5c4.2-2,2.4-6.2,3.2-9.4c9.4,1.7,17.7,1.5,20.1-10.3c3-4.6,6.4-3.1,10.6-1.4
	c13.9,5.9,28.1,10.7,43.5,10.2c12-0.4,12-0.2,11.6,12.3c-5,5.3-13.9,7.3-11.1,18.4c1.8,7.3,1.1,15.1,5.5,22.1
	c2.8,4.5,7.3,8.7,6.8,14.9c-11.3,7.7-26,9.7-34.9,21.3c-20.5,0-40.9,0-61.4-0.1c-4.7-5.3-9.5-10.5-14.2-15.8c0.9-4-2.2-10.7,7.5-7.7
	c4.9,1.5,8.3-2.7,3.7-8.2l0,0c-1.1-1.3-2.2-2.6-3.4-3.8c0,0,0.1,0.2,0.1,0.2c0-1.7,0.1-3.5,0.1-5.2c0,0,0,0.2,0,0.2
	c4.8-2.7,4.1-5.3-0.3-7.8c0,0,0.1,0.1,0.1,0.1c-0.7-0.6-1.3-1.1-2-1.7l-0.4-0.3c0,0-0.5,0.1-0.5,0.1c-1.1-1.7-2.9-1.9-4.7-1.9
	c0,0-0.6,0.1-0.6,0.1c-3.3-1.7-5.2-3.8-5.3-8c-0.1-4.8,0.3-10.2-4.4-13.6c0,0,0,0.1,0,0.1c0-1.4-0.7-1.9-2-1.9c0,0,0.1,0.2,0.1,0.2
	c0-1.3-0.8-1.8-2-1.9c0,0,0.3-0.1,0.3-0.1c0.9-5.3,8.6-7.5,14.5-3c4.6,3.4,10.6,0.5,14.6,5C304.4,439.7,307,437.5,308,435.5z"/>
<path id="XMLID_3_" class="st1" d="M315.6,654.6c-9.1,3.6-11.6-3.2-13.2-9.3c-1.7-6.7-3.2-12.2-11.9-10.5c-1.1,0.2-2.5-0.1-3.4-0.8
	c-3.1-2.5-5.2-7.5-10.1-5.8c-5.2,1.8-8.9,6.9-11.1,11c-3.1,5.9-6.8,5.3-10.7,3.7c-20.9-8.4-42-16.2-63.6-22.7
	c-3.7-1.1-3.9-4-4.4-6.9c0.1-1.9-2.9-5.3,1.5-5.3c8.7-0.1,6.6-4.7,4.2-9.3c-6.1-11.5-2.3-20,10.4-23.1c1.4-0.3,3.9,0.2,4.3-0.5
	c5-9.6,17.1-5,23.4-11.9c0.4-0.7,0.9-1.4,1.3-2c0.1-1.1,0.1-2.2,0.2-3.3c7.7-0.9,6.5-6,5.3-11.2c0.6,0.1,1.2,0.1,1.7,0.2
	c2.6,0.7,4.6,5.2,7.5,2.8c3.6-3-2.8-5-1.8-8.2c1.7-0.1,3.4-0.2,5.1-0.3c0.5,0.1,1,0.2,1.5,0.2c0.9,2.6-0.7,6.5,2.9,7.7
	c3.6,1.2,4.7-2.5,6.8-4.4c0.7-0.7,2.1-0.6,3.1-0.9c3.3,3.3,7.5,4.4,12,4.6c0.8,0,1.8-0.8,2.5-0.6c6.4,1.9,6.4,1.9,7.9-6
	c0.4-2,0.5-4,0.8-6.1c0.4-2.7,0.3-5.7,3.6-6.9c0.1,1.2,0.2,2.4,0.4,3.6c0.2,13.7-2,27.4,1.8,40.9c-5.2,17.4,5.5,31.3,10.3,46.4
	C307.6,631.7,313.4,642.5,315.6,654.6z"/>
<path id="XMLID_2_" class="st11" d="M598,873.2c-16.8-9.1-32.5-6-47,4c-23.8,16.5-49,30.5-73.9,45.2c-5.8,3.4-8,1.4-12.1-3.1
	c-7.5-8.3-7.7-17.8-8.3-27.7c-0.5-8-10.3-15.8-18-13.9c-7.2,1.8-14.2,2.9-21.5,1.4c-6.4-1.3-12.1,2.6-18.3,3.4
	c-7.2,0.9-10-1.4-8.5-8.8c2.5-12.3,2.3-12.3-10.8-11.2c-2.1,0.2-3.6-0.3-4.6-1.9c-7.9-12.7-21.5-17.4-33.8-23.8
	c-5.4-2.8-10.1-5.3-8.4-12.6c0.6-2.7-0.8-4.8-3.2-5.8c-6.2-2.8-11.5-6.2-16.7-11c-4-3.7-8.1,2.9-8.8,7.6c-1.3,9.5-3,17.7,6.5,26.8
	c8.5,8.1,11.7,23.3,5.8,35.6c-4.1,8.5-0.8,17.3-4.6,25.7c-3.7,8-10.6,13.6-18.7,9.9c-10.9-5.1-22.3-0.3-33.4-3
	c-3.4-0.8-9.9,10.7-9.2,15c0.4,2.6,1.3,5.2,1.3,7.9c-0.1,3.4-1,5.3-5.6,3.8c-8-2.5-16.4-3.9-24.6-5.7c-0.6,9.8-0.5,19.7-1.9,29.4
	c-1.2,8.6,2,10.1,10,10.1c116.6-0.2,233.2-0.2,349.8-0.2c1.8,0,3.6-0.1,5.4,0c3.2,0.2,4.8-1.2,5.5-4.4c6.3-26.6,12.6-53.1,19-79.7
	C604.7,882.9,603.7,876.3,598,873.2z"/>
</svg>
